<svg width="30" height="32" viewBox="0 0 30 32" fill="none" xmlns="http://www.w3.org/2000/svg">
<path fill-rule="evenodd" clip-rule="evenodd" d="M14.2729 3.39466C12.2987 1.79039 10.0773 0.826367 7.7825 0.577941C5.48766 0.329515 3.1815 0.80342 1.04429 1.96261C0.735626 2.12905 0.471018 2.41731 0.284802 2.79C0.0985862 3.16269 -0.000639187 3.60259 3.09851e-06 4.05263V26.617C3.09851e-06 28.1265 1.12715 29.1599 2.16286 28.5987C3.9131 27.6507 5.80142 27.2636 7.68035 27.4677C9.55928 27.6718 11.3779 28.4616 12.9943 29.7753L14.6157 31.0912C14.74 31.1938 14.8729 31.2364 15 31.2344C15.1359 31.238 15.2697 31.189 15.3857 31.0931L17.0057 29.7753C18.6221 28.4616 20.4407 27.6718 22.3197 27.4677C24.1986 27.2636 26.0869 27.6507 27.8371 28.5987C28.0764 28.7283 28.3355 28.7766 28.5918 28.7392C28.848 28.7018 29.0936 28.5799 29.307 28.3842C29.5205 28.1884 29.6952 27.9248 29.816 27.6164C29.9368 27.308 30 26.9642 30 26.6151V4.05263C30 3.13147 29.5857 2.30514 28.9557 1.96261C26.8185 0.80431 24.5125 0.331219 22.2179 0.580314C19.9233 0.829409 17.7024 1.79394 15.7286 3.39853L15 3.9907L14.2729 3.39466ZM16.0729 8.01978C16.0729 7.63485 15.96 7.26568 15.759 6.99349C15.5581 6.7213 15.2856 6.56838 15.0014 6.56838C14.7173 6.56838 14.4447 6.7213 14.2438 6.99349C14.0429 7.26568 13.93 7.63485 13.93 8.01978V26.4042C13.93 26.7891 14.0429 27.1583 14.2438 27.4305C14.4447 27.7026 14.7173 27.8556 15.0014 27.8556C15.2856 27.8556 15.5581 27.7026 15.759 27.4305C15.96 27.1583 16.0729 26.7891 16.0729 26.4042V8.01978Z" fill="url(#paint0_linear_54_834)"/>
<defs>
<linearGradient id="paint0_linear_54_834" x1="15" y1="0.513672" x2="15" y2="31.2346" gradientUnits="userSpaceOnUse">
<stop stop-color="#E3E0C0"/>
<stop offset="0.5" stop-color="#E3E0C0"/>
<stop offset="1" stop-color="#FBEC6C"/>
</linearGradient>
</defs>
</svg>
