<svg width="30" height="31" viewBox="0 0 30 31" fill="none" xmlns="http://www.w3.org/2000/svg">
<path d="M11.0953 22.8479C7.99431 22.8479 5.37013 21.7478 3.22276 19.5477C1.07539 17.3476 0.00113888 14.6603 9.03159e-07 11.486C-0.00113708 8.31161 1.07312 5.62437 3.22276 3.42423C5.3724 1.22409 7.99659 0.124023 11.0953 0.124023C14.194 0.124023 16.8188 1.22409 18.9696 3.42423C21.1203 5.62437 22.194 8.31161 22.1906 11.486C22.1906 12.7678 21.9915 13.9768 21.5932 15.113C21.1949 16.2492 20.6543 17.2543 19.9716 18.1283L29.5306 27.9171C29.8435 28.2375 30 28.6454 30 29.1407C30 29.6359 29.8435 30.0438 29.5306 30.3643C29.2176 30.6847 28.8193 30.845 28.3357 30.845C27.8521 30.845 27.4538 30.6847 27.1408 30.3643L17.5818 20.5755C16.7283 21.2747 15.7468 21.8282 14.6373 22.2361C13.5277 22.644 12.3471 22.8479 11.0953 22.8479ZM11.0953 19.3519C13.229 19.3519 15.043 18.5875 16.5371 17.0586C18.0313 15.5296 18.7778 13.6721 18.7767 11.486C18.7755 9.29981 18.029 7.44286 16.5371 5.91512C15.0452 4.38737 13.2313 3.62233 11.0953 3.62C8.95932 3.61767 7.14595 4.38271 5.65519 5.91512C4.16444 7.44752 3.41736 9.30447 3.41394 11.486C3.41053 13.6675 4.15761 15.525 5.65519 17.0586C7.15277 18.5921 8.96615 19.3566 11.0953 19.3519Z" fill="url(#paint0_linear_54_841)"/>
<defs>
<linearGradient id="paint0_linear_54_841" x1="15" y1="0.124023" x2="15" y2="30.845" gradientUnits="userSpaceOnUse">
<stop stop-color="#E3E0C0"/>
<stop offset="0.5" stop-color="#E3E0C0"/>
<stop offset="1" stop-color="#FBEC6C"/>
</linearGradient>
</defs>
</svg>
