<svg width="30" height="31" viewBox="0 0 30 31" fill="none" xmlns="http://www.w3.org/2000/svg">
<g filter="url(#filter0_i_329_802)">
<path d="M5.35442 11.1238L5.73745 10.4854C6.4565 9.28585 7.58948 8.417 8.90473 8.05646C10.22 7.69593 11.6181 7.87096 12.8133 8.54576L15.886 10.2803L11.2918 18.1274L9.78214 14.2039L5.17625 22.5375C4.99814 22.8605 4.76002 23.1435 4.47573 23.3701C4.19144 23.5967 3.86664 23.7623 3.5202 23.8574C3.17376 23.9525 2.81258 23.9751 2.45766 23.9239C2.10273 23.8728 1.76113 23.7489 1.4527 23.5594L1.32893 23.4829C1.02115 23.294 0.75247 23.0436 0.538424 22.7462C0.324378 22.4488 0.169215 22.1102 0.081906 21.7501C-0.00540258 21.39 -0.023124 21.0155 0.0297665 20.6482C0.082657 20.2809 0.20511 19.9282 0.390045 19.6104L4.25229 12.9758L4.24696 12.9714L4.54676 12.4715L5.16878 11.4031C5.22568 11.3048 5.28756 11.2117 5.35442 11.1238Z" fill="url(#paint0_linear_329_802)"/>
<path d="M5.35442 11.1238L5.73745 10.4854C6.4565 9.28585 7.58948 8.417 8.90473 8.05646C10.22 7.69593 11.6181 7.87096 12.8133 8.54576L15.886 10.2803L11.2918 18.1274L9.78214 14.2039L5.17625 22.5375C4.99814 22.8605 4.76002 23.1435 4.47573 23.3701C4.19144 23.5967 3.86664 23.7623 3.5202 23.8574C3.17376 23.9525 2.81258 23.9751 2.45766 23.9239C2.10273 23.8728 1.76113 23.7489 1.4527 23.5594L1.32893 23.4829C1.02115 23.294 0.75247 23.0436 0.538424 22.7462C0.324378 22.4488 0.169215 22.1102 0.081906 21.7501C-0.00540258 21.39 -0.023124 21.0155 0.0297665 20.6482C0.082657 20.2809 0.20511 19.9282 0.390045 19.6104L4.25229 12.9758L4.24696 12.9714L4.54676 12.4715L5.16878 11.4031C5.22568 11.3048 5.28756 11.2117 5.35442 11.1238Z" fill="url(#paint1_radial_329_802)"/>
</g>
<path d="M14.3048 27.8211L13.5889 25.9092L15.0313 23.708H30.0002V28.7831C30.0002 29.371 29.7754 29.9348 29.3752 30.3506C28.9751 30.7663 28.4323 30.9998 27.8664 30.9998H18.7794C17.812 30.9998 16.8672 30.6962 16.0687 30.1288C15.2702 29.5614 14.6554 28.7566 14.3048 27.82" fill="url(#paint2_linear_329_802)"/>
<path d="M14.3048 27.8211L13.5889 25.9092L15.0313 23.708H30.0002V28.7831C30.0002 29.371 29.7754 29.9348 29.3752 30.3506C28.9751 30.7663 28.4323 30.9998 27.8664 30.9998H18.7794C17.812 30.9998 16.8672 30.6962 16.0687 30.1288C15.2702 29.5614 14.6554 28.7566 14.3048 27.82" fill="url(#paint3_linear_329_802)"/>
<path d="M13.8702 25.8164C13.8702 24.3375 12.7161 23.1387 11.2925 23.1387C9.86891 23.1387 8.71484 24.3375 8.71484 25.8164V28.2027C8.71484 29.6816 9.86891 30.8805 11.2925 30.8805C12.7161 30.8805 13.8702 29.6816 13.8702 28.2027V25.8164Z" fill="url(#paint4_radial_329_802)"/>
<path d="M13.8702 25.8164C13.8702 24.3375 12.7161 23.1387 11.2925 23.1387C9.86891 23.1387 8.71484 24.3375 8.71484 25.8164V28.2027C8.71484 29.6816 9.86891 30.8805 11.2925 30.8805C12.7161 30.8805 13.8702 29.6816 13.8702 28.2027V25.8164Z" fill="url(#paint5_radial_329_802)"/>
<path d="M13.8702 25.8164C13.8702 24.3375 12.7161 23.1387 11.2925 23.1387C9.86891 23.1387 8.71484 24.3375 8.71484 25.8164V28.2027C8.71484 29.6816 9.86891 30.8805 11.2925 30.8805C12.7161 30.8805 13.8702 29.6816 13.8702 28.2027V25.8164Z" fill="url(#paint6_radial_329_802)"/>
<path d="M17.4695 0.278382C17.5044 0.215121 17.551 0.159646 17.6067 0.11514C17.6623 0.0706336 17.7258 0.0379708 17.7936 0.0190245C17.8614 7.81809e-05 17.9321 -0.00477879 18.0017 0.00473172C18.0713 0.0142422 18.1385 0.0379332 18.1992 0.0744464L21.3605 1.96972C21.4827 2.04301 21.5719 2.16357 21.6087 2.30501C21.6454 2.44646 21.6268 2.59728 21.5568 2.7245L7.10968 28.9335C7.05726 29.0285 6.97893 29.1053 6.88456 29.1541L3.49602 30.8997C3.32318 30.9884 3.17808 30.8997 3.16954 30.7002L2.92842 26.7756C2.92326 26.6699 2.94732 26.5649 2.99777 26.473L17.4695 0.278382Z" fill="url(#paint7_radial_329_802)"/>
<path d="M17.4695 0.278382C17.5044 0.215121 17.551 0.159646 17.6067 0.11514C17.6623 0.0706336 17.7258 0.0379708 17.7936 0.0190245C17.8614 7.81809e-05 17.9321 -0.00477879 18.0017 0.00473172C18.0713 0.0142422 18.1385 0.0379332 18.1992 0.0744464L21.3605 1.96972C21.4827 2.04301 21.5719 2.16357 21.6087 2.30501C21.6454 2.44646 21.6268 2.59728 21.5568 2.7245L7.10968 28.9335C7.05726 29.0285 6.97893 29.1053 6.88456 29.1541L3.49602 30.8997C3.32318 30.9884 3.17808 30.8997 3.16954 30.7002L2.92842 26.7756C2.92326 26.6699 2.94732 26.5649 2.99777 26.473L17.4695 0.278382Z" fill="url(#paint8_radial_329_802)"/>
<g filter="url(#filter1_i_329_802)">
<path d="M8.71301 22.1838C7.37829 23.1536 6.94939 25.1031 7.81893 26.5329C8.71088 27.997 10.6719 28.4271 12.0919 27.5193L15.8582 25.1098C15.9682 25.0392 16.0907 24.9921 16.2184 24.9713C16.3462 24.9505 16.4767 24.9564 16.6022 24.9887C16.7277 25.0211 16.8458 25.0791 16.9494 25.1595C17.053 25.2398 17.1402 25.3409 17.2057 25.4567C17.9161 26.704 18.9557 27.7136 20.2015 28.366C21.4472 29.0183 22.8468 29.2861 24.2346 29.1375L28.323 28.7008C28.7825 28.6515 29.2081 28.4269 29.5175 28.0705C29.8269 27.714 29.9981 27.2511 29.9981 26.7712V18.8687C29.9956 18.2546 29.8185 17.6551 29.4889 17.1453C29.1594 16.6355 28.6921 16.2383 28.1459 16.0036C25.7699 14.9751 21.4435 13.0233 17.1619 10.7002L12.1037 19.8773L8.71301 22.1838Z" fill="url(#paint9_linear_329_802)"/>
<path d="M8.71301 22.1838C7.37829 23.1536 6.94939 25.1031 7.81893 26.5329C8.71088 27.997 10.6719 28.4271 12.0919 27.5193L15.8582 25.1098C15.9682 25.0392 16.0907 24.9921 16.2184 24.9713C16.3462 24.9505 16.4767 24.9564 16.6022 24.9887C16.7277 25.0211 16.8458 25.0791 16.9494 25.1595C17.053 25.2398 17.1402 25.3409 17.2057 25.4567C17.9161 26.704 18.9557 27.7136 20.2015 28.366C21.4472 29.0183 22.8468 29.2861 24.2346 29.1375L28.323 28.7008C28.7825 28.6515 29.2081 28.4269 29.5175 28.0705C29.8269 27.714 29.9981 27.2511 29.9981 26.7712V18.8687C29.9956 18.2546 29.8185 17.6551 29.4889 17.1453C29.1594 16.6355 28.6921 16.2383 28.1459 16.0036C25.7699 14.9751 21.4435 13.0233 17.1619 10.7002L12.1037 19.8773L8.71301 22.1838Z" fill="url(#paint10_radial_329_802)"/>
<path d="M8.71301 22.1838C7.37829 23.1536 6.94939 25.1031 7.81893 26.5329C8.71088 27.997 10.6719 28.4271 12.0919 27.5193L15.8582 25.1098C15.9682 25.0392 16.0907 24.9921 16.2184 24.9713C16.3462 24.9505 16.4767 24.9564 16.6022 24.9887C16.7277 25.0211 16.8458 25.0791 16.9494 25.1595C17.053 25.2398 17.1402 25.3409 17.2057 25.4567C17.9161 26.704 18.9557 27.7136 20.2015 28.366C21.4472 29.0183 22.8468 29.2861 24.2346 29.1375L28.323 28.7008C28.7825 28.6515 29.2081 28.4269 29.5175 28.0705C29.8269 27.714 29.9981 27.2511 29.9981 26.7712V18.8687C29.9956 18.2546 29.8185 17.6551 29.4889 17.1453C29.1594 16.6355 28.6921 16.2383 28.1459 16.0036C25.7699 14.9751 21.4435 13.0233 17.1619 10.7002L12.1037 19.8773L8.71301 22.1838Z" fill="url(#paint11_radial_329_802)"/>
<path d="M8.71301 22.1838C7.37829 23.1536 6.94939 25.1031 7.81893 26.5329C8.71088 27.997 10.6719 28.4271 12.0919 27.5193L15.8582 25.1098C15.9682 25.0392 16.0907 24.9921 16.2184 24.9713C16.3462 24.9505 16.4767 24.9564 16.6022 24.9887C16.7277 25.0211 16.8458 25.0791 16.9494 25.1595C17.053 25.2398 17.1402 25.3409 17.2057 25.4567C17.9161 26.704 18.9557 27.7136 20.2015 28.366C21.4472 29.0183 22.8468 29.2861 24.2346 29.1375L28.323 28.7008C28.7825 28.6515 29.2081 28.4269 29.5175 28.0705C29.8269 27.714 29.9981 27.2511 29.9981 26.7712V18.8687C29.9956 18.2546 29.8185 17.6551 29.4889 17.1453C29.1594 16.6355 28.6921 16.2383 28.1459 16.0036C25.7699 14.9751 21.4435 13.0233 17.1619 10.7002L12.1037 19.8773L8.71301 22.1838Z" fill="url(#paint12_linear_329_802)"/>
</g>
<path d="M8.71301 22.1838C7.37829 23.1536 6.94939 25.1031 7.81893 26.5329C8.71088 27.997 10.6719 28.4271 12.0919 27.5193L15.8582 25.1098C15.9682 25.0392 16.0907 24.9921 16.2184 24.9713C16.3462 24.9505 16.4767 24.9564 16.6022 24.9887C16.7277 25.0211 16.8458 25.0791 16.9494 25.1595C17.053 25.2398 17.1402 25.3409 17.2057 25.4567C17.9161 26.704 18.9557 27.7136 20.2015 28.366C21.4472 29.0183 22.8468 29.2861 24.2346 29.1375L28.323 28.7008C28.7825 28.6515 29.2081 28.4269 29.5175 28.0705C29.8269 27.714 29.9981 27.2511 29.9981 26.7712V18.8687C29.9956 18.2546 29.8185 17.6551 29.4889 17.1453C29.1594 16.6355 28.6921 16.2383 28.1459 16.0036C25.7699 14.9751 21.4435 13.0233 17.1619 10.7002L12.1037 19.8773L8.71301 22.1838Z" fill="url(#paint13_linear_329_802)"/>
<path d="M8.71301 22.1838C7.37829 23.1536 6.94939 25.1031 7.81893 26.5329C8.71088 27.997 10.6719 28.4271 12.0919 27.5193L15.8582 25.1098C15.9682 25.0392 16.0907 24.9921 16.2184 24.9713C16.3462 24.9505 16.4767 24.9564 16.6022 24.9887C16.7277 25.0211 16.8458 25.0791 16.9494 25.1595C17.053 25.2398 17.1402 25.3409 17.2057 25.4567C17.9161 26.704 18.9557 27.7136 20.2015 28.366C21.4472 29.0183 22.8468 29.2861 24.2346 29.1375L28.323 28.7008C28.7825 28.6515 29.2081 28.4269 29.5175 28.0705C29.8269 27.714 29.9981 27.2511 29.9981 26.7712V18.8687C29.9956 18.2546 29.8185 17.6551 29.4889 17.1453C29.1594 16.6355 28.6921 16.2383 28.1459 16.0036C25.7699 14.9751 21.4435 13.0233 17.1619 10.7002L12.1037 19.8773L8.71301 22.1838Z" fill="url(#paint14_linear_329_802)"/>
<path d="M11.417 20.3141L11.9825 19.9218L12.071 19.8896L11.4191 20.3153L11.417 20.3141Z" fill="url(#paint15_radial_329_802)"/>
<path d="M16.175 12.4932L12.1133 19.8637L13.9889 18.64C15.1 17.9149 16.4208 17.618 17.721 17.801L20.3147 18.1668L16.175 12.4932Z" fill="url(#paint16_radial_329_802)"/>
<path d="M15.1865 4.41134L16.3313 2.33984L20.4102 4.80591L19.2686 6.87852L15.1865 4.41134Z" fill="url(#paint17_linear_329_802)"/>
<path d="M15.1865 4.41134L16.3313 2.33984L20.4102 4.80591L19.2686 6.87852L15.1865 4.41134Z" fill="url(#paint18_linear_329_802)"/>
<path d="M7.06387 29.002C7.01542 29.0652 6.95424 29.1167 6.88463 29.1527L3.49609 30.8984C3.32325 30.987 3.17815 30.8984 3.16961 30.6989L2.92849 26.7742C2.92525 26.711 2.93246 26.6476 2.94983 26.5869L7.06387 29.002Z" fill="url(#paint19_linear_329_802)"/>
<path d="M7.06387 29.002C7.01542 29.0652 6.95424 29.1167 6.88463 29.1527L3.49609 30.8984C3.32325 30.987 3.17815 30.8984 3.16961 30.6989L2.92849 26.7742C2.92525 26.711 2.93246 26.6476 2.94983 26.5869L7.06387 29.002Z" fill="url(#paint20_linear_329_802)"/>
<path d="M7.06387 29.002C7.01542 29.0652 6.95424 29.1167 6.88463 29.1527L3.49609 30.8984C3.32325 30.987 3.17815 30.8984 3.16961 30.6989L2.92849 26.7742C2.92525 26.711 2.93246 26.6476 2.94983 26.5869L7.06387 29.002Z" fill="url(#paint21_linear_329_802)"/>
<path d="M4.36745 30.4511L3.49578 30.9C3.32294 30.9886 3.17784 30.9 3.1693 30.7004L3.10742 29.6963L4.36745 30.4511Z" fill="url(#paint22_linear_329_802)"/>
<g filter="url(#filter2_f_329_802)">
<path d="M17.1264 20.6217L11.1175 23.9932C11.0326 24.0413 10.9576 24.1062 10.8969 24.1843C10.8361 24.2625 10.7908 24.3523 10.7635 24.4486C10.7361 24.5449 10.7273 24.6459 10.7375 24.7458C10.7478 24.8457 10.7768 24.9425 10.823 25.0307C10.8693 25.1189 10.9318 25.1967 11.007 25.2598C11.0822 25.323 11.1686 25.3701 11.2614 25.3985C11.3541 25.4269 11.4513 25.436 11.5475 25.4254C11.6436 25.4148 11.7368 25.3846 11.8217 25.3366L17.0709 22.3507C17.3749 22.1778 17.7148 22.0844 18.0613 22.0786C18.4078 22.0728 18.7505 22.1548 19.0597 22.3174L28.6609 27.3626V20.2227H18.6478C18.1167 20.2225 17.5938 20.3596 17.1264 20.6217Z" fill="#FFEF64"/>
</g>
<path d="M12.1112 19.8633L13.9868 18.6408C15.0978 17.9156 16.4187 17.6187 17.7189 17.8017L19.2851 18.0234L17.2164 25.4748L17.2057 25.4571C17.1402 25.3413 17.053 25.2402 16.9494 25.1598C16.8458 25.0795 16.7277 25.0214 16.6022 24.9891C16.4767 24.9568 16.3462 24.9509 16.2184 24.9717C16.0907 24.9924 15.9682 25.0395 15.8582 25.1102L12.0919 27.5186C10.6729 28.4275 8.71088 27.9974 7.81893 26.5322C6.94939 25.1035 7.37829 23.1539 8.71301 22.1853L12.1037 19.8777L12.1112 19.8633Z" fill="url(#paint23_linear_329_802)"/>
<path d="M12.1112 19.8633L13.9868 18.6408C15.0978 17.9156 16.4187 17.6187 17.7189 17.8017L19.2851 18.0234L17.2164 25.4748L17.2057 25.4571C17.1402 25.3413 17.053 25.2402 16.9494 25.1598C16.8458 25.0795 16.7277 25.0214 16.6022 24.9891C16.4767 24.9568 16.3462 24.9509 16.2184 24.9717C16.0907 24.9924 15.9682 25.0395 15.8582 25.1102L12.0919 27.5186C10.6729 28.4275 8.71088 27.9974 7.81893 26.5322C6.94939 25.1035 7.37829 23.1539 8.71301 22.1853L12.1037 19.8777L12.1112 19.8633Z" fill="url(#paint24_radial_329_802)"/>
<defs>
<filter id="filter0_i_329_802" x="-0.15" y="7.37305" width="16.0357" height="16.5771" filterUnits="userSpaceOnUse" color-interpolation-filters="sRGB">
<feFlood flood-opacity="0" result="BackgroundImageFix"/>
<feBlend mode="normal" in="SourceGraphic" in2="BackgroundImageFix" result="shape"/>
<feColorMatrix in="SourceAlpha" type="matrix" values="0 0 0 0 0 0 0 0 0 0 0 0 0 0 0 0 0 0 127 0" result="hardAlpha"/>
<feOffset dx="-0.15" dy="-0.5"/>
<feGaussianBlur stdDeviation="0.5"/>
<feComposite in2="hardAlpha" operator="arithmetic" k2="-1" k3="1"/>
<feColorMatrix type="matrix" values="0 0 0 0 0.862745 0 0 0 0 0.435294 0 0 0 0 0.321569 0 0 0 1 0"/>
<feBlend mode="normal" in2="shape" result="effect1_innerShadow_329_802"/>
</filter>
<filter id="filter1_i_329_802" x="7.36621" y="10.5752" width="22.6318" height="18.6025" filterUnits="userSpaceOnUse" color-interpolation-filters="sRGB">
<feFlood flood-opacity="0" result="BackgroundImageFix"/>
<feBlend mode="normal" in="SourceGraphic" in2="BackgroundImageFix" result="shape"/>
<feColorMatrix in="SourceAlpha" type="matrix" values="0 0 0 0 0 0 0 0 0 0 0 0 0 0 0 0 0 0 127 0" result="hardAlpha"/>
<feOffset dy="-0.125"/>
<feGaussianBlur stdDeviation="0.25"/>
<feComposite in2="hardAlpha" operator="arithmetic" k2="-1" k3="1"/>
<feColorMatrix type="matrix" values="0 0 0 0 0.92549 0 0 0 0 0.509804 0 0 0 0 0.65098 0 0 0 1 0"/>
<feBlend mode="normal" in2="shape" result="effect1_innerShadow_329_802"/>
</filter>
<filter id="filter2_f_329_802" x="9.7334" y="19.2227" width="19.9277" height="9.13965" filterUnits="userSpaceOnUse" color-interpolation-filters="sRGB">
<feFlood flood-opacity="0" result="BackgroundImageFix"/>
<feBlend mode="normal" in="SourceGraphic" in2="BackgroundImageFix" result="shape"/>
<feGaussianBlur stdDeviation="0.5" result="effect1_foregroundBlur_329_802"/>
</filter>
<linearGradient id="paint0_linear_329_802" x1="10.8277" y1="8.92924" x2="3.0064" y2="21.8695" gradientUnits="userSpaceOnUse">
<stop stop-color="#E3E0C0"/>
<stop offset="1" stop-color="#EA9D3E"/>
</linearGradient>
<radialGradient id="paint1_radial_329_802" cx="0" cy="0" r="1" gradientUnits="userSpaceOnUse" gradientTransform="translate(13.1852 9.12133) rotate(150.212) scale(2.60876 2.62783)">
<stop stop-color="#D5A047"/>
<stop offset="1" stop-color="#D5A047" stop-opacity="0"/>
</radialGradient>
<linearGradient id="paint2_linear_329_802" x1="15.7515" y1="24.6856" x2="20.2259" y2="30.1122" gradientUnits="userSpaceOnUse">
<stop stop-color="#DD7828"/>
<stop offset="1" stop-color="#EC82AA"/>
</linearGradient>
<linearGradient id="paint3_linear_329_802" x1="30.1923" y1="30.9998" x2="29.0485" y2="30.9998" gradientUnits="userSpaceOnUse">
<stop stop-color="#F3CA7E"/>
<stop offset="1" stop-color="#F3CA7E" stop-opacity="0"/>
</linearGradient>
<radialGradient id="paint4_radial_329_802" cx="0" cy="0" r="1" gradientUnits="userSpaceOnUse" gradientTransform="translate(13.0241 27.009) rotate(134.778) scale(2.62397 3.16303)">
<stop stop-color="#E3E0C0"/>
<stop offset="1" stop-color="#FBEC6C"/>
</radialGradient>
<radialGradient id="paint5_radial_329_802" cx="0" cy="0" r="1" gradientUnits="userSpaceOnUse" gradientTransform="translate(11.2925 26.0847) rotate(90) scale(5.17069 4.37684)">
<stop offset="0.776" stop-color="#EC85B1" stop-opacity="0"/>
<stop offset="1" stop-color="#EC85B1"/>
</radialGradient>
<radialGradient id="paint6_radial_329_802" cx="0" cy="0" r="1" gradientUnits="userSpaceOnUse" gradientTransform="translate(8.71484 27.4147) rotate(47.7399) scale(2.42878 3.53856)">
<stop stop-color="#DB8838"/>
<stop offset="1" stop-color="#DB8838" stop-opacity="0"/>
</radialGradient>
<radialGradient id="paint7_radial_329_802" cx="0" cy="0" r="1" gradientUnits="userSpaceOnUse" gradientTransform="translate(6.71874 24.991) rotate(-61.7387) scale(24.223 17.2271)">
<stop stop-color="#F3752E"/>
<stop offset="1" stop-color="#FD4E50"/>
</radialGradient>
<radialGradient id="paint8_radial_329_802" cx="0" cy="0" r="1" gradientUnits="userSpaceOnUse" gradientTransform="translate(11.3902 21.8678) rotate(-58.896) scale(5.74411 3.89422)">
<stop stop-color="#D24611"/>
<stop offset="1" stop-color="#D24611" stop-opacity="0"/>
</radialGradient>
<linearGradient id="paint9_linear_329_802" x1="16.4012" y1="12.3538" x2="29.2904" y2="24.5567" gradientUnits="userSpaceOnUse">
<stop stop-color="#FFD142"/>
<stop offset="1" stop-color="#FFD73D"/>
</linearGradient>
<radialGradient id="paint10_radial_329_802" cx="0" cy="0" r="1" gradientUnits="userSpaceOnUse" gradientTransform="translate(22.4155 31.4096) rotate(-134.07) scale(10.7245 6.82747)">
<stop offset="0.212" stop-color="#F1816B"/>
<stop offset="1" stop-color="#F1816B" stop-opacity="0"/>
</radialGradient>
<radialGradient id="paint11_radial_329_802" cx="0" cy="0" r="1" gradientUnits="userSpaceOnUse" gradientTransform="translate(28.8682 18.0031) rotate(148.976) scale(5.57477 1.72709)">
<stop stop-color="#FFEC5D"/>
<stop offset="1" stop-color="#FFEC5D" stop-opacity="0"/>
</radialGradient>
<linearGradient id="paint12_linear_329_802" x1="23.8409" y1="13.6916" x2="23.4363" y2="14.9018" gradientUnits="userSpaceOnUse">
<stop stop-color="#F7D160"/>
<stop offset="1" stop-color="#F7D160" stop-opacity="0"/>
</linearGradient>
<linearGradient id="paint13_linear_329_802" x1="23.5229" y1="13.4223" x2="21.4663" y2="17.5172" gradientUnits="userSpaceOnUse">
<stop stop-color="#F8D15D"/>
<stop offset="1" stop-color="#F8D15D" stop-opacity="0"/>
</linearGradient>
<linearGradient id="paint14_linear_329_802" x1="30.5241" y1="21.2505" x2="27.7906" y2="21.2505" gradientUnits="userSpaceOnUse">
<stop stop-color="#F8D15D"/>
<stop offset="1" stop-color="#F8D15D" stop-opacity="0"/>
</linearGradient>
<radialGradient id="paint15_radial_329_802" cx="0" cy="0" r="1" gradientUnits="userSpaceOnUse" gradientTransform="translate(12.1697 20.3157) rotate(-46.6954) scale(7.96149 9.39268)">
<stop offset="0.249" stop-color="#C4654E"/>
<stop offset="1" stop-color="#F19321" stop-opacity="0"/>
</radialGradient>
<radialGradient id="paint16_radial_329_802" cx="0" cy="0" r="1" gradientUnits="userSpaceOnUse" gradientTransform="translate(12.1715 20.3152) rotate(-46.6953) scale(7.96148 9.39267)">
<stop offset="0.249" stop-color="#FBEC6C"/>
<stop offset="1" stop-color="#F19321" stop-opacity="0"/>
</radialGradient>
<linearGradient id="paint17_linear_329_802" x1="15.5546" y1="3.37836" x2="20.4942" y2="5.99039" gradientUnits="userSpaceOnUse">
<stop stop-color="#C4A8BC"/>
<stop offset="1" stop-color="#E5D0FC"/>
</linearGradient>
<linearGradient id="paint18_linear_329_802" x1="19.9386" y1="5.75909" x2="19.5826" y2="5.57103" gradientUnits="userSpaceOnUse">
<stop stop-color="#FBEC6C"/>
<stop offset="1" stop-color="#CABAD4" stop-opacity="0"/>
</linearGradient>
<linearGradient id="paint19_linear_329_802" x1="3.3862" y1="28.7604" x2="6.23003" y2="29.3778" gradientUnits="userSpaceOnUse">
<stop stop-color="#E28A85"/>
<stop offset="1" stop-color="#FF95B3"/>
</linearGradient>
<linearGradient id="paint20_linear_329_802" x1="6.32129" y1="30.4728" x2="4.76385" y2="29.6076" gradientUnits="userSpaceOnUse">
<stop stop-color="#FF8DC2"/>
<stop offset="1" stop-color="#FF8DC2" stop-opacity="0"/>
</linearGradient>
<linearGradient id="paint21_linear_329_802" x1="5.02392" y1="27.795" x2="4.887" y2="28.0423" gradientUnits="userSpaceOnUse">
<stop stop-color="#FFA3AE"/>
<stop offset="1" stop-color="#FFA3AE" stop-opacity="0"/>
</linearGradient>
<linearGradient id="paint22_linear_329_802" x1="3.38909" y1="30.3801" x2="3.93615" y2="30.8031" gradientUnits="userSpaceOnUse">
<stop stop-color="#E3E0C0"/>
<stop offset="1" stop-color="#E3E0C0"/>
</linearGradient>
<linearGradient id="paint23_linear_329_802" x1="9.38624" y1="19.6915" x2="12.47" y2="22.7539" gradientUnits="userSpaceOnUse">
<stop stop-color="#F0A51D"/>
<stop offset="1" stop-color="#F0A51D" stop-opacity="0"/>
</linearGradient>
<radialGradient id="paint24_radial_329_802" cx="0" cy="0" r="1" gradientUnits="userSpaceOnUse" gradientTransform="translate(7.36549 26.5499) rotate(-35.464) scale(4.89517 6.44723)">
<stop stop-color="#F0A51D"/>
<stop offset="1" stop-color="#F0A51D" stop-opacity="0"/>
</radialGradient>
</defs>
</svg>
