<svg width="32" height="34" viewBox="0 0 32 34" fill="none" xmlns="http://www.w3.org/2000/svg">
<path d="M7.70583 6.96629C5.02114 8.60837 2.98149 11.0036 1.88884 13.7973C0.796177 16.591 0.708592 19.6348 1.63905 22.478C2.5695 25.3212 4.46853 27.8127 7.05501 29.5836C9.64149 31.3545 12.7779 32.3108 16 32.3108C19.2221 32.3108 22.3585 31.3545 24.945 29.5836C27.5315 27.8127 29.4305 25.3212 30.361 22.478C31.2914 19.6348 31.2038 16.591 30.1112 13.7973C29.0185 11.0036 26.9789 8.60837 24.2942 6.96629M16.0008 1.58984V13.8789V1.58984Z" fill="url(#paint0_linear_54_842)"/>
<path d="M7.70583 6.96629C5.02114 8.60837 2.98149 11.0036 1.88884 13.7973C0.796177 16.591 0.708592 19.6348 1.63905 22.478C2.5695 25.3212 4.46853 27.8127 7.05501 29.5836C9.64149 31.3545 12.7779 32.3108 16 32.3108C19.2221 32.3108 22.3585 31.3545 24.945 29.5836C27.5315 27.8127 29.4305 25.3212 30.361 22.478C31.2914 19.6348 31.2038 16.591 30.1112 13.7973C29.0185 11.0036 26.9789 8.60837 24.2942 6.96629M16.0008 1.58984V13.8789" stroke="url(#paint1_linear_54_842)" stroke-width="1.5" stroke-linecap="round" stroke-linejoin="round"/>
<defs>
<linearGradient id="paint0_linear_54_842" x1="16" y1="1.58984" x2="16" y2="32.3108" gradientUnits="userSpaceOnUse">
<stop stop-color="#E3E0C0"/>
<stop offset="0.5" stop-color="#E3E0C0"/>
<stop offset="1" stop-color="#FBEC6C"/>
</linearGradient>
<linearGradient id="paint1_linear_54_842" x1="16" y1="1.58984" x2="16" y2="32.3108" gradientUnits="userSpaceOnUse">
<stop stop-color="#6D3710"/>
<stop offset="0.5" stop-color="#6D3710"/>
<stop offset="1"/>
</linearGradient>
</defs>
</svg>
