<svg width="30" height="32" viewBox="0 0 30 32" fill="none" xmlns="http://www.w3.org/2000/svg">
<path d="M1.66778 29.5343L0.117837 28.8238C0.00708956 29.1449 -0.0264276 29.4944 0.020818 29.8355C0.0680635 30.1767 0.194322 30.4968 0.386283 30.7622C0.578245 31.0276 0.828798 31.2284 1.11153 31.3434C1.39427 31.4585 1.69871 31.4835 1.99276 31.4159L1.66778 29.5343ZM9.5108 27.7371L10.3008 26.0455L9.77246 25.7191L9.18581 25.8535L9.5108 27.7371ZM4.37434 21.6947L5.92428 22.4051L6.19593 21.6102L5.86928 20.8441L4.37434 21.6947ZM26.6668 16.0939C26.6668 22.3264 21.912 27.6142 15.7839 27.6142V31.4543C23.5186 31.4543 30 24.7072 30 16.0939H26.6668ZM4.90265 16.0939C4.90265 9.86135 9.65913 4.57351 15.7856 4.57351V0.733398C8.05086 0.733398 1.56778 7.48048 1.56778 16.0939H4.90265ZM15.7856 4.57351C21.912 4.57351 26.6668 9.86135 26.6668 16.0939H30C30 7.48048 23.5203 0.733398 15.7856 0.733398V4.57351ZM15.7839 27.6142C13.7756 27.6142 11.9057 27.0382 10.3008 26.0455L8.72083 29.4268C10.893 30.7683 13.3193 31.4652 15.7839 31.4543V27.6142ZM1.99276 31.4159L9.83579 29.6188L9.18581 25.8535L1.34279 27.6507L1.99276 31.4179V31.4159ZM5.86928 20.8441C5.2348 19.3671 4.90518 17.7418 4.90265 16.0939H1.56778C1.56778 18.3979 2.03776 20.583 2.87773 22.5453L5.86928 20.8441ZM2.82606 20.9843L0.117837 28.8258L3.21438 30.2428L5.92094 22.4032L2.8244 20.9843H2.82606Z" fill="url(#paint0_linear_54_836)"/>
<path d="M10.0006 18.0139C10.921 18.0139 11.6672 17.1543 11.6672 16.0939C11.6672 15.0335 10.921 14.1738 10.0006 14.1738C9.08015 14.1738 8.33398 15.0335 8.33398 16.0939C8.33398 17.1543 9.08015 18.0139 10.0006 18.0139Z" fill="url(#paint1_linear_54_836)"/>
<path d="M15.8336 18.0139C16.754 18.0139 17.5002 17.1543 17.5002 16.0939C17.5002 15.0335 16.754 14.1738 15.8336 14.1738C14.9132 14.1738 14.167 15.0335 14.167 16.0939C14.167 17.1543 14.9132 18.0139 15.8336 18.0139Z" fill="url(#paint2_linear_54_836)"/>
<path d="M21.6666 18.0139C22.587 18.0139 23.3332 17.1543 23.3332 16.0939C23.3332 15.0335 22.587 14.1738 21.6666 14.1738C20.7462 14.1738 20 15.0335 20 16.0939C20 17.1543 20.7462 18.0139 21.6666 18.0139Z" fill="url(#paint3_linear_54_836)"/>
<defs>
<linearGradient id="paint0_linear_54_836" x1="15" y1="0.733398" x2="15" y2="31.4545" gradientUnits="userSpaceOnUse">
<stop stop-color="#E3E0C0"/>
<stop offset="0.5" stop-color="#E3E0C0"/>
<stop offset="1" stop-color="#FBEC6C"/>
</linearGradient>
<linearGradient id="paint1_linear_54_836" x1="10.0006" y1="14.1738" x2="10.0006" y2="18.0139" gradientUnits="userSpaceOnUse">
<stop stop-color="#E3E0C0"/>
<stop offset="0.5" stop-color="#E3E0C0"/>
<stop offset="1" stop-color="#FBEC6C"/>
</linearGradient>
<linearGradient id="paint2_linear_54_836" x1="15.8336" y1="14.1738" x2="15.8336" y2="18.0139" gradientUnits="userSpaceOnUse">
<stop stop-color="#E3E0C0"/>
<stop offset="0.5" stop-color="#E3E0C0"/>
<stop offset="1" stop-color="#FBEC6C"/>
</linearGradient>
<linearGradient id="paint3_linear_54_836" x1="21.6666" y1="14.1738" x2="21.6666" y2="18.0139" gradientUnits="userSpaceOnUse">
<stop stop-color="#E3E0C0"/>
<stop offset="0.5" stop-color="#E3E0C0"/>
<stop offset="1" stop-color="#FBEC6C"/>
</linearGradient>
</defs>
</svg>
