<svg width="30" height="31" viewBox="0 0 30 31" fill="none" xmlns="http://www.w3.org/2000/svg">
<path fill-rule="evenodd" clip-rule="evenodd" d="M8.33333 6.82687C8.33333 5.01627 9.03571 3.27983 10.286 1.99954C11.5362 0.719258 13.2319 0 15 0C16.7681 0 18.4638 0.719258 19.714 1.99954C20.9643 3.27983 21.6667 5.01627 21.6667 6.82687C21.6667 8.63747 20.9643 10.3739 19.714 11.6542C18.4638 12.9345 16.7681 13.6537 15 13.6537C13.2319 13.6537 11.5362 12.9345 10.286 11.6542C9.03571 10.3739 8.33333 8.63747 8.33333 6.82687ZM8.33333 17.0672C6.1232 17.0672 4.00358 17.9663 2.44078 19.5666C0.877974 21.167 0 23.3375 0 25.6008C0 26.9587 0.526784 28.2611 1.46447 29.2213C2.40215 30.1815 3.67392 30.7209 5 30.7209H25C26.3261 30.7209 27.5979 30.1815 28.5355 29.2213C29.4732 28.2611 30 26.9587 30 25.6008C30 23.3375 29.122 21.167 27.5592 19.5666C25.9964 17.9663 23.8768 17.0672 21.6667 17.0672H8.33333Z" fill="url(#paint0_linear_54_835)"/>
<defs>
<linearGradient id="paint0_linear_54_835" x1="15" y1="0" x2="15" y2="30.7209" gradientUnits="userSpaceOnUse">
<stop stop-color="#E3E0C0"/>
<stop offset="0.5" stop-color="#E3E0C0"/>
<stop offset="1" stop-color="#FBEC6C"/>
</linearGradient>
</defs>
</svg>
