<svg width="30" height="32" viewBox="0 0 30 32" fill="none" xmlns="http://www.w3.org/2000/svg">
<path d="M11.916 1.43164H18.083C18.2085 1.43164 18.3109 1.50988 18.3486 1.61328L18.3613 1.65918L18.9297 5.7168L18.9697 6.00488L19.2412 6.1123C20.1575 6.47461 20.9506 6.97 21.7305 7.55273L21.9561 7.7207L22.2158 7.61719L26.0547 6.08105L26.0576 6.08008C26.1512 6.04192 26.2745 6.07201 26.3447 6.15527L26.3711 6.19434L26.377 6.20508L29.4609 11.5205L29.4629 11.5244C29.5299 11.6374 29.5031 11.7766 29.4004 11.8584L26.1504 14.3594L25.9375 14.5234L25.9561 14.791L26.0615 16.292L25.9561 17.793L25.9375 18.0605L26.1504 18.2246L29.4033 20.7285C29.4909 20.8003 29.5214 20.9143 29.4834 21.0166L29.4629 21.0596L29.4609 21.0645L26.377 26.3789L26.3711 26.3896C26.3175 26.4876 26.1999 26.5353 26.0996 26.5166L26.0576 26.5049L26.0547 26.5029L22.2158 24.9678L21.9561 24.8633L21.7305 25.0312C21.048 25.5412 20.3555 25.9846 19.5791 26.3301L19.2412 26.4717L18.9697 26.5791L18.9297 26.8672L18.3613 30.9248C18.3404 31.0502 18.2265 31.1523 18.083 31.1523H11.916C11.7906 31.1522 11.688 31.0742 11.6504 30.9707L11.6387 30.9248L11.0703 26.8672L11.0293 26.5791L10.7588 26.4717L10.4209 26.3301C9.64493 25.9846 8.9533 25.5406 8.27344 25.0195L8.04688 24.8457L7.78223 24.9531L3.95996 26.4971C3.84125 26.54 3.71684 26.4992 3.65234 26.4238L3.62891 26.3896L3.62305 26.3789L0.539062 21.0645L0.515625 21.0176C0.504783 20.9885 0.499821 20.9577 0.5 20.9268L0.503906 20.8809C0.512539 20.8352 0.533575 20.7925 0.564453 20.7578L0.598633 20.7266L0.599609 20.7256L3.85352 18.1758L4.0625 18.0117L4.04297 17.7461L3.9375 16.291L4.04395 14.791L4.0625 14.5234L3.84961 14.3594L0.59668 11.8564C0.560332 11.8275 0.532829 11.7895 0.516602 11.7471L0.503906 11.7031C0.495328 11.6575 0.499648 11.6105 0.515625 11.5674L0.536133 11.5254L0.539062 11.5205L3.62305 6.20508L3.62891 6.19434C3.68266 6.09653 3.80018 6.04853 3.90039 6.06738L3.94141 6.08008L3.94434 6.08105L7.78418 7.61719L8.04395 7.7207L8.26855 7.55273C9.04868 6.96981 9.84224 6.47468 10.7588 6.1123L11.0293 6.00488L11.0703 5.7168L11.6387 1.65918C11.6571 1.5495 11.7461 1.45777 11.8643 1.43652L11.916 1.43164ZM13.3486 3.93359L12.8262 7.60156C11.1326 8.02326 9.62584 8.92274 8.4707 10.1465L5.08398 8.69043L4.67578 8.51465L4.45312 8.89941L3.29688 10.8955L3.07227 11.2842L3.43457 11.5498L6.39648 13.7178C5.89484 15.3974 5.89488 17.1866 6.39648 18.8662L3.41895 21.0498L3.05664 21.3154L3.28125 21.7041L4.4375 23.7002L4.65918 24.084L5.06641 23.9102L8.4873 22.4512C9.63786 23.6596 11.1296 24.5571 12.8105 24.9678L13.333 28.6504L13.3936 29.0801H16.6055L16.667 28.6514L17.1885 24.9814C18.8686 24.5593 20.3602 23.6605 21.5117 22.4512L24.9326 23.9102L25.3398 24.084L25.5615 23.7002L26.7178 21.7041L26.9434 21.3145L26.5801 21.0488L23.6025 18.8799C24.1041 17.1956 24.1045 15.402 23.6025 13.7178L26.5654 11.5498L26.9277 11.2842L26.7031 10.8955L25.5469 8.89941L25.3242 8.51465L24.916 8.69043L21.5293 10.1465C20.3541 8.8998 18.8403 8.02046 17.1729 7.61523L16.6514 3.93359L16.5898 3.50391H13.4092L13.3486 3.93359ZM15 10.6475C16.5035 10.6475 17.9452 11.2431 19.0078 12.3018C20.0703 13.3604 20.667 14.7957 20.667 16.292C20.667 17.7882 20.0702 19.2236 19.0078 20.2822C17.9452 21.3409 16.5035 21.9365 15 21.9365C13.4964 21.9365 12.0548 21.3409 10.9922 20.2822C9.92966 19.2236 9.33301 17.7883 9.33301 16.292C9.33304 14.7957 9.92965 13.3604 10.9922 12.3018C12.0548 11.2431 13.4965 10.6475 15 10.6475ZM15 12.7197C14.1096 12.7197 13.2531 13.0505 12.5957 13.6436L12.4668 13.7656C11.7946 14.4354 11.416 15.3441 11.416 16.292C11.416 17.1807 11.7483 18.0353 12.3438 18.6904L12.4668 18.8184C13.139 19.488 14.0502 19.8643 15 19.8643C15.8904 19.8642 16.7469 19.5336 17.4043 18.9404L17.5332 18.8184C18.2053 18.1486 18.583 17.2399 18.583 16.292C18.583 15.4031 18.2509 14.5488 17.6553 13.8936L17.5332 13.7656C16.8611 13.096 15.9498 12.7198 15 12.7197Z" fill="black" stroke="url(#paint0_linear_54_848)"/>
<defs>
<linearGradient id="paint0_linear_54_848" x1="15" y1="0.931641" x2="15" y2="31.6526" gradientUnits="userSpaceOnUse">
<stop stop-color="#E3E0C0"/>
<stop offset="0.5" stop-color="#E3E0C0"/>
<stop offset="1" stop-color="#FBEC6C"/>
</linearGradient>
</defs>
</svg>
