<svg width="30" height="35" viewBox="0 0 30 35" fill="none" xmlns="http://www.w3.org/2000/svg">
<path d="M28.5 33V33.5H1.5V33H28.5ZM24.5527 17.25V26.5H24.3945V17.25H24.5527ZM15.0791 17.25V26.5H14.9209V17.25H15.0791ZM5.60547 17.25V26.5H5.44727V17.25H5.60547ZM28.5 10.25V10.75H1.5V10.25H28.5ZM28.5 9.61133V10.0869L23.9814 7.4541L15.7559 2.65918L15 2.21875L14.2441 2.65918L6.01855 7.4541L1.5 10.0869V9.61133L15 1.73633L28.5 9.61133Z" fill="url(#paint0_linear_910_886)"/>
<path d="M28.5 33V33.5H1.5V33H28.5ZM24.5527 17.25V26.5H24.3945V17.25H24.5527ZM15.0791 17.25V26.5H14.9209V17.25H15.0791ZM5.60547 17.25V26.5H5.44727V17.25H5.60547ZM28.5 10.25V10.75H1.5V10.25H28.5ZM28.5 9.61133V10.0869L23.9814 7.4541L15.7559 2.65918L15 2.21875L14.2441 2.65918L6.01855 7.4541L1.5 10.0869V9.61133L15 1.73633L28.5 9.61133Z" stroke="#E3E0C0" stroke-width="3"/>
<path d="M28.5 33V33.5H1.5V33H28.5ZM24.5527 17.25V26.5H24.3945V17.25H24.5527ZM15.0791 17.25V26.5H14.9209V17.25H15.0791ZM5.60547 17.25V26.5H5.44727V17.25H5.60547ZM28.5 10.25V10.75H1.5V10.25H28.5ZM28.5 9.61133V10.0869L23.9814 7.4541L15.7559 2.65918L15 2.21875L14.2441 2.65918L6.01855 7.4541L1.5 10.0869V9.61133L15 1.73633L28.5 9.61133Z" stroke="url(#paint1_linear_910_886)" stroke-opacity="0.2" stroke-width="3"/>
<defs>
<linearGradient id="paint0_linear_910_886" x1="15" y1="0" x2="15" y2="35" gradientUnits="userSpaceOnUse">
<stop stop-color="#E3E0C0"/>
<stop offset="0.5" stop-color="#E3E0C0"/>
<stop offset="1" stop-color="#FBEC6C"/>
</linearGradient>
<linearGradient id="paint1_linear_910_886" x1="15" y1="0" x2="15" y2="35" gradientUnits="userSpaceOnUse">
<stop stop-color="#E3E0C0" stop-opacity="0"/>
<stop offset="0.5" stop-color="#EFE696" stop-opacity="0.5"/>
<stop offset="1" stop-color="#FBEC6C"/>
</linearGradient>
</defs>
</svg>
