<svg width="30" height="32" viewBox="0 0 30 32" fill="none" xmlns="http://www.w3.org/2000/svg">
<path d="M17.4697 30.0801L17.46 30.1523H12.54L12.5303 30.0801H17.4697ZM8.2666 23.6318C9.29995 24.5753 10.5383 25.3091 11.9111 25.75L11.9268 25.8584L11.127 25.542L10.8281 25.417C10.1424 25.1117 9.51832 24.7134 8.88184 24.2256L8.20215 23.7041L7.40723 24.0254L6.22949 24.501L8.2666 23.6318ZM24.1797 24.6758L21.8066 23.7266L21.1328 24.2305C20.3957 24.7812 19.6803 25.2228 18.873 25.542L18.0742 25.8574L18.0879 25.7598C19.4593 25.3124 20.6976 24.5769 21.7324 23.6318L24.1797 24.6758ZM28.2715 21.1191L25.8262 25.334L25.7803 25.3164L26.4268 24.2021L27.584 22.2051L28.2305 21.0869L28.2715 21.1191ZM2.41602 22.2051L3.57227 24.2021L4.21582 25.3145L4.1709 25.333L1.72363 21.1143L1.76562 21.082L2.41602 22.2051ZM15 11.6475C16.2394 11.6475 17.427 12.1384 18.3018 13.0098C19.1763 13.8811 19.667 15.0621 19.667 16.292C19.667 17.5219 19.1764 18.7028 18.3018 19.5742C17.427 20.4457 16.2394 20.9365 15 20.9365C13.7606 20.9365 12.573 20.4456 11.6982 19.5742C10.8236 18.7028 10.333 17.5219 10.333 16.292C10.333 15.0621 10.8237 13.8811 11.6982 13.0098C12.573 12.1384 13.7606 11.6475 15 11.6475ZM15 11.7197C13.7862 11.7197 12.6207 12.2008 11.7607 13.0576C10.9007 13.9146 10.416 15.0778 10.416 16.292C10.416 17.5064 10.9006 18.6703 11.7607 19.5273C12.6207 20.3841 13.7862 20.8643 15 20.8643C16.2138 20.8642 17.3793 20.3841 18.2393 19.5273C19.0994 18.6703 19.583 17.5064 19.583 16.292C19.583 15.0778 19.0992 13.9146 18.2393 13.0576C17.3793 12.2008 16.2138 11.7198 15 11.7197ZM5.25879 14.124C4.94146 15.552 4.94149 17.032 5.25879 18.46L2.96875 20.1387L4.46973 18.9629L5.09863 18.4697L5.04102 17.6738L4.93945 16.2881L5.04102 14.8613L5.09766 14.0586L4.45996 13.5674L3.71484 12.9932L5.25879 14.124ZM25.54 13.5674L24.9023 14.0586L24.959 14.8613L25.0586 16.292L24.959 17.7227L24.9023 18.5264L25.54 19.0166L26.4609 19.7256L24.7393 18.4717C25.0566 17.0398 25.056 15.5568 24.7383 14.125L26.2852 12.9932L25.54 13.5674ZM4.2373 7.27441L3.58789 8.39746L2.43164 10.3945L1.78516 11.5088L1.72754 11.4648L4.17285 7.24805L4.2373 7.27441ZM28.2715 11.4639L28.2129 11.5088L27.5684 10.3945L26.4121 8.39746L25.7607 7.27441L25.8262 7.24902L28.2715 11.4639ZM17.46 2.43164L17.9395 5.85547L18.0605 6.7207L18.873 7.04199C19.6803 7.36114 20.3957 7.80372 21.1328 8.35449L21.8066 8.85742L22.5879 8.54492L24.5303 7.7666L24.5215 7.77148L21.75 8.96191C20.6941 7.99268 19.4384 7.26611 18.0713 6.83105L17.6416 3.79297L17.459 2.50391H12.542L12.3584 3.79199L11.9268 6.82129C10.544 7.26827 9.29182 8.00572 8.24902 8.96289L5.47852 7.77148L5.46777 7.7666L7.41211 8.54492L8.19336 8.85742L8.86719 8.35449C9.60427 7.80372 10.3197 7.36114 11.127 7.04199L11.9395 6.7207L12.0605 5.85547L12.54 2.43164H17.46Z" fill="#E3E0C0" stroke="url(#paint0_linear_910_887)" stroke-width="3"/>
<defs>
<linearGradient id="paint0_linear_910_887" x1="15" y1="0.931641" x2="15" y2="31.6526" gradientUnits="userSpaceOnUse">
<stop stop-color="#E3E0C0"/>
<stop offset="0.5" stop-color="#E3E0C0"/>
<stop offset="1" stop-color="#FBEC6C"/>
</linearGradient>
</defs>
</svg>
