<svg width="73" height="73" viewBox="0 0 73 73" fill="none" xmlns="http://www.w3.org/2000/svg">
<path d="M38.2357 44.9854C36.7817 46.2599 35.2368 47.3384 33.6011 48.2207C32.0108 49.1031 30.2387 49.5443 28.2849 49.5443C26.7854 49.5443 25.3996 49.2747 24.1273 48.7354C22.9005 48.2452 21.6964 47.608 20.5151 46.8237C19.3337 46.0394 18.1523 45.1815 16.9709 44.2501C15.7896 43.3678 14.54 42.5344 13.2223 41.7501C11.9046 40.9658 10.4734 40.304 8.92848 39.7648C7.42904 39.2746 5.74785 39.0295 3.88491 39.0295H0V3H5.38435V38.3678C7.61079 38.4658 9.76908 38.9315 11.8592 39.7648C13.9493 40.6472 16.0167 41.5786 18.0614 42.559C20.1516 43.5393 22.219 44.4217 24.2637 45.206C26.3538 45.9903 28.4894 46.3825 30.6704 46.3825C31.988 46.3825 33.2376 46.2599 34.419 46.0148C35.6003 45.8188 36.7817 45.4021 37.9631 44.7648L38.2357 44.9854Z" fill="#8A7E14"/>
<path d="M72.7866 71.7943C71.6506 71.9414 70.5147 72.0149 69.3787 72.0149C65.7437 72.0149 62.4495 71.1816 59.4961 69.5149C56.5881 67.8482 53.93 65.6668 51.5218 62.9707C49.1136 60.3237 46.8871 57.2845 44.8424 53.8531C42.8432 50.4217 40.9348 46.9413 39.1173 43.4119C37.2998 39.8334 35.505 36.3775 33.733 33.0442C31.9609 29.7108 30.1207 26.7697 28.2123 24.2206L28.1441 57.0148H27.667V23.5589C25.7132 21.0098 23.4641 18.902 20.9196 17.2353C18.3296 15.5686 15.4443 14.7353 12.2637 14.7353C10.1281 14.7353 7.94715 15.0049 5.72071 15.5441L5.51624 15.0294C8.06074 14.3431 10.5371 14 12.9453 14C16.2622 14 19.2838 14.5637 22.0101 15.6912C24.7818 16.7696 27.3035 18.2647 29.5754 20.1765C31.8927 22.0392 34.0056 24.2206 35.914 26.7206C37.8223 29.2206 39.5717 31.8677 41.162 34.6618C42.7978 37.456 44.2972 40.3236 45.6603 43.2648C47.0689 46.206 48.3866 49.0491 49.6134 51.7942V20.9118H50.1586V52.8972C51.1128 54.809 52.2033 56.8433 53.4301 59.0001C54.657 61.206 56.0428 63.2159 57.5877 65.0296C59.1326 66.8433 60.8592 68.3384 62.7676 69.5149C64.6759 70.7404 66.7661 71.3531 69.038 71.3531C69.6741 71.3531 70.2875 71.3286 70.8782 71.2796C71.4689 71.2796 72.0823 71.2306 72.7184 71.1325L72.7866 71.7943Z" fill="#A78F74"/>
<path d="M25.8301 23.3425L25.8812 23.3646C25.8403 23.5962 25.7278 23.8168 25.5745 23.9822C25.3802 24.1918 25.1042 24.3241 24.7975 24.3241C24.0512 24.3241 23.7036 23.7947 23.7036 23.144V19.2726H22.9982V19.2175H23.1924C23.4787 19.2175 23.7036 18.9638 23.7036 18.666V17.9932L24.3988 17.7285V18.1366C24.3988 18.6881 24.0307 19.0851 23.5196 19.2175H25.6256V19.2726H24.3988V23.166C24.3988 23.4638 24.4397 23.7065 24.5521 23.8719C24.6646 24.0484 24.8486 24.1477 25.1246 24.1477C25.4722 24.1477 25.7585 23.7506 25.8301 23.3425Z" fill="#A78F74"/>
<path d="M20.7959 24.3571C19.9167 24.3571 19.1908 23.9269 18.8739 23.5961L19.3237 23.2211C19.5691 23.8497 20.1723 24.3019 20.7959 24.3019C21.5729 24.3019 22.1659 23.7725 22.1659 23.2652C22.1659 22.7137 21.8285 22.5152 21.3378 22.3056L19.702 21.6108C19.1397 21.3681 18.8739 21.0262 18.8739 20.4968C18.8739 19.8461 19.5895 19.1953 20.7959 19.1953C21.4911 19.1953 22.125 19.3828 22.6464 19.7137L22.2374 20.1328C21.9512 19.5924 21.5729 19.2505 20.7959 19.2505C20.0394 19.2505 19.5282 19.6586 19.518 20.1769C19.518 20.6402 19.886 20.8497 20.295 21.0262L22.0636 21.7762C22.6361 22.0189 22.9224 22.3718 22.9224 22.9453C22.9224 23.4968 22.3805 24.3571 20.7959 24.3571Z" fill="#A78F74"/>
<path d="M16.0571 18.1953C16.992 18.1953 17.8195 18.556 18.4673 19.2549C19.0873 19.9239 19.4153 20.7459 19.4292 21.6729L19.4429 22.6475L19.6821 22.7773L18.8638 23.6602H18.8647C18.8629 23.6627 18.8598 23.6645 18.8579 23.667C18.7439 23.8392 18.608 24.0226 18.4448 24.2207C18.1942 24.5249 17.8857 24.7716 17.5562 24.9707L17.5552 24.9697C17.0932 25.2536 16.5743 25.3574 16.0679 25.3574C15.3992 25.3574 14.7571 25.1923 14.2007 24.7979C13.6897 24.4355 13.3129 23.961 13.0601 23.4004C12.8165 22.8602 12.6958 22.2891 12.6958 21.6875V21.6729C12.7097 20.7459 13.0377 19.9239 13.6577 19.2549C14.302 18.5598 15.1174 18.1954 16.0571 18.1953ZM15.6724 22.7607L15.7378 22.8662L15.7437 22.875L15.8091 22.9658C15.9446 23.1375 16.0619 23.1845 16.1675 23.2002C16.5038 23.1909 16.638 23.1038 16.6997 23.0439L16.7065 23.0371L16.7134 23.0312C16.8642 22.8903 16.971 22.7747 17.0444 22.6875H15.6353C15.6477 22.7125 15.6591 22.7373 15.6724 22.7607ZM16.0679 20.2393C16.0309 20.2393 15.9274 20.2321 15.7417 20.4971C15.7124 20.5389 15.685 20.5844 15.6587 20.6328H16.4761C16.4499 20.5845 16.4233 20.5388 16.394 20.4971C16.2115 20.2367 16.0989 20.2392 16.0679 20.2393Z" fill="#A78F74" stroke="#8A7E14" stroke-width="2"/>
<path d="M12.8444 24.1799V16.9336H12.8956V24.3233H12.1288L8.36658 17.077V24.3233H8.32568V16.9336H9.09244L12.8444 24.1799Z" fill="#A78F74"/>
<path d="M30.2418 5.96094C31.7958 5.96094 32.6341 6.82123 32.6341 8.33227V11.0896H31.9389V9.6558C31.7344 10.494 30.9472 11.1117 29.9249 11.1117C28.831 11.1117 27.9415 10.2735 27.9415 9.23668C27.9415 8.18889 28.831 7.35065 29.9249 7.35065C30.9881 7.35065 31.7344 7.9683 31.9389 8.80653V8.14477C31.9389 6.77712 31.2846 6.02711 30.3236 6.02711H30.2009C29.199 6.10432 28.9537 7.15212 28.9537 7.15212L28.4731 6.60065C29.107 5.96094 30.2418 5.96094 30.2418 5.96094ZM29.9249 10.9462C30.0169 10.9573 30.1089 10.9683 30.2111 10.9683C31.1108 10.9683 31.898 10.2183 31.9389 9.34698V9.20359C31.898 8.08962 30.9574 7.49403 30.1907 7.49403C30.1191 7.49403 30.0578 7.49403 29.9964 7.50506C29.199 7.62638 28.6572 8.22197 28.6572 9.23668C28.6572 10.2404 29.291 10.847 29.9249 10.9462Z" fill="#A78F74"/>
<path d="M24.4366 5.06152C24.6613 4.989 24.9047 4.94824 25.1652 4.94824C26.1517 4.94833 26.9921 5.30487 27.5411 6.06445C28.0459 6.763 28.1993 7.66263 28.1993 8.55078V12.0879H25.504V8.55078C25.504 7.94091 25.4159 7.51216 25.297 7.27344C25.244 7.16721 25.2025 7.13426 25.1935 7.12793C25.1894 7.12509 25.1854 7.12308 25.1788 7.12109C25.1725 7.11919 25.1564 7.11523 25.1271 7.11426C25.1143 7.11559 25.0972 7.11866 25.0792 7.12012C25.0721 7.12069 25.0642 7.11956 25.0558 7.12012C25.0079 7.12826 24.8742 7.17606 24.7228 7.41309C24.5651 7.65999 24.4367 8.05168 24.4366 8.55078V12.0879H21.7521V3.0127L22.3917 2.76562L23.0763 2.50098L24.4366 1.97461V5.06152Z" fill="#A78F74" stroke="#8A7E14" stroke-width="2"/>
<path d="M22.278 11.3429C22.5643 11.6296 22.6256 11.9826 22.6256 12.2362C22.6256 12.3024 22.6154 12.3576 22.6154 12.4017C22.554 12.8649 22.1962 13.1958 21.7362 13.3723C21.3375 13.5267 20.7343 13.637 19.8448 13.637C18.2193 13.637 17.3708 13.1186 17.2379 12.6002C17.2174 12.534 17.2174 12.4679 17.2174 12.4017C17.2174 12.1259 17.3708 11.8061 17.8104 11.6517L18.342 12.2031C18.1171 12.2252 17.7899 12.3906 17.7695 12.6554V12.6995C17.7695 13.1407 18.2398 13.4384 19.0372 13.5377C19.2825 13.5708 19.5484 13.5818 19.8448 13.5818C20.356 13.5818 20.4378 13.5818 20.7854 13.5377C20.9899 13.5157 21.6851 13.4274 21.9918 12.898C22.0531 12.7877 22.094 12.6443 22.094 12.5009C22.094 12.4679 22.094 12.4237 22.0838 12.3906C22.002 11.8833 21.3784 11.4862 19.8755 11.2656C18.5362 11.0561 17.5957 10.9348 17.4832 10.3392C17.473 10.3061 17.473 10.262 17.473 10.2289C17.473 10.0634 17.5343 9.88696 17.7593 9.69946C18.1068 9.4127 18.8532 9.26931 19.4972 9.20314C18.5056 9.07078 17.7593 8.39799 17.7593 7.59284C17.7593 6.68842 18.6896 5.96048 19.8448 5.96048C19.9573 5.96048 20.0595 5.96048 20.1618 5.97151C20.2231 5.98254 20.2947 5.99357 20.356 5.99357C20.3969 5.99357 20.4378 5.98254 20.4889 5.98254C20.8876 5.93842 21.409 5.77298 21.7975 5.26562L22.094 5.91636C22.094 5.91636 21.818 6.0818 21.0614 6.0818C20.9183 6.0818 20.7547 6.07077 20.5707 6.05974C21.3681 6.29136 21.9406 6.88695 21.9406 7.59284C21.9406 8.47519 21.0308 9.20314 19.896 9.2252C19.487 9.25828 18.9349 9.31343 18.4851 9.43476C18.3624 9.46784 18.0353 9.58917 18.0353 9.79873V9.82079C18.0353 10.0303 18.1989 10.1848 19.0167 10.3061C20.1924 10.4715 21.5726 10.648 22.278 11.3429ZM18.4749 7.59284C18.4749 8.46416 19.0883 9.17005 19.8448 9.17005H19.8653C20.6116 9.17005 21.225 8.46416 21.225 7.59284C21.225 6.72151 20.6116 6.01563 19.8448 6.01563C19.0883 6.01563 18.4749 6.72151 18.4749 7.59284Z" fill="#A78F74"/>
<path d="M12.5187 8.52827V6.24518L13.2036 5.98047V8.52827C13.2036 9.86283 13.5819 10.9768 14.6043 10.9768C14.6452 10.9768 14.6963 10.9658 14.7474 10.9658C15.6062 10.8775 16.2707 9.8518 16.2707 8.52827V6.24518L16.9659 5.98047V11.0871H16.2707V9.1018C16.1071 10.1937 15.4937 11.1423 14.5429 11.1423C13.081 11.1423 12.5187 10.1275 12.5187 8.52827Z" fill="#A78F74"/>
<path d="M9.02076 3.69922V11.0338H12.1491V11.0889H8.32556V3.69922H9.02076Z" fill="#A78F74"/>
<path d="M33.5671 40.7316C33.5505 40.6814 33.5399 40.5253 33.4828 40.3763C33.4695 40.3504 33.3789 40.1977 33.3933 40.2086C33.2486 40.0133 33.1654 39.9255 32.9978 39.7735C32.9257 39.7708 32.879 39.7636 32.778 39.5942C32.0798 39.0665 31.1582 38.2522 29.8415 38.2423C28.625 38.2331 27.0308 38.9742 25.9082 39.7779C24.8893 40.5075 24.9385 40.6291 24.9478 41.5349L25.7804 42.8646C26.0714 43.3291 26.3443 43.879 26.709 44.2585C26.9337 44.4921 27.4334 44.9819 29.4655 45.1674C29.7131 45.19 29.9356 45.1947 30.0789 45.1654C30.8305 45.0113 31.56 44.1796 31.7607 44.0577C32.7005 43.4869 33.4706 43.0368 33.572 41.2504C33.5835 41.0777 33.5819 40.9039 33.5671 40.7316Z" fill="#FBEC6C"/>
<path d="M33.6391 41.495C33.5406 41.3187 33.375 40.7715 33.2575 40.8539C33.2178 40.8237 33.1727 40.8068 33.1263 40.8047C33.1076 40.8047 33.0874 40.8139 33.0676 40.8197C32.8805 40.3501 32.5239 39.9877 32.0878 39.7919C32.0157 39.7595 31.9537 39.7663 31.9031 39.7971C31.8482 39.7462 31.7935 39.6948 31.7391 39.643C31.5998 39.5098 31.4644 39.8063 31.6017 39.9378C31.9091 40.2322 32.0555 40.2623 32.0701 40.7599C32.1311 42.8117 31.9393 44.183 29.6215 44.1052C28.969 44.0833 28.0662 43.4644 27.4031 42.7785C27.328 42.6431 27.2637 42.4987 27.211 42.3475C27.1525 42.174 26.951 42.1391 26.8337 42.2232C26.8191 42.2338 26.8112 42.2491 26.7992 42.2614C26.6411 42.1199 26.4709 42.0012 26.2916 41.9076C26.154 41.8355 25.9884 41.9854 25.9524 42.1494C25.9087 42.3489 26.0071 42.5033 26.145 42.5753C27.1819 43.1181 26.5514 43.8473 28.4092 44.4478C28.753 44.5588 28.6064 45.2262 28.2626 45.1152C27.3867 44.832 25.4884 43.1512 25.4884 43.1512C25.5118 43.184 25.7188 46.8844 29.4442 47.0658C29.5454 47.0706 32.7513 47.2947 33.5455 43.391C33.666 42.7977 34.0387 42.2109 33.6391 41.495Z" fill="#6D3710"/>
<path d="M30.328 39.5774C27.3948 39.4302 26.8499 41.0646 27.2789 41.7204C27.412 41.9236 27.5733 42.0452 27.7538 42.1634C28.0546 42.3601 27.812 42.9729 27.5115 42.7765C26.4529 42.0845 26.4183 40.9044 27.0325 40.1045C26.6578 40.3012 26.5373 39.6229 26.8355 39.4623C27.2509 39.2389 27.6812 39.0958 28.1187 39.005C27.9866 38.9732 27.753 38.9869 27.7304 38.6525C27.6879 38.0182 28.4023 38.398 28.899 38.5596C29.2485 38.2747 29.6415 38.2112 30.0518 38.2546C30.3475 38.2856 30.4 38.6849 30.2177 38.8823C30.7024 38.9042 30.6349 39.5931 30.328 39.5774Z" fill="#6D3710"/>
<path d="M27.121 44.1724C26.6159 42.9636 26.0807 42.9684 25.7402 42.3109C25.1156 41.1041 26.4479 40.7172 26.2131 39.6634C26.1177 39.2368 25.6156 39.4185 25.7112 39.8475C25.7841 40.1744 25.3312 40.3554 25.1228 41.2059C25.0292 41.5869 25.0414 42 25.1571 42.37C24.8574 42.4407 24.8979 42.9749 25.1322 43.037C25.3207 43.0869 25.4292 43.1371 25.5833 43.216C25.6515 43.2758 26.2661 43.5518 26.6718 44.5221C26.8321 44.905 27.2944 44.587 27.121 44.1724ZM33.7659 40.9576C33.6606 40.6697 33.4831 40.4378 33.2877 40.2403C33.2642 40.1131 33.2376 39.9869 33.208 39.8619C33.417 39.7823 33.4777 39.3127 33.2144 39.1969C32.9657 39.0876 32.6826 39.3349 32.6703 39.7608C32.2702 39.4382 31.846 39.172 31.4046 38.9663C31.092 38.8208 30.9184 39.4735 31.2535 39.6293C32.2105 40.0747 31.721 41.29 30.9015 41.9379C30.2632 42.3047 29.5745 42.3853 28.9611 42.1053C28.6826 41.9782 28.4726 42.6097 28.8503 42.7822C29.6868 43.1641 30.6976 42.8967 31.4717 42.316C31.91 41.9871 32.3195 41.0543 32.2379 40.3903C32.2249 40.2847 32.3131 40.213 32.3784 40.2711C32.6023 40.4695 32.8103 40.7486 32.8 40.8726C32.7462 41.5301 32.6938 41.8535 32.1779 42.3594C32.072 42.4632 32.0043 42.6623 32.0469 42.8447C32.0854 43.0094 32.2305 43.118 32.3479 43.034C32.5851 42.8642 32.8133 42.6415 32.9951 42.2904C33.1836 41.9355 33.2054 41.5803 33.2777 41.2131C33.3903 41.47 33.4236 41.8006 33.3252 42.1688C33.2764 42.3508 33.3726 42.5629 33.498 42.5892C33.9472 42.7057 33.9826 41.5495 33.7659 40.9576ZM30.6566 43.5265C30.5561 42.8393 29.5481 43.7687 28.6439 43.0135C28.3372 42.7573 28.0749 43.3554 28.348 43.5835C28.9857 44.1164 29.7355 44.0395 30.4512 43.9333C30.5909 43.9121 30.682 43.6993 30.6566 43.5265Z" fill="#6D3710"/>
<path d="M29.0212 38.6834C29.0255 38.6585 29.0253 38.6327 29.0206 38.6079L29.0198 38.6055C29.0187 38.6004 29.016 38.5963 29.0144 38.5915C29.0087 38.5716 29.0001 38.5532 28.9891 38.5372C28.9872 38.5348 28.9869 38.531 28.985 38.5287C27.9233 37.1955 27.168 37.5665 26.8054 37.7444C26.7559 37.7687 26.7143 37.7899 26.6797 37.8008C26.66 37.807 26.6415 37.8187 26.6259 37.835C26.6102 37.8513 26.5976 37.8719 26.5891 37.8951C26.5806 37.9184 26.5763 37.9437 26.5767 37.9693C26.577 37.9949 26.5819 38.0201 26.5911 38.043C26.5954 38.0535 26.9052 38.7992 27.7008 38.9734C27.6075 39.1708 27.527 39.4106 27.4607 39.6961C27.4514 39.7358 27.454 39.7783 27.4678 39.8158C27.4817 39.8533 27.5059 39.8832 27.536 39.9C27.6191 39.946 27.7048 39.969 27.7933 39.969C28.1774 39.969 28.6053 39.54 29.0038 38.7404C29.0095 38.7288 29.0116 38.7155 29.0149 38.7028C29.0163 38.6977 29.0198 38.6943 29.0206 38.6888C29.0217 38.6868 29.0209 38.6851 29.0212 38.6834Z" fill="#77B255"/>
<path d="M27.3206 38.9371C27.1579 38.8271 26.9738 38.7021 26.6732 38.5764C26.6558 38.5698 26.6396 38.5588 26.6257 38.5442C26.6117 38.5296 26.6002 38.5116 26.5918 38.4914C26.5835 38.4711 26.5785 38.4489 26.5771 38.4261C26.5757 38.4034 26.5779 38.3805 26.5837 38.3588C26.5894 38.3372 26.5986 38.3172 26.6106 38.3C26.6227 38.2829 26.6373 38.269 26.6537 38.2591C26.6701 38.2492 26.6879 38.2435 26.706 38.2424C26.7242 38.2413 26.7424 38.2448 26.7594 38.2526C27.0823 38.3879 27.2863 38.5255 27.4498 38.6365C27.5515 38.7055 27.6402 38.7646 27.7381 38.8117C27.7087 38.8216 27.6783 38.8264 27.6497 38.8411C27.5695 38.8822 27.4951 38.939 27.4291 39.0095C27.3928 38.9858 27.3566 38.9617 27.3206 38.9371ZM27.6614 39.8347C27.7626 39.4535 27.9873 39.2684 28.3482 39.2684C28.3843 39.2684 28.4189 39.2504 28.4444 39.2184C28.4699 39.1864 28.4842 39.1429 28.4842 39.0976C28.4842 39.0523 28.4699 39.0089 28.4444 38.9769C28.4189 38.9448 28.3843 38.9268 28.3482 38.9268C27.8687 38.9268 27.542 39.2035 27.403 39.7268C27.3916 39.7698 27.3943 39.8168 27.4105 39.8573C27.4266 39.8979 27.455 39.9287 27.4892 39.943C27.5235 39.9573 27.5609 39.9539 27.5932 39.9336C27.6255 39.9133 27.65 39.8777 27.6614 39.8347Z" fill="#5C913B"/>
<path d="M33.3466 43.8996C32.8671 43.0611 31.9235 41.7799 30.9927 42.6113C30.9709 42.632 30.954 42.6599 30.944 42.6919C30.895 42.6762 30.8431 42.6836 30.7982 42.7127C30.3184 43.0266 29.5989 43.2503 29.921 45.5914C29.9294 45.6536 29.9639 45.7072 30.0137 45.7359C30.0635 45.7646 30.1225 45.7649 30.1726 45.7366C31.0218 45.2536 31.2146 44.356 31.1986 43.6612C31.296 43.8402 31.4121 43.9936 31.5546 44.1083C32.0271 44.4878 32.6277 44.4086 32.9821 44.3102C33.0835 44.2829 33.1835 44.2475 33.2813 44.2043C33.3033 44.1933 33.3229 44.1758 33.3384 44.1534C33.354 44.1311 33.3651 44.1044 33.3708 44.0755C33.3772 44.0458 33.3784 44.0146 33.3742 43.9842C33.37 43.9539 33.3606 43.925 33.3466 43.8996Z" fill="#77B255"/>
<path d="M30.5209 45.0728C30.4851 45.0728 30.4507 45.0582 30.4253 45.0321C30.3998 45.0061 30.3853 44.9707 30.3849 44.9337C30.3787 44.2618 30.5378 43.9709 30.7402 43.6023C30.806 43.482 30.8775 43.3519 30.9501 43.1933C31.0029 43.0781 31.1226 43.0115 31.2436 43.0252C31.9105 43.1051 32.6389 43.5919 33.06 43.9846C33.0868 44.0096 33.1028 44.0446 33.1047 44.0818C33.1065 44.119 33.0939 44.1554 33.0698 44.1831C33.0456 44.2108 33.0118 44.2274 32.9758 44.2293C32.9398 44.2312 32.9045 44.2182 32.8778 44.1932C32.5628 43.8995 31.8575 43.3817 31.2123 43.3044C31.1199 43.4795 31.0456 43.6153 30.9768 43.7409C30.7878 44.0856 30.6512 44.3346 30.6569 44.9308C30.6571 44.9493 30.6538 44.9676 30.6471 44.9847C30.6404 45.0019 30.6306 45.0175 30.6181 45.0306C30.6056 45.0438 30.5907 45.0543 30.5742 45.0616C30.5578 45.0688 30.5402 45.0726 30.5223 45.0728H30.5209Z" fill="#5C913B"/>
<path fill-rule="evenodd" clip-rule="evenodd" d="M29.8312 38.9337C29.1272 38.9337 28.5565 39.6007 28.5565 40.4234C28.5564 40.6429 28.5978 40.8597 28.6777 41.0583L28.5592 41.7342C28.555 41.7584 28.5559 41.7833 28.562 41.8069C28.5681 41.8305 28.579 41.852 28.5939 41.8694C28.6088 41.8868 28.6272 41.8996 28.6474 41.9067C28.6676 41.9138 28.689 41.9149 28.7096 41.91L29.2879 41.7715C29.4528 41.8623 29.6372 41.913 29.8312 41.913C30.5351 41.913 31.1058 41.2462 31.1058 40.4233C31.1058 39.6007 30.5351 38.9336 29.8312 38.9336" fill="black"/>
</svg>
