<svg width="100" height="100" viewBox="0 0 100 100" fill="none" xmlns="http://www.w3.org/2000/svg">
<path d="M50 9.375C72.4518 9.375 90.625 27.5447 90.625 50C90.625 72.4518 72.4553 90.625 50 90.625C27.5482 90.625 9.375 72.4553 9.375 50C9.375 27.5482 27.5447 9.375 50 9.375ZM50 1.5625C23.2486 1.5625 1.5625 23.2486 1.5625 50C1.5625 76.7514 23.2486 98.4375 50 98.4375C76.7514 98.4375 98.4375 76.7514 98.4375 50C98.4375 23.2486 76.7514 1.5625 50 1.5625ZM50 12.5C29.2893 12.5 12.5 29.2893 12.5 50C12.5 70.7107 29.2893 87.5 50 87.5C70.7107 87.5 87.5 70.7107 87.5 50C87.5 29.2893 70.7107 12.5 50 12.5ZM50 21.0938C53.8832 21.0938 57.0312 24.2418 57.0312 28.125C57.0312 32.0082 53.8832 35.1562 50 35.1562C46.1168 35.1562 42.9688 32.0082 42.9688 28.125C42.9688 24.2418 46.1168 21.0938 50 21.0938ZM72.9963 40.2389C67.3885 41.5629 62.1543 42.7287 56.9533 43.3262C57.1195 63.0572 59.3568 67.3598 61.8434 73.7209C62.5498 75.5295 61.6564 77.5682 59.8479 78.2746C58.0393 78.9811 56.0004 78.0877 55.2939 76.2791C53.5938 71.9221 51.9568 68.3424 50.9461 60.9375H49.0543C48.0451 68.3303 46.4109 71.9156 44.7062 76.2791C44.0002 78.0867 41.9621 78.9814 40.1525 78.2746C38.3439 77.5682 37.4506 75.5293 38.157 73.7209C40.64 67.3652 42.8807 63.0684 43.0471 43.3262C37.8461 42.7289 32.6119 41.5631 27.0039 40.2389C25.3242 39.8422 24.284 38.1592 24.6807 36.4793C25.0773 34.7994 26.7602 33.7594 28.4402 34.1561C47.3242 38.6148 52.7143 38.6059 71.5604 34.1561C73.2398 33.7596 74.9232 34.7994 75.3199 36.4793C75.7162 38.1592 74.676 39.8424 72.9963 40.2389Z" fill="#E3E0C0"/>
</svg>
