<svg width="105" height="76" viewBox="0 0 105 76" fill="none" xmlns="http://www.w3.org/2000/svg">
<path d="M0 75.7956V62.5314C0 59.847 0.691633 57.3804 2.0749 55.1318C3.45817 52.8832 5.29305 51.1652 7.57955 49.9778C12.4747 47.5302 17.4487 45.6953 22.5018 44.4731C27.5548 43.2509 32.6868 42.6382 37.8977 42.6351C43.1087 42.6319 48.2406 43.2446 53.2937 44.4731C58.3467 45.7016 63.3208 47.5365 68.2159 49.9778C70.5056 51.1621 72.342 52.8801 73.7253 55.1318C75.1086 57.3836 75.7986 59.8501 75.7955 62.5314V75.7956H0ZM85.2699 75.7956V61.5839C85.2699 58.11 84.3035 54.7734 82.3707 51.5742C80.4379 48.375 77.6935 45.6321 74.1374 43.3456C78.1641 43.8194 81.9538 44.6294 85.5067 45.7758C89.0597 46.9222 92.3757 48.3229 95.4549 49.9778C98.2972 51.5568 100.468 53.3127 101.969 55.2455C103.469 57.1783 104.219 59.2911 104.219 61.5839V75.7956H85.2699ZM37.8977 37.8979C32.6868 37.8979 28.2259 36.0424 24.5151 32.3316C20.8043 28.6208 18.9489 24.1599 18.9489 18.949C18.9489 13.738 20.8043 9.27717 24.5151 5.56635C28.2259 1.85553 32.6868 0.000121465 37.8977 0.000121465C43.1087 0.000121465 47.5695 1.85553 51.2804 5.56635C54.9912 9.27717 56.8466 13.738 56.8466 18.949C56.8466 24.1599 54.9912 28.6208 51.2804 32.3316C47.5695 36.0424 43.1087 37.8979 37.8977 37.8979ZM85.2699 18.949C85.2699 24.1599 83.4145 28.6208 79.7037 32.3316C75.9928 36.0424 71.532 37.8979 66.321 37.8979C65.4525 37.8979 64.3472 37.7999 63.005 37.6041C61.6628 37.4083 60.5574 37.1904 59.6889 36.9504C61.8207 34.4239 63.4597 31.621 64.6061 28.5418C65.7526 25.4627 66.3242 22.265 66.321 18.949C66.3179 15.6329 65.7462 12.4353 64.6061 9.35612C63.4661 6.27693 61.827 3.47408 59.6889 0.947564C60.7943 0.552796 61.8996 0.295409 63.005 0.175399C64.1103 0.0553898 65.2157 -0.00303668 66.321 0.000121465C71.532 0.000121465 75.9928 1.85553 79.7037 5.56635C83.4145 9.27717 85.2699 13.738 85.2699 18.949Z" fill="#A78F74"/>
</svg>
