<svg width="1280" height="1091" viewBox="0 0 1280 1091" fill="none" xmlns="http://www.w3.org/2000/svg">
<path opacity="0.37" d="M111.238 887.875C114.03 893.644 117.115 899.412 120.495 904.935C170.75 987.29 272.73 1039.21 381.47 1048.53C468.461 1055.9 553.102 1032.21 625.839 993.55C698.43 955.011 756.621 900.762 837.293 872.533C951.029 832.89 1077.84 801.593 1167.04 717.643C1268.43 622.278 1307.52 477.697 1259.76 355.699C1213.33 236.646 1059.18 198.107 939.42 145.7C724.146 51.317 425.994 -11.4003 201.903 99.4289C-66.566 232.105 -17.7803 533.295 67.301 742.312C86.6977 789.933 89.0489 841.236 111.238 887.875Z" fill="#CCE9FF"/>
<path d="M248.19 323.542L247.75 321.21H244.958C190.588 321.21 172.955 306.605 172.808 306.482L170.457 304.273L168.105 306.482C167.958 306.605 150.472 321.21 95.9553 321.21H93.1634L92.7225 323.542C92.5756 324.279 81.1139 397.428 168.987 434.985L170.457 435.599L171.926 434.985C260.093 397.428 248.19 324.279 248.19 323.542ZM234.965 368.831C224.091 395.096 202.344 415.47 170.31 429.462C138.276 415.47 116.528 395.096 105.654 368.831C97.7187 349.562 98.1595 332.747 98.7473 326.733C144.006 326.242 164.138 316.178 170.31 312.005C176.481 316.055 196.613 326.242 241.872 326.733C242.46 332.87 242.9 349.562 234.965 368.831ZM334.447 229.528L331.361 222.777C328.569 222.532 325.924 221.918 323.279 221.182L316.961 226.091L298.74 215.168L302.266 208.54C300.503 206.699 299.033 204.735 297.858 202.649L289.188 202.403L285.515 183.87L293.597 181.293C293.89 178.961 294.625 176.752 295.507 174.542L289.629 169.265L302.707 153.923L310.642 156.869C312.846 155.396 315.197 154.169 317.696 153.187L317.989 145.945L340.178 142.877L343.264 149.627C346.056 149.873 348.701 150.486 351.346 151.223L357.665 146.314L375.886 157.237L372.359 163.865C374.122 165.706 375.592 167.669 376.767 169.756L385.437 170.001L389.111 188.534L381.029 191.112C380.588 193.444 380 195.653 379.119 197.862L384.996 203.14L371.918 218.481L363.983 215.536C361.779 217.009 359.428 218.236 356.93 219.218L356.636 226.459L334.447 229.528ZM321.81 215.29L323.573 215.904C326.806 217.009 330.333 217.622 333.859 217.868L335.77 217.99L338.415 223.759L350.611 222.041L350.905 215.904L352.668 215.29C355.901 214.063 358.84 212.467 361.632 210.626L363.102 209.645L369.861 212.222L377.061 203.876L371.918 199.335L372.653 197.862C373.975 195.162 374.71 192.216 375.004 189.271L375.151 187.675L382.058 185.466L380 175.279L372.653 175.033L371.918 173.561C370.449 170.86 368.539 168.406 366.334 166.074L365.159 164.846L368.245 159.201L358.252 153.187L352.815 157.36L351.052 156.746C347.819 155.641 344.293 155.028 340.766 154.782L338.856 154.659L336.211 148.891L324.014 150.609L323.72 156.746L321.957 157.36C318.724 158.587 315.785 160.183 312.993 162.024L311.524 163.005L304.764 160.428L297.564 168.774L302.707 173.315L301.972 174.788C300.65 177.488 299.915 180.434 299.621 183.379L299.474 184.975L292.568 187.184L294.625 197.371L301.972 197.617L302.707 199.089C304.177 201.79 306.087 204.244 308.291 206.576L309.467 207.804L306.381 213.449L316.373 219.463L321.81 215.29ZM337.092 206.699C332.096 206.699 327.1 205.349 322.986 202.894C311.965 196.389 309.467 183.625 317.255 174.42C325.043 165.215 340.325 163.128 351.346 169.633C356.636 172.824 360.163 177.488 361.338 182.888C362.367 188.289 360.897 193.689 357.224 198.107C353.403 202.526 347.819 205.472 341.354 206.453C339.737 206.576 338.415 206.699 337.092 206.699ZM337.092 170.983C331.361 170.983 325.777 173.192 322.251 177.365C319.459 180.679 318.283 184.729 319.165 188.78C320.047 192.83 322.545 196.266 326.512 198.598C330.48 200.93 335.329 201.912 340.178 201.176C345.027 200.439 349.142 198.353 351.934 195.039C354.726 191.725 355.901 187.675 355.02 183.625C354.138 179.575 351.64 176.138 347.672 173.806C344.44 171.965 340.766 170.983 337.092 170.983ZM1038.9 429.585L1032 414.488C1024.65 413.752 1017.3 412.402 1010.39 410.315L996.288 421.362L958.082 398.656L966.017 383.927C961.462 379.141 957.495 373.863 954.262 368.217L935.012 367.727L927.224 329.065L945.298 323.297C946.18 317.16 947.796 311.023 950.294 305.255L937.069 293.472L964.254 261.561L981.888 268.189C987.618 264.384 993.937 261.07 1000.7 258.37L1001.28 242.292L1047.57 235.787L1054.48 250.883C1061.83 251.62 1069.17 252.97 1076.08 255.056L1090.19 244.01L1128.39 266.716L1120.46 281.444C1125.01 286.231 1128.98 291.508 1132.21 297.154L1151.46 297.645L1159.25 336.306L1141.18 342.075C1140.29 348.212 1138.68 354.348 1136.18 360.117L1149.4 371.899L1122.22 403.81L1104.59 397.183C1098.86 400.988 1092.54 404.301 1085.78 407.002L1085.19 423.08L1038.9 429.585ZM1008.34 402.46L1010.69 403.197C1018.48 405.651 1026.71 407.247 1035.08 407.861L1037.73 408.106L1044.05 421.852L1076.96 417.189L1077.55 402.46L1079.9 401.601C1087.54 398.778 1094.74 394.974 1101.21 390.432L1103.12 389.082L1119.28 395.096L1138.68 372.39L1126.63 361.59L1127.51 359.626C1130.45 353.121 1132.36 346.248 1133.09 339.252L1133.24 337.043L1149.7 331.765L1144.11 304.273L1126.48 303.782L1125.45 301.818C1122.07 295.436 1117.52 289.422 1112.08 284.022L1110.46 282.426L1117.66 268.925L1090.48 252.724L1077.55 262.789L1075.2 262.052C1067.41 259.597 1059.18 258.002 1050.8 257.388L1048.16 257.265L1041.84 243.519L1008.93 248.183L1008.34 262.911L1005.99 263.77C998.345 266.593 991.145 270.398 984.679 274.939L982.769 276.289L966.605 270.275L947.502 292.981L959.552 303.782L958.67 305.746C955.731 312.251 953.821 319.124 953.086 326.12L952.939 328.329L936.481 333.606L942.065 361.099L959.699 361.59L960.727 363.554C964.107 369.936 968.662 375.95 974.099 381.35L975.716 382.946L968.515 396.446L995.7 412.647L1008.34 402.46ZM1043.02 377.177C1032.29 377.177 1021.56 374.477 1012.16 368.954C988.206 354.717 982.622 326.856 999.668 306.85C1016.71 286.844 1050.07 282.181 1074.02 296.418C1097.97 310.655 1103.56 338.516 1086.51 358.521C1076.08 370.672 1059.62 377.177 1043.02 377.177ZM1043.16 295.068C1029.06 295.068 1015.1 300.591 1006.43 310.9C999.374 319.124 996.729 329.065 998.639 339.007C1000.7 348.948 1007.16 357.54 1017.01 363.431C1037.29 375.459 1065.5 371.531 1079.9 354.594C1086.81 346.371 1089.6 336.429 1087.69 326.488C1085.63 316.546 1079.17 307.955 1069.32 302.064C1061.24 297.277 1052.13 295.068 1043.16 295.068ZM323.426 705.737C316.373 689.168 308.291 670.512 317.255 651.366C329.304 625.592 303.736 612.336 281.253 600.431C261.856 590.367 243.635 580.794 249.807 564.961C256.566 547.778 256.125 534.523 248.484 525.809C242.019 518.444 230.557 514.517 215.275 514.64C203.078 514.762 192.204 502.244 180.596 489.111C166.93 473.646 152.97 457.691 135.337 461.25C132.251 461.864 129.753 463.337 128.283 465.669C122.112 475.365 131.81 498.439 142.243 522.986C153.411 549.496 166.195 579.443 157.819 592.208C148.709 606.2 165.166 618.964 182.653 632.588C201.168 646.947 222.181 663.271 216.597 683.768C211.307 702.914 210.132 710.033 213.364 714.206C215.863 717.52 221.006 718.256 228.794 719.484C234.084 720.343 240.843 721.325 249.072 723.534C284.486 732.739 294.772 751.885 294.919 752.131L295.36 752.99L296.388 752.867C313.434 750.658 323.426 746.608 328.129 740.103C328.423 739.735 328.569 739.367 328.863 738.998C333.859 730.284 329.01 718.87 323.426 705.737Z" fill="#FFBE55"/>
<path d="M232.909 669.162C238.786 676.772 243.048 683.4 242.607 692.727C242.313 701.441 240.697 710.033 239.815 718.624C239.668 720.465 239.521 722.184 239.374 723.902C236.435 721.815 233.643 719.729 230.704 717.642C229.382 717.52 228.059 717.52 226.59 717.52C230.704 720.343 234.966 723.411 239.08 726.479C238.639 732.493 238.493 738.507 238.493 744.521C238.493 748.081 238.346 751.885 238.639 755.445C234.819 753.481 230.851 751.517 227.178 749.553C215.716 743.662 204.989 738.139 196.76 735.193C190.441 732.984 183.388 731.021 176.629 729.179C158.995 724.393 140.921 719.483 134.896 709.051C131.81 703.651 132.104 697.146 135.778 689.291C145.035 669.04 136.366 665.603 121.818 659.712C111.238 655.416 96.8374 649.648 82.4368 635.042C76.1182 628.66 70.5342 623.137 65.5381 618.35C50.6966 603.745 42.4677 595.767 43.4963 591.103C43.7902 589.999 44.5249 589.017 45.9944 588.035C46.7291 587.544 47.6108 587.053 48.7863 586.562C54.3703 583.985 59.9542 585.948 66.2728 588.158C74.7957 591.103 85.2288 594.908 99.7763 588.649C111.238 583.739 124.022 579.198 131.663 582.88C136.953 585.335 140.039 591.717 141.068 602.149C141.362 605.463 142.684 607.795 144.888 609.145C148.121 611.109 153.117 610.863 158.848 609.882C162.816 614.423 167.959 616.632 174.131 618.473C182.8 621.05 189.266 623.382 195.585 629.274C209.104 642.038 222.182 655.048 232.909 669.162Z" fill="#6D3710"/>
<path d="M186.033 689.413C177.217 684.504 169.575 672.599 162.228 661.061C152.236 645.351 141.803 629.15 127.549 629.519C104.626 630.01 84.2003 607.426 83.9064 607.304L81.9961 608.531C82.8778 609.513 103.45 632.096 127.549 631.605C140.333 631.36 150.473 646.947 160.024 662.166C167.518 673.826 175.306 685.977 184.564 691.254C190.148 694.322 200.434 700.582 212.63 708.56V705.982C201.903 698.495 192.352 692.85 186.033 689.413Z" fill="white"/>
<path d="M960.434 841.48C960.434 841.48 973.659 813.988 949.56 774.958C925.314 735.929 905.77 741.943 964.107 711.873C1022.44 681.803 964.401 587.297 1014.07 575.269C1063.74 563.241 1106.79 410.191 1144.56 429.706C1182.32 449.221 1131.92 524.212 1158.96 546.795C1185.85 569.378 1189.52 597.975 1133.83 621.172C1078.14 644.369 1173.36 732.983 1097.83 759.985C1022.3 786.986 1044.05 892.906 960.434 841.48Z" fill="#FFBE55"/>
<path d="M983.505 870.568C983.358 870.2 975.276 835.098 1000.99 789.686C1027.15 743.415 1039.64 692.848 1034.49 654.31C1031.7 633.445 1047.72 625.344 1063.15 617.489C1078.43 609.757 1094.15 601.656 1093.27 581.16C1092.54 562.627 1101.94 519.179 1102.24 517.338L1105.62 517.829C1105.47 518.32 1095.92 562.872 1096.65 581.037C1097.53 603.252 1080.93 611.721 1064.91 619.821C1049.63 627.553 1035.38 634.918 1037.87 653.941C1043.16 692.848 1030.53 744.028 1004.08 790.79C978.949 835.343 986.737 869.586 986.884 869.954L983.505 870.568Z" fill="white"/>
<path d="M1184.08 642.529C1205.1 634.183 1227.43 637.988 1215.82 655.539C1204.22 673.09 1186.88 674.44 1190.11 688.309C1193.34 702.178 1201.86 717.274 1174.53 726.111C1147.2 734.825 1134.42 733.352 1117.81 759.004C1101.06 784.655 1095.33 803.679 1066.67 797.543C1038.02 791.283 1061.83 759.74 1076.67 746.485C1076.67 746.485 1096.8 732.248 1096.5 706.596C1096.21 680.945 1083.57 663.762 1123.25 665.48C1162.92 666.953 1169.83 648.175 1184.08 642.529Z" fill="#6D3710"/>
<path d="M1062.12 815.461C1063.3 812.148 1090.92 732.738 1113.55 724.147C1136.62 715.31 1149.11 692.236 1154.55 679.349C1161.6 662.534 1191.73 659.22 1192.9 659.098L1193.34 661.921C1193.05 661.921 1164.1 665.112 1157.78 680.208C1151.02 696.532 1138.09 717.888 1115.02 726.724C1093.86 734.825 1065.79 815.461 1065.5 816.321L1062.12 815.461ZM334.301 751.517C289.042 742.066 288.454 721.692 287.866 702.055C287.425 685.977 286.984 670.757 262.444 661.43C229.97 649.033 229.235 626.082 228.5 605.831C227.912 590.735 227.472 576.497 213.953 568.765C181.478 550.232 153.999 505.311 153.705 504.82L156.203 503.716C156.497 504.207 183.535 548.514 215.569 566.801C230.263 575.147 230.851 589.998 231.292 605.708C232.027 626.205 232.762 647.561 263.62 659.22C289.629 669.162 290.217 685.854 290.658 701.932C291.246 721.57 291.834 740.225 335.035 749.185L334.301 751.517Z" fill="white"/>
<path d="M273.318 733.353H1016.71V285.127C1016.71 278.744 1010.54 273.467 1002.75 273.467H287.278C279.637 273.467 273.318 278.622 273.318 285.127V733.353Z" fill="#F7F7F7"/>
<path d="M989.044 649.787L299.577 649.787V295.944L989.044 295.944V649.787Z" fill="#6D3710" stroke="white" stroke-width="0.5" stroke-miterlimit="10"/>
<path d="M1016.71 666.952H273.612L192.205 920.89H1097.97L1016.71 666.952Z" fill="#F2F2F2"/>
<path d="M301.679 711.504H347.379C349.289 711.504 350.759 712.731 350.318 714.081L345.909 730.651C345.616 731.633 344.44 732.369 342.97 732.369H296.536C294.626 732.369 293.156 731.142 293.597 729.669L298.74 713.1C299.034 712.24 300.209 711.504 301.679 711.504ZM368.245 711.504H402.777L398.222 732.492H362.955L368.245 711.504ZM419.97 711.504H454.502L450.975 732.492H415.708L419.97 711.504ZM471.841 711.504H506.373L503.728 732.492H468.462L471.841 711.504ZM523.566 711.504H558.098L556.482 732.492H521.215L523.566 711.504ZM575.291 711.504H609.823L609.235 732.492H573.968L575.291 711.504ZM989.676 711.504H937.804L943.388 732.492H996.142L989.676 711.504ZM920.612 711.504H886.08L890.635 732.492H925.902L920.612 711.504ZM868.887 711.504H834.355L837.882 732.492H873.149L868.887 711.504ZM817.016 711.504H782.483L785.128 732.492H820.395L817.016 711.504ZM765.291 711.504H730.759L732.375 732.492H767.642L765.291 711.504ZM713.566 711.504H679.034L679.622 732.492H714.889L713.566 711.504ZM627.162 711.504H661.695L662.135 732.492H627.162V711.504ZM286.544 748.079H358.547L354.432 769.68H280.96L286.544 748.079ZM1000.84 748.079H911.795L916.791 769.68H1007.75L1000.84 748.079ZM893.868 748.079H858.307L862.275 769.68H898.717L893.868 748.079ZM840.38 748.079H804.819L807.758 769.68H844.2L840.38 748.079ZM786.892 748.079H751.331L753.388 769.68H789.684L786.892 748.079ZM733.404 748.079H697.843L698.872 769.68H735.167L733.404 748.079ZM275.67 786.495H349.436L343.999 807.973H268.91L275.67 786.495ZM367.804 786.495H404.687L400.426 807.973H362.808L367.804 786.495ZM423.203 786.495H699.606L700.635 807.973H419.088L423.203 786.495ZM718.121 786.495H755.005L757.062 807.973H719.444L718.121 786.495ZM773.373 786.495H810.256L813.342 807.973H775.724L773.373 786.495ZM828.771 786.495H865.654L869.622 807.973H832.151L828.771 786.495ZM884.022 786.495H920.906L925.902 807.973H888.431L884.022 786.495ZM939.274 786.495H1013.04L1019.8 807.973H944.711L939.274 786.495ZM680.063 748.079H644.649V769.68H680.65L680.063 748.079ZM626.575 748.079H590.867L589.838 769.68H626.281L626.575 748.079ZM573.087 748.079H537.379L535.322 769.68H571.764L573.087 748.079ZM519.599 748.079H483.891L480.805 769.68H517.247L519.599 748.079ZM466.111 748.079H430.403L426.288 769.68H462.731L466.111 748.079ZM412.622 748.079H376.915L371.919 769.68H408.214L412.622 748.079ZM303.295 698.371L309.173 679.716H325.925L320.488 698.371H303.295ZM342.677 679.716H376.18L371.625 698.371H337.387L342.677 679.716ZM393.079 679.716H426.582L422.762 698.371H388.67L393.079 679.716ZM443.334 679.716H476.838L473.899 698.371H439.807L443.334 679.716ZM493.589 679.716H527.093L525.036 698.371H490.944L493.589 679.716ZM543.844 679.716H577.348L576.172 698.371H542.081L543.844 679.716ZM594.1 679.716H627.603L627.309 698.371H593.218L594.1 679.716ZM644.355 679.716H677.858L678.446 698.371H644.355V679.716ZM694.61 679.716H728.114L729.583 698.371H695.492L694.61 679.716ZM744.865 679.716H778.516L780.72 698.371H746.629L744.865 679.716ZM795.268 679.716H828.771L832.004 698.371H797.913L795.268 679.716ZM845.523 679.716H879.026L883.141 698.371H849.05L845.523 679.716ZM895.778 679.716H929.282L934.278 698.371H900.186L895.778 679.716ZM946.033 679.716H979.537L985.415 698.371H951.323L946.033 679.716Z" fill="#6D3710" stroke="white" stroke-width="0.5" stroke-miterlimit="10"/>
<path d="M1074.32 940.649H215.863C202.785 940.649 192.205 931.812 192.205 920.888H1097.97C1097.97 931.812 1087.39 940.649 1074.32 940.649ZM750.449 838.779C749.568 834.361 744.865 831.047 739.575 831.047H550.751C545.314 831.047 540.758 834.361 539.877 838.779L528.121 898.305C526.946 903.951 532.236 909.106 538.995 909.106H751.184C758.09 909.106 763.233 903.951 762.058 898.305L750.449 838.779Z" fill="#D3D3D3"/>
<path d="M346.056 325.995H422.908V332.623H346.056V325.995ZM444.509 375.457H499.908V382.085H444.509V375.457ZM508.577 375.457H545.314V382.085H508.577V375.457ZM346.938 499.91H383.674V506.538H346.938V499.91ZM552.661 375.457H641.563V382.085H552.661V375.457ZM346.938 474.995H404.099V481.622H346.938V474.995ZM426.582 524.58H461.408V531.207H426.582V524.58ZM346.938 524.58H416.002V531.207H346.938V524.58ZM346.938 549.372H384.997V556H346.938V549.372ZM437.897 325.995H492.413V332.623H437.897V325.995ZM437.897 400.249H492.413V406.877H437.897V400.249ZM410.565 424.919H433.929V431.547H410.565V424.919ZM387.348 450.08H439.66V456.707H387.348V450.08ZM447.595 450.08H519.892V456.707H447.595V450.08ZM346.938 425.165H401.454V431.792H346.938V425.165ZM346.938 450.08H379.266V456.707H346.938V450.08ZM444.95 425.165H475.515V431.792H444.95V425.165ZM347.966 574.042H378.531V580.669H347.966V574.042ZM346.791 375.457H401.307V382.085H346.791V375.457ZM394.989 499.91H449.506V506.538H394.989V499.91ZM395.724 549.372H450.24V556H395.724V549.372ZM492.56 549.372H547.077V556H492.56V549.372ZM346.791 400.249H424.525V406.877H346.791V400.249ZM711.068 325.995H765.585V332.623H711.068V325.995ZM516.806 574.042H571.323V580.669H516.806V574.042ZM782.483 325.995H818.926V332.623H782.483V325.995ZM906.064 350.787H942.506V357.415H906.064V350.787ZM507.108 325.995H576.613V332.623H507.108V325.995ZM777.781 350.787H847.286V357.415H777.781V350.787ZM692.553 375.457H762.058V382.085H692.553V375.457ZM602.181 400.249H671.687V406.877H602.181V400.249ZM770.728 375.457H820.101V382.085H770.728V375.457ZM627.897 325.995H697.402V332.623H627.897V325.995ZM548.693 400.249H589.397V406.877H548.693V400.249ZM516.806 500.278H557.51V506.906H516.806V500.278ZM589.397 325.995H614.819V332.623H589.397V325.995ZM507.108 400.249H532.53V406.877H507.108V400.249ZM864.038 350.787H889.459V357.415H864.038V350.787ZM346.056 350.787H385.878V357.415H346.056V350.787ZM452.297 475.118H483.744V481.745H452.297V475.118ZM395.724 350.787H408.508V357.415H395.724V350.787ZM659.343 350.787H765.585V357.415H659.343V350.787ZM557.51 549.372H663.752V556H557.51V549.372ZM417.912 350.787H430.99V357.415H417.912V350.787ZM614.819 350.787H649.498V357.415H614.819V350.787ZM649.645 375.457H684.324V382.085H649.645V375.457ZM470.96 574.042H505.639V580.669H470.96V574.042ZM531.795 350.787H605.708V357.415H531.795V350.787ZM462.878 500.278H506.079V506.906H462.878V500.278ZM460.232 549.372H481.833V556H460.232V549.372ZM495.793 350.787H521.215V357.415H495.793V350.787ZM410.271 375.457H435.693V382.085H410.271V375.457ZM415.267 475.118H440.689V481.745H415.267V475.118ZM441.864 350.787H486.242V357.415H441.864V350.787Z" fill="#F7F7F7"/>
<path d="M813.93 400.496C813.93 400.496 826.861 418.784 832.298 421.729C839.645 425.779 835.09 429.83 831.563 429.952C828.036 429.952 810.109 431.057 806.142 427.252C802.174 423.447 800.264 412.279 796.59 409.333C792.917 406.387 789.096 394.728 798.354 391.905C806.436 389.327 813.93 400.496 813.93 400.496Z" fill="#FFB750"/>
<path d="M808.199 392.518C808.199 392.518 823.04 413.997 825.538 417.065C828.036 420.256 820.689 420.256 816.134 418.783C811.578 417.311 800.117 401.969 798.5 399.146C796.59 395.832 798.207 392.027 798.207 392.027L808.199 392.518Z" fill="#FFE3CA"/>
<path d="M793.21 403.932L796.737 425.902L798.5 426.025L797.913 410.192L793.21 403.932ZM685.646 400.496C685.646 400.496 698.578 418.783 704.015 421.729C711.362 425.779 706.807 429.829 703.28 429.952C699.753 429.952 681.826 431.057 677.858 427.252C673.891 423.447 671.981 412.278 668.307 409.333C664.633 406.387 660.666 394.359 670.07 391.904C678.299 389.695 685.646 400.496 685.646 400.496Z" fill="#FFB750"/>
<path d="M680.797 392.518C680.797 392.518 694.757 413.874 697.402 417.065C699.9 420.256 692.552 420.256 687.997 418.783C683.442 417.311 671.98 401.969 670.364 399.146C668.453 395.832 670.07 392.027 670.07 392.027L680.797 392.518Z" fill="#FFE3CA"/>
<path d="M665.074 403.933L668.454 425.902L670.364 426.025L669.776 410.192L665.074 403.933Z" fill="#FFB750"/>
<path d="M628.337 233.944L745.306 278.497C745.306 278.497 758.384 282.056 759.853 294.207C764.409 332.009 798.206 391.904 798.206 391.904C809.08 396.322 808.198 392.517 808.198 392.517C801.292 374.107 793.063 298.503 789.977 268.187C789.389 261.805 788.948 257.387 788.802 255.914C788.802 254.932 787.479 253.705 785.275 252.232C769.258 241.308 703.133 218.848 703.133 218.848C653.906 217.743 628.337 233.944 628.337 233.944Z" fill="#FFE3CA"/>
<path d="M606.296 253.09C609.969 279.478 655.082 276.533 655.082 276.533H709.745C709.745 276.533 695.345 303.289 689.761 325.749C683.883 349.682 669.923 391.903 669.923 391.903C669.923 391.903 670.805 393.376 680.797 392.517C680.797 392.517 723.705 321.085 740.163 303.043C743.69 299.239 753.829 278.128 755.592 265.609C756.18 261.436 755.886 258.122 753.976 256.772C752.065 255.422 747.657 252.968 741.926 249.899C724.734 240.817 695.051 226.948 678.446 223.88C656.257 219.707 621.137 211.852 621.137 211.852C621.137 211.852 602.622 226.702 606.296 253.09Z" fill="#FFE3CA"/>
<path d="M643.473 49.5979C643.473 49.5979 635.244 36.588 639.212 22.8418C643.179 8.97275 658.608 -4.77351 681.091 1.60868C703.573 7.99087 721.795 22.4735 708.276 39.4109C694.757 56.2255 720.472 63.9578 713.86 71.9356C707.247 79.9133 709.745 88.382 712.537 90.223C715.329 92.064 724.293 98.6917 723.264 106.669C722.236 114.524 679.621 83.7181 679.621 83.7181C679.621 83.7181 656.551 44.5658 643.473 49.5979Z" fill="#6D3710"/>
<path d="M712.097 215.534C712.097 215.534 708.718 229.28 621.285 211.974C621.285 211.974 650.527 203.874 712.097 215.534Z" fill="#EB4747"/>
<path d="M620.255 215.78C618.933 217.989 617.61 220.076 616.141 222.285C648.028 223.021 680.062 223.88 711.949 224.617C706.953 210.502 708.569 191.356 709.451 176.873C710.48 159.077 722.235 146.803 721.06 128.884C727.378 129.743 728.407 129.866 734.726 130.725C725.027 107.651 721.795 96.2366 691.671 87.3997C681.825 84.4541 675.507 83.9631 664.927 84.6995C630.101 87.1542 619.668 87.3997 602.475 113.788C629.219 117.347 624.811 125.325 632.893 147.662C636.86 158.463 640.975 170.614 638.917 182.028C636.86 193.197 620.255 205.593 620.255 215.78Z" fill="white"/>
<path d="M675.801 92.9225C661.547 90.7133 664.633 84.0856 664.633 84.0856C664.633 84.0856 665.221 80.4036 665.514 75.6169C665.514 74.3896 665.661 73.1622 665.661 71.8121C665.661 69.8484 665.515 67.8846 665.221 65.9209C664.045 57.9431 691.083 62.7298 691.083 62.7298C691.083 62.7298 689.467 78.9307 693.287 83.7174C696.961 88.6268 690.054 95.2544 675.801 92.9225Z" fill="#FFE3CA"/>
<path d="M648.616 84.0858C648.616 84.0858 677.417 111.824 687.997 118.206C687.997 118.206 700.194 109.001 692.7 84.6995C692.7 84.6995 678.887 78.8082 648.616 84.0858ZM649.498 17.3183C649.498 17.3183 634.509 41.3742 649.351 64.0801C664.192 86.786 693.287 54.1386 695.051 50.3338C696.961 46.5291 706.953 24.8051 687.116 18.3001C667.278 11.6725 653.759 10.8133 649.498 17.3183Z" fill="#FFE3CA"/>
<path d="M678.298 66.5352C678.298 66.5352 675.653 71.3218 665.514 75.6175C665.514 74.3902 665.661 73.1628 665.661 71.8127C665.661 71.8127 672.568 71.1991 678.298 66.5352Z" fill="#FCD2B1"/>
<path d="M527.386 194.179C527.386 194.179 520.333 196.756 516.953 195.652C513.573 194.424 508.43 194.179 506.814 194.179C504.609 194.179 497.703 192.092 497.85 194.424C497.997 196.634 509.018 198.229 511.222 198.966C513.426 199.702 504.462 203.752 503.581 205.593C502.699 207.434 512.985 219.462 518.716 216.026C524.447 212.589 527.533 205.716 528.708 205.225C529.884 204.734 532.97 202.893 532.97 202.893L527.386 194.179Z" fill="#FFE3CA"/>
<path d="M504.756 204.488C504.756 204.488 488.152 216.025 487.858 217.621C487.564 219.216 488.446 219.953 490.062 218.848C491.678 217.866 506.52 208.048 506.52 208.048C506.52 208.048 489.915 224.494 489.327 225.721C489.033 226.458 490.65 227.931 491.531 227.44C492.413 226.949 510.193 211.484 510.193 211.484C510.193 211.484 494.617 226.826 494.617 228.053C494.47 229.035 496.381 230.14 497.703 229.035C499.026 227.931 514.455 214.43 514.455 214.43C514.455 214.43 504.022 226.212 504.756 227.317C505.197 227.931 506.52 229.281 509.018 226.212C511.516 223.144 518.569 216.271 518.569 216.271L504.756 204.488Z" fill="#FFE3CA"/>
<path d="M704.014 276.41H655.082C655.082 276.41 609.969 279.478 606.296 252.968C602.622 226.58 621.137 211.852 621.137 211.852C621.137 211.852 644.942 217.129 665.809 221.302C676.242 219.461 688.732 218.234 703.427 218.602C703.427 218.602 791.594 242.903 788.949 255.791C788.949 255.913 752.065 239.467 704.014 276.41Z" fill="#6D3710"/>
<path d="M672.127 230.756L765.584 229.528L718.415 249.534L672.127 230.756Z" fill="#F2F2F2"/>
<path d="M701.223 220.689C701.223 220.689 680.209 227.44 654.494 221.303L653.318 213.325L706.366 215.78L701.223 220.689Z" fill="white"/>
<path d="M718.415 249.533L672.127 234.56V230.755L722.088 245.728L718.415 249.533Z" fill="#D3D3D3"/>
<path d="M700.782 224.495C700.488 227.318 704.015 229.404 707.247 228.299L712.684 226.336C714.301 225.722 715.329 224.372 715.036 222.899C712.831 211.117 707.982 165.214 715.036 157.236C717.681 154.291 719.297 151.713 720.179 149.504C724.881 159.568 730.612 172.578 732.963 179.574L777.046 228.668L791.888 231.859C773.373 194.67 758.531 175.033 758.531 175.033C755.592 168.528 747.363 148.89 740.016 131.462C735.314 120.416 731.2 110.229 728.848 104.829C727.673 102.006 725.469 99.6737 722.383 98.2009C715.476 94.7643 704.162 89.364 693.875 85.1911H693.728C693.435 85.0683 693.141 84.9456 692.7 84.8229C712.391 109.492 704.749 179.574 700.782 224.495C700.782 224.372 700.782 224.372 700.782 224.495ZM627.897 86.7866C621.578 87.6457 606.002 100.287 597.773 113.052C588.369 127.657 578.67 144.226 571.47 149.627C558.245 159.691 521.068 195.161 519.305 194.302C518.57 193.934 529.444 204.857 530.913 205.348C531.648 205.594 591.896 161.9 597.773 155.272C603.21 149.013 617.905 122.502 622.313 123.116C622.607 123.73 628.044 133.426 633.04 147.54C633.187 147.786 633.187 148.031 633.334 148.277C636.861 158.095 636.567 168.896 634.657 180.924C633.187 190.006 625.105 204.857 620.256 212.099C619.668 212.958 619.815 214.676 620.403 215.903C620.844 216.64 621.285 217.253 622.019 217.499L639.8 223.022L643.914 224.249C646.853 225.231 650.086 224.74 652.437 223.267C654.347 222.163 655.817 220.322 656.111 218.113C660.078 192.829 665.074 166.932 669.042 157.236C686.528 114.525 662.282 82.3682 662.282 82.3682C662.282 82.3682 633.481 85.0683 627.897 86.7866Z" fill="#FFBE55"/>
<path d="M718.415 249.533L746.187 186.202L835.677 187.429L809.227 245.851L718.415 249.533Z" fill="#FFBE55"/>
<path d="M774.842 214.186C772.05 218.727 772.931 223.759 776.752 225.232C780.573 226.827 785.716 224.373 788.508 219.832C791.3 215.29 790.418 210.258 786.597 208.785C782.777 207.19 777.487 209.645 774.842 214.186Z" fill="#F2F0F0"/>
<path d="M720.473 94.5183C713.86 86.1724 709.158 79.5447 708.57 67.6395C708.129 59.7845 706.072 49.1066 699.607 43.829C706.366 29.1008 698.431 24.6824 695.198 19.8958C691.231 13.8818 661.842 -0.600906 650.233 14.6182C638.624 29.7145 642.739 45.5473 642.739 45.5473C643.914 37.2013 654.201 25.9097 654.201 25.9097C655.817 34.6239 677.418 48.8611 686.822 54.6296C686.675 54.7524 686.529 54.9978 686.529 55.1205C681.239 61.5027 687.851 67.8849 689.027 74.6353C690.202 81.3857 666.838 99.5504 692.847 108.633C718.856 117.838 727.085 102.742 720.473 94.5183ZM247.456 809.447C247.456 809.447 246.869 814.602 218.067 814.602C189.266 814.602 147.387 808.342 147.387 808.342L214.247 802.942C214.247 802.942 239.962 801.837 247.456 809.447Z" fill="#6D3710"/>
<path d="M174.131 811.288C157.82 811.288 150.913 818.284 144.448 820.493C137.982 822.703 131.516 826.017 131.516 825.894C135.19 819.88 140.333 819.757 142.978 817.793C145.623 815.83 144.888 816.811 139.158 816.443C135.925 816.198 130.047 821.23 125.932 824.053C122.259 826.385 120.055 826.63 120.055 826.63C120.055 826.63 124.316 821.598 129.606 817.548C136.072 812.638 144.154 808.588 146.064 807.852C149.591 806.624 160.465 806.379 168.106 807.238C176.922 808.22 185.886 811.288 174.131 811.288Z" fill="#6D3710"/>
<path d="M147.092 808.097C147.092 808.097 134.602 810.797 132.398 812.27C130.928 813.251 124.463 819.02 124.463 819.02C124.463 819.02 129.165 818.406 131.81 816.197C134.602 813.865 147.092 808.097 147.092 808.097ZM223.798 798.892C223.798 798.892 255.244 800.61 253.04 816.811C251.864 826.016 244.664 829.207 235.113 828.471C217.479 827.243 197.495 825.034 197.495 825.034L188.531 799.873L223.798 798.892Z" fill="#6D3710"/>
<path d="M230.411 801.101L261.269 718.01C261.269 718.01 265.825 705.859 273.319 708.068C284.046 711.382 278.756 721.324 277.874 727.215C275.964 739.243 277.286 744.52 267.294 773.486C261.122 791.405 255.832 812.024 250.542 823.807C246.869 831.907 240.55 820.248 230.998 817.056C213.071 811.042 230.411 801.101 230.411 801.101ZM232.762 672.843C238.787 687.326 257.449 694.813 274.641 689.535C291.687 684.258 300.797 668.18 294.773 653.697C288.748 639.214 270.086 631.727 252.893 637.005C235.848 642.283 226.737 658.361 232.762 672.843Z" fill="#6D3710"/>
<path d="M198.963 674.194C208.368 685.977 227.177 688.923 240.843 680.822L238.933 666.953C252.598 658.73 255.978 642.529 246.574 630.746L240.108 622.769C230.704 610.986 211.895 608.04 198.229 616.141L192.057 619.823C178.391 628.046 175.011 644.247 184.416 656.03L198.963 674.194Z" fill="#6D3710"/>
<path d="M186.62 635.532C188.237 637.496 190 639.337 192.057 641.178C205.576 653.452 223.65 658.115 235.112 653.083C240.402 659.097 246.427 663.884 251.864 667.566C258.182 671.862 274.346 673.58 274.346 673.58C283.751 682.171 248.484 732.37 245.986 732.124C240.843 731.756 234.23 704.018 239.08 693.954C241.284 689.413 244.81 684.012 243.782 681.558C240.108 673.089 234.965 674.562 234.965 674.562C234.965 674.562 228.206 681.189 222.916 680.944C217.479 680.576 208.074 673.457 207.633 673.335C206.017 672.23 204.547 670.88 203.225 669.284L189.118 651.61C185.445 646.701 184.563 640.81 186.62 635.532Z" fill="#FFE3CA"/>
<path d="M294.478 847.005C294.478 847.005 283.017 858.542 279.49 859.769C274.788 861.487 260.387 857.805 260.387 857.805C260.387 857.805 256.567 804.907 252.158 784.287C247.75 763.668 241.284 758.268 240.99 751.763C240.55 741.33 230.116 737.157 231.88 729.057C233.643 720.956 236.729 691.991 237.758 695.796C246.721 728.689 257.742 701.319 260.24 697.023C261.563 694.691 294.478 847.005 294.478 847.005Z" fill="#F2F0F0"/>
<path d="M242.313 685.975C242.313 685.975 228.353 698.74 229.382 703.772C230.263 708.804 223.357 724.514 230.263 746.361C238.052 771.276 242.166 788.213 243.635 804.537C245.105 820.861 238.492 835.834 241.137 855.84C243.195 871.55 247.456 872.409 247.456 872.409C247.456 872.409 255.832 874.127 261.71 867.991C267.587 861.977 258.771 808.464 255.832 795.209C252.893 781.831 243.489 750.656 240.99 741.451C237.905 730.16 238.492 718.623 238.639 715.309C239.374 703.649 241.137 696.408 242.607 691.989C242.754 691.376 243.489 684.503 242.313 685.975ZM266.706 700.949C274.347 719.359 298.152 728.81 319.9 722.059C341.648 715.309 353.11 694.935 345.468 676.525C337.827 658.115 314.022 648.664 292.274 655.414C270.526 662.042 259.065 682.539 266.706 700.949Z" fill="#6D3710"/>
<path d="M191.911 1017.36L199.699 1069.28L165.901 1082.66L147.239 1086.09L180.449 1064.61L169.575 1017.73L191.911 1017.36Z" fill="#FCBAA2"/>
<path d="M201.903 1077.13L194.555 1078.73L189.559 1074.92L162.521 1086.21L138.569 1091C138.569 1091 138.275 1089.4 139.01 1088.54C141.949 1085.23 158.848 1077.99 158.848 1077.99C158.848 1077.99 159.142 1082.78 161.493 1082.9C163.844 1083.02 184.563 1073.94 189.412 1071.48C197.641 1067.19 199.258 1064.37 199.845 1064.73C201.609 1065.47 201.903 1077.13 201.903 1077.13Z" fill="#6D3710"/>
<path d="M110.356 945.191L83.4647 989.376L46.4345 987.903L27.9194 983.362L68.9171 977.593L91.2528 939.791L110.356 945.191Z" fill="#FCBAA2"/>
<path d="M81.2607 997.232L73.9134 995.759L71.5623 990.359L38.2058 989.991L18.3682 986.063C18.3682 986.063 20.7193 983.854 22.1887 983.24C26.5971 981.645 42.3202 980.908 42.3202 980.908C42.3202 980.908 40.7038 984.713 42.7611 985.695C44.8183 986.799 67.7417 987.413 73.3257 987.045C83.024 986.431 85.816 984.713 86.1099 985.204C87.1385 986.922 81.2607 997.232 81.2607 997.232Z" fill="#6D3710"/>
<path d="M306.528 813.007L286.543 820.494L286.69 843.445L149.003 824.667C149.003 824.667 135.925 821.107 127.549 839.149C115.646 864.678 85.3755 944.087 85.3755 944.087L104.478 961.393L164.579 871.674C164.579 871.674 287.719 921.627 328.276 910.826C343.852 906.653 355.755 882.843 353.55 858.787C351.787 839.886 347.379 822.58 347.379 822.58L306.528 813.007Z" fill="#FFB750"/>
<path d="M289.041 910.336L190.441 904.199L198.964 1035.77L169.869 1036.63L148.415 882.475C148.415 882.475 154.145 859.524 172.954 862.96C191.91 866.519 237.463 896.712 289.041 910.336Z" fill="#FFB750"/>
<path d="M355.46 943.35C355.46 943.35 303.735 894.87 290.363 867.5C274.346 834.73 275.669 793.614 272.73 779.99C267.293 754.952 260.681 706.35 259.505 700.336C258.182 694.322 262.738 687.571 262.738 687.571C262.738 687.571 259.358 669.406 269.056 671.37C283.016 674.193 296.829 680.575 301.678 682.539C310.789 685.976 329.451 777.536 330.48 781.954C334.3 797.909 348.26 812.392 358.252 827.243C381.763 862.468 387.788 904.075 387.788 904.075C387.788 904.075 384.849 934.513 355.46 943.35Z" fill="#6D3710"/>
<path d="M302.12 816.567C302.12 816.567 301.679 822.458 268.763 821.108C235.847 819.635 187.649 810.43 187.649 810.43L263.914 807.484C263.914 807.484 293.156 807.607 302.12 816.567Z" fill="#FFE3CA"/>
<path d="M213.511 813.62C197.788 813.374 191.029 820.125 184.857 822.211C178.685 824.298 172.367 827.366 172.367 827.366C175.893 821.597 180.889 821.475 183.534 819.634C186.032 817.793 185.445 818.774 179.861 818.284C176.628 818.038 171.044 822.825 167.077 825.525C163.55 827.857 161.346 827.98 161.346 827.98C161.346 827.98 165.46 823.07 170.603 819.143C176.922 814.479 184.563 810.551 186.473 809.938C189.853 808.833 200.286 808.71 207.78 809.692C216.156 810.674 224.826 813.865 213.511 813.62Z" fill="#FFE3CA"/>
<path d="M187.208 810.062C187.208 810.062 175.159 812.516 173.102 813.866C171.632 814.848 165.46 820.371 165.46 820.371C165.46 820.371 169.869 819.758 172.514 817.671C175.159 815.707 187.208 810.062 187.208 810.062Z" fill="#FFE3CA"/>
<path d="M275.816 810.062L324.602 788.583C324.602 788.583 324.749 814.603 325.043 824.544C325.337 834.486 330.333 848.477 320.929 850.564C311.524 852.65 306.675 851.546 316.373 856.332C326.072 860.996 323.867 865.906 320.194 869.956C316.52 874.006 332.537 915.245 328.717 917.577C313.581 901.622 297.27 881.861 290.217 867.501C281.253 848.846 277.727 827.49 275.816 810.062Z" fill="#6D3710"/>
<path d="M291.54 799.627L289.629 716.658C289.629 716.658 289.776 690.762 290.364 683.152C290.952 675.297 306.969 684.502 306.969 684.502C306.969 684.502 329.451 709.908 329.892 771.153C330.186 812.146 327.541 833.502 304.912 831.783C283.898 830.188 259.946 827.488 259.946 827.488L249.513 804.782L291.54 799.627Z" fill="#6D3710"/>
<path d="M286.543 843.445L118.585 825.894L119.026 822.948L286.984 840.499L286.543 843.445Z" fill="#D3D3D3"/>
<path d="M212.923 832.645C212.629 834.977 210.425 836.695 208.074 836.45L121.964 827.49C119.613 827.245 116.674 825.404 114.617 819.267L81.4072 747.467C81.8481 744.522 84.64 743.049 86.9911 743.785L175.011 755.322C177.362 756.059 178.979 757.777 179.86 760.968L212.923 832.645Z" fill="#D3D3D3"/>
<path d="M202.05 834.609L202.932 834.731L286.984 843.568C283.752 844.673 278.609 845.041 272.878 844.427L202.491 837.063L201.609 836.941L131.223 829.577C125.492 828.963 120.643 827.49 117.704 825.895L202.05 834.609Z" fill="#D3D3D3"/>
<path d="M291.539 799.628L289.629 716.66C289.629 716.66 291.098 709.664 294.037 703.404C294.772 712.487 299.768 777.904 300.356 786.495C301.09 795.823 310.201 796.805 312.111 799.874C314.168 802.819 312.405 803.433 305.646 802.328C299.033 801.101 301.384 802.083 302.854 805.028C304.323 808.097 300.649 807.238 287.718 803.31C278.314 800.487 260.24 803.31 251.129 805.028L291.539 799.628Z" fill="#6D3710"/>
<path d="M872.266 596.012C856.102 599.571 826.272 612.09 819.954 633.568C810.549 665.847 829.358 713.1 799.675 759.494C790.124 774.222 963.813 794.105 963.813 794.105L997.317 631.114C997.317 631.114 955.437 595.766 946.914 593.311C929.134 588.402 904.594 588.893 872.266 596.012Z" fill="#CCE9FF"/>
<path d="M997.464 631.236C1003.49 644.245 1018.77 721.691 1001.73 739.978C999.815 742.065 1010.54 745.379 1008.63 754.952C1008.34 756.548 1005.11 764.28 1005.11 764.28L991.292 767.348L961.168 738.26C961.168 738.26 973.365 722.427 989.382 662.41C994.084 644.736 996.141 628.29 997.464 631.236Z" fill="#6D3710"/>
<path d="M883.434 723.777C883.434 723.777 897.982 755.811 933.102 764.402C939.126 765.875 942.947 771.521 940.008 773.362C936.187 775.694 931.191 776.185 922.375 776.185C904.007 776.185 879.026 771.276 861.833 756.793C836.265 735.437 828.183 725.618 830.828 714.94C833.179 704.017 883.434 723.777 883.434 723.777Z" fill="#FCD2B1"/>
<path d="M824.95 622.768C817.455 633.323 813.194 650.26 813.341 674.561C813.341 693.34 832.15 724.146 834.942 733.597C835.383 735.192 836.558 741.943 836.558 741.943L857.278 759.616L898.863 735.192L886.226 718.378L882.405 718.746C882.405 718.746 880.054 709.418 880.642 705.859C881.23 702.299 869.18 653.819 863.155 622.768C859.776 604.726 832.297 612.335 824.95 622.768Z" fill="#6D3710"/>
<path d="M862.274 718.01L874.47 714.819L879.467 713.714C879.76 716.659 882.699 718.623 882.699 718.623L873.148 719.605L862.127 722.551L849.196 730.283L862.274 718.01Z" fill="#6D3710"/>
<path d="M930.457 764.281L951.617 759.249C951.617 759.249 957.642 766.245 956.466 767.963C955.291 769.681 956.466 779.991 956.466 779.991L946.18 787.601L937.804 785.146C937.804 785.146 937.216 781.955 940.008 781.709C942.947 781.341 938.098 779.623 936.628 778.887C935.159 778.027 922.963 772.627 930.457 764.281Z" fill="#FCD2B1"/>
<path d="M897.835 594.417C895.484 600.186 899.011 606.691 905.77 608.655L917.82 612.337C924.579 614.423 931.927 611.232 934.278 605.463L945.005 578.953C947.356 573.184 943.829 566.679 937.07 564.593L925.02 560.911C918.261 558.824 910.914 562.015 908.562 567.784L897.835 594.417Z" fill="#FF957E"/>
<path d="M950.441 617.735C949.266 621.539 944.564 623.871 940.155 622.767L903.86 614.053C899.451 612.948 896.806 609.021 897.982 605.093L912.823 558.577C913.999 554.772 918.701 552.44 923.11 553.545L959.405 562.136C963.813 563.241 966.458 567.168 965.283 571.096L950.441 617.735Z" fill="#FCD2B1"/>
<path d="M969.25 566.433C969.544 566.188 965.87 562.751 967.781 556.001C970.279 546.918 962.197 543.236 956.172 543.114C952.645 542.991 940.743 547.778 934.424 549.373C928.105 550.969 928.693 548.882 917.232 547.164C909.59 545.937 907.827 549.496 905.182 554.405C902.537 559.437 902.243 578.584 902.243 578.584C903.272 579.811 904.888 580.793 905.917 579.811C906.945 578.829 911.06 563.488 914.44 558.946C917.672 554.405 930.897 561.647 938.098 565.206C945.151 568.765 951.47 569.379 962.785 567.415C964.107 568.642 965.283 569.993 965.283 570.606C965.283 571.834 962.05 580.548 962.05 580.548C962.05 580.548 968.368 577.234 970.132 574.656C971.014 573.797 971.307 569.624 969.25 566.433Z" fill="#FFBE55"/>
<path d="M909.444 595.399C909.003 596.626 907.534 597.485 906.064 597.117L898.276 595.276C896.807 594.908 895.925 593.558 896.366 592.33L900.333 579.934C900.774 578.707 902.244 577.848 903.713 578.216L911.501 580.057C912.971 580.425 913.852 581.775 913.411 583.003L909.444 595.399Z" fill="#FCD2B1"/>
<path d="M904.594 583.617C904.594 583.617 898.716 601.905 896.806 608.041C895.043 613.564 893.72 626.329 929.722 634.92C951.029 639.952 954.555 626.206 956.025 621.788C957.053 618.351 955.878 607.182 954.261 604.728C954.261 604.605 951.91 612.337 951.91 612.337C951.91 612.337 949.853 603.868 939.714 601.536C923.403 597.609 916.937 605.096 909.884 603.132C904.3 601.536 902.684 592.7 904.594 583.617Z" fill="#FFBE55"/>
<path d="M929.134 611.722L940.302 614.423C941.771 614.791 943.388 614.054 943.682 612.704L944.123 611.354L927.518 607.427L927.077 608.777C926.783 610.127 927.665 611.354 929.134 611.722Z" fill="#FCD2B1"/>
<path d="M1106.2 797.664C1101.06 810.06 1010.54 855.594 980.124 852.894L888.578 856.699C810.844 848.476 773.96 743.906 773.96 743.906C777.046 717.641 853.752 755.689 881.083 767.471C924.285 786.127 951.764 787.109 951.764 787.109C980.712 789.686 1014.22 770.294 1050.81 769.68C1090.92 768.821 1114.43 778.149 1106.2 797.664Z" fill="#6D3710"/>
<path d="M907.239 785.147C907.239 785.024 907.239 785.024 907.239 785.147V781.711L1064.62 779.256V782.692L1064.18 783.306C1062.27 786.252 1058.59 786.743 1054.48 786.865L917.525 789.075C913.411 789.197 909.737 788.706 907.68 785.883L907.239 785.147Z" fill="#D3D3D3"/>
<path d="M945.151 785.023L944.71 785.637C944.123 786.374 943.388 786.987 942.506 787.355L918.554 787.724C914.587 787.846 911.06 787.478 909.003 785.146L908.562 784.655L908.415 784.533V782.937L944.857 782.323L945.151 785.023ZM966.458 783.796L1045.07 782.569V780.237L966.311 781.587L966.458 783.796ZM946.033 780.973L964.989 713.715C965.43 711.996 967.487 710.524 969.544 710.401L1080.05 708.683C1082.1 708.683 1083.28 710.033 1082.84 711.874L1063.88 779.132L946.033 780.973Z" fill="#D3D3D3"/>
<path d="M874.764 874.006C885.638 875.601 894.014 864.678 894.014 864.678L922.227 845.531L916.203 832.521L861.245 853.877C861.245 853.877 863.743 872.41 874.764 874.006Z" fill="#FCD2B1"/>
<path d="M893.867 863.941C893.867 863.941 893.867 865.046 891.81 870.078C889.753 875.11 887.108 876.828 884.463 877.564C873.883 880.265 866.388 878.915 841.114 883.088C815.839 887.261 808.198 884.069 800.851 874.005C793.504 863.941 801.145 855.963 813.488 855.227C831.268 854.122 841.261 855.84 850.518 854.613C860.217 853.386 860.805 851.422 866.535 848.354C871.825 845.531 876.821 862.468 871.825 866.396C867.27 869.832 890.194 870.323 893.867 863.941Z" fill="#FFB750"/>
<path d="M888.577 873.638C878.144 876.338 870.503 874.988 845.229 879.161C819.954 883.334 812.313 880.143 804.966 870.079C801.586 865.415 801.439 861.242 803.349 858.051C797.765 861.365 795.855 867.133 800.851 874.006C808.198 884.07 815.839 887.262 841.114 883.089C866.389 878.916 874.03 880.266 884.463 877.566C886.52 877.075 888.577 875.847 890.341 873.024C889.753 873.27 889.165 873.515 888.577 873.638Z" fill="white"/>
<path d="M893.867 864.309V864.063C893.867 864.186 893.72 864.309 893.573 864.432C893.72 864.309 893.867 864.309 893.867 864.309Z" fill="#E9D6B8"/>
<path d="M839.35 871.796C838.616 872.041 837.881 870.691 837.587 868.85C837.146 865.046 836.118 861.364 834.648 857.559C833.913 855.718 833.913 854.122 834.795 853.877C835.677 853.631 837.146 854.981 837.734 856.822C839.203 860.504 840.085 864.309 840.526 867.991C840.82 869.832 840.085 871.55 839.35 871.796ZM847.139 870.569C846.257 870.691 845.522 869.464 845.228 867.746C844.787 864.186 843.759 860.627 842.289 857.191C841.555 855.472 841.555 853.999 842.583 853.877C843.465 853.754 844.934 855.104 845.669 856.822C846.992 860.259 848.02 863.818 848.461 867.255C848.608 868.973 848.02 870.446 847.139 870.569ZM855.367 870.323C854.486 870.446 853.604 869.096 853.31 867.255C852.576 863.573 851.547 860.013 849.93 856.331C849.196 854.49 849.196 853.018 850.077 853.018C851.106 853.018 852.576 854.368 853.31 856.209C854.927 859.768 855.955 863.45 856.543 867.009C856.837 868.728 856.249 870.2 855.367 870.323Z" fill="white"/>
<path d="M876.675 842.708C876.675 842.708 1070.2 773.854 1081.22 773.731C1118.55 773.485 1110.02 806.133 1091.07 821.597C1068.73 839.762 898.864 873.023 898.864 873.023L876.675 842.708Z" fill="#6D3710"/>
<path d="M953.38 854.735L900.479 811.287L923.109 792.018L980.712 844.548L953.38 854.735Z" fill="#FCD2B1"/>
<path d="M964.254 820.616C964.254 820.616 829.8 713.96 820.836 710.769C790.124 699.968 771.168 729.301 772.197 739.488C773.667 752.621 910.178 859.4 910.178 859.4L964.254 820.616Z" fill="#6D3710"/>
<path d="M1043.9 858.051C1046.98 860.505 1047.57 867.992 1047.57 867.992C1047.57 867.992 1002.75 882.72 987.031 882.966C982.917 883.089 975.569 881.616 968.516 879.897C967.34 879.652 964.548 876.952 963.373 876.706C961.169 876.215 960.728 877.934 958.964 877.443C954.262 876.093 950.736 874.988 950.589 874.743C941.037 857.314 944.27 848.723 944.27 848.723C944.27 848.723 964.842 853.878 961.316 849.827C953.821 841.236 975.422 832.522 980.125 837.063C999.521 855.35 1034.79 850.809 1043.9 858.051Z" fill="#FFB750"/>
<path d="M1046.4 861.732C1032.58 866.518 1003.64 876.214 997.904 876.583C974.246 878.055 957.788 870.814 946.768 866.518C947.796 868.973 948.972 871.796 950.588 874.742C950.735 874.987 954.115 876.092 958.964 877.442C960.874 877.933 961.315 876.092 963.372 876.705C964.548 876.951 967.193 879.651 968.515 879.896C975.569 881.615 982.916 882.965 987.031 882.965C1002.75 882.719 1047.57 867.991 1047.57 867.991C1047.57 867.991 1047.57 864.555 1046.4 861.732ZM1014.8 850.44C1015.24 851.177 1013.48 851.913 1010.98 852.404C1005.84 853.263 1000.84 854.613 995.847 856.331C993.349 857.191 991.145 857.436 990.851 856.7C990.557 855.963 992.174 854.613 994.672 853.754C999.521 852.036 1004.66 850.808 1009.66 849.949C1012.01 849.335 1014.36 849.704 1014.8 850.44ZM1004.66 847.372C1005.1 848.108 1003.34 849.09 1000.84 849.704C995.847 850.931 990.998 852.649 986.149 854.736C983.798 855.718 981.594 856.086 981.3 855.35C981.006 854.613 982.622 853.018 984.973 852.036C989.676 850.072 994.525 848.354 999.521 847.249C1002.02 846.39 1004.37 846.635 1004.66 847.372ZM994.966 844.672C995.259 845.408 993.643 846.513 991.292 847.249C986.443 848.845 981.741 850.808 977.185 853.14C974.981 854.368 972.924 854.736 972.63 853.877C972.336 853.14 973.805 851.422 976.157 850.195C980.712 847.863 985.414 845.899 990.116 844.426C992.468 843.812 994.672 843.935 994.966 844.672Z" fill="white"/>
</svg>
