<svg width="75" height="93" viewBox="0 0 75 93" fill="none" xmlns="http://www.w3.org/2000/svg">
<path d="M34.6581 44.9854C33.3401 46.2599 31.9398 47.3384 30.4571 48.2207C29.0156 49.1031 27.4093 49.5443 25.6383 49.5443C24.2792 49.5443 23.023 49.2747 21.8698 48.7354C20.7578 48.2452 19.6664 47.608 18.5955 46.8237C17.5247 46.0394 16.4538 45.1815 15.383 44.2501C14.3122 43.3678 13.1796 42.5344 11.9852 41.7501C10.7908 40.9658 9.4934 40.304 8.09307 39.7648C6.73393 39.2746 5.21004 39.0295 3.52141 39.0295H0V3H4.88055V38.3678C6.89867 38.4658 8.85501 38.9315 10.7496 39.7648C12.6441 40.6472 14.5181 41.5786 16.3715 42.559C18.266 43.5393 20.14 44.4217 21.9934 45.206C23.8879 45.9903 25.8237 46.3825 27.8006 46.3825C28.995 46.3825 30.1276 46.2599 31.1985 46.0148C32.2693 45.8188 33.3401 45.4021 34.411 44.7648L34.6581 44.9854Z" fill="#FBEC6C"/>
<path d="M74.9999 92.7797C73.9703 92.9267 72.9406 93.0003 71.911 93.0003C68.6161 93.0003 65.6301 92.1669 62.953 90.5002C60.3171 88.8336 57.9077 86.6522 55.7248 83.9561C53.542 81.309 51.5239 78.2698 49.6705 74.8384C47.8583 71.407 46.1285 67.9266 44.481 64.3972C42.8336 60.8188 41.2067 57.3629 39.6005 54.0295C37.9942 50.6962 36.3262 47.755 34.5964 45.206L34.5346 78.0002H34.1021V44.5442C32.3311 41.9952 30.2924 39.8873 27.986 38.2207C25.6384 36.554 23.0231 35.7206 20.1401 35.7206C18.2043 35.7206 16.2274 35.9903 14.2093 36.5295L14.0239 36.0148C16.3303 35.3285 18.575 34.9854 20.7579 34.9854C23.7644 34.9854 26.5033 35.5491 28.9745 36.6765C31.4868 37.755 33.7727 39.2501 35.832 41.1618C37.9325 43.0246 39.8476 45.206 41.5774 47.706C43.3072 50.206 44.8929 52.8531 46.3344 55.6472C47.8171 58.4413 49.1763 61.309 50.4118 64.2502C51.6886 67.1913 52.883 70.0345 53.995 72.7796V41.8971H54.4893V73.8825C55.3542 75.7943 56.3426 77.8286 57.4547 79.9855C58.5667 82.1914 59.8229 84.2012 61.2232 86.0149C62.6235 87.8287 64.1886 89.3238 65.9184 90.5002C67.6482 91.7257 69.5428 92.3385 71.6021 92.3385C72.1787 92.3385 72.7347 92.314 73.2701 92.265C73.8055 92.265 74.3616 92.2159 74.9382 92.1179L74.9999 92.7797Z" fill="#FBEC6C"/>
<path d="M23.4131 23.3425L23.4595 23.3646C23.4224 23.5962 23.3204 23.8168 23.1814 23.9822C23.0054 24.1918 22.7552 24.3241 22.4772 24.3241C21.8007 24.3241 21.4856 23.7947 21.4856 23.144V19.2726H20.8462V19.2175H21.0223C21.2817 19.2175 21.4856 18.9638 21.4856 18.666V17.9932L22.1158 17.7285V18.1366C22.1158 18.6881 21.7821 19.0851 21.3188 19.2175H23.2278V19.2726H22.1158V23.166C22.1158 23.4638 22.1528 23.7065 22.2548 23.8719C22.3567 24.0484 22.5235 24.1477 22.7737 24.1477C23.0888 24.1477 23.3482 23.7506 23.4131 23.3425Z" fill="#FBEC6C"/>
<path d="M18.8498 24.3571C18.0529 24.3571 17.3949 23.9269 17.1077 23.5961L17.5154 23.2211C17.7378 23.8497 18.2846 24.3019 18.8498 24.3019C19.5541 24.3019 20.0916 23.7725 20.0916 23.2652C20.0916 22.7137 19.7858 22.5152 19.341 22.3056L17.8583 21.6108C17.3486 21.3681 17.1077 21.0262 17.1077 20.4968C17.1077 19.8461 17.7563 19.1953 18.8498 19.1953C19.48 19.1953 20.0545 19.3828 20.5271 19.7137L20.1565 20.1328C19.897 19.5924 19.5541 19.2505 18.8498 19.2505C18.1641 19.2505 17.7007 19.6586 17.6915 20.1769C17.6915 20.6402 18.0251 20.8497 18.3958 21.0262L19.9989 21.7762C20.5179 22.0189 20.7773 22.3718 20.7773 22.9453C20.7773 23.4968 20.2862 24.3571 18.8498 24.3571Z" fill="#FBEC6C"/>
<path d="M14.5547 18.1953C15.4641 18.1953 16.2468 18.5852 16.8398 19.291L17.0391 19.5498C17.4727 20.1679 17.6934 20.8873 17.7041 21.6748L17.7178 22.6777L17.9023 22.7871L17.2021 23.6191L17.2012 23.6221C17.1994 23.6248 17.1962 23.6271 17.1943 23.6299C17.1479 23.7072 17.0993 23.788 17.0439 23.8701L16.8203 24.1836C16.5943 24.4863 16.3129 24.7339 16.0098 24.9375L16.0107 24.9385C16.0087 24.9399 16.0059 24.941 16.0039 24.9424C16.0022 24.9435 16.0008 24.9451 15.999 24.9463L15.998 24.9453C15.5549 25.2456 15.0527 25.3574 14.5645 25.3574C14.0015 25.3574 13.4598 25.222 12.9814 24.9131L12.7803 24.7695C12.364 24.4439 12.0508 24.0373 11.8281 23.5713L11.7383 23.3682C11.5205 22.8354 11.4141 22.2754 11.4141 21.6875V21.6748L11.4316 21.3408C11.5025 20.5737 11.784 19.8794 12.2783 19.291L12.3916 19.1631C12.9655 18.5417 13.6974 18.1953 14.5547 18.1953ZM14.3057 22.7959L14.3662 22.9033L14.3721 22.9121L14.4326 23.0049C14.5311 23.1422 14.6072 23.1835 14.6572 23.1982C14.9142 23.1891 14.9992 23.1207 15.0381 23.0791L15.0439 23.0723L15.0508 23.0654C15.2064 22.9049 15.31 22.778 15.376 22.6875H14.2559C14.2719 22.7253 14.2881 22.7616 14.3057 22.7959ZM14.5527 20.2451C14.5341 20.2575 14.492 20.2914 14.4336 20.3682L14.3701 20.46C14.337 20.5122 14.3064 20.5699 14.2773 20.6328H14.8506C14.8217 20.5699 14.791 20.5123 14.7578 20.46V20.459C14.6698 20.3205 14.602 20.2653 14.5742 20.2471C14.568 20.243 14.564 20.2404 14.5615 20.2393C14.5596 20.2403 14.5568 20.2424 14.5527 20.2451Z" fill="#FBEC6C" stroke="#6D3710" stroke-width="2"/>
<path d="M11.6423 24.1799V16.9336H11.6887V24.3233H10.9937L7.58345 17.077V24.3233H7.54639V16.9336H8.2414L11.6423 24.1799Z" fill="#FBEC6C"/>
<path d="M27.4122 5.95996C28.8208 5.95996 29.5806 6.82026 29.5806 8.33129V11.0887H28.9505V9.65483C28.7652 10.4931 28.0516 11.1107 27.1249 11.1107C26.1334 11.1107 25.3271 10.2725 25.3271 9.23571C25.3271 8.18791 26.1334 7.34967 27.1249 7.34967C28.0887 7.34967 28.7652 7.96732 28.9505 8.80556V8.14379C28.9505 6.77614 28.3574 6.02614 27.4863 6.02614H27.3751C26.467 6.10334 26.2446 7.15114 26.2446 7.15114L25.809 6.59967C26.3836 5.95996 27.4122 5.95996 27.4122 5.95996ZM27.1249 10.9453C27.2083 10.9563 27.2917 10.9673 27.3844 10.9673C28.1999 10.9673 28.9134 10.2173 28.9505 9.346V9.20262C28.9134 8.08864 28.0609 7.49305 27.3659 7.49305C27.301 7.49305 27.2454 7.49305 27.1898 7.50408C26.467 7.62541 25.9758 8.221 25.9758 9.23571C25.9758 10.2394 26.5504 10.846 27.1249 10.9453Z" fill="#FBEC6C"/>
<path d="M22.2441 5.02344C22.4204 4.9753 22.6089 4.94828 22.8096 4.94824C23.7683 4.94824 24.5639 5.33631 25.0654 6.10156C25.5179 6.79217 25.6542 7.67556 25.6543 8.55078V12.0879H23.0244V8.55078C23.0244 7.93313 22.9434 7.49009 22.8301 7.23926C22.8001 7.17296 22.774 7.13623 22.7588 7.11719C22.7553 7.11752 22.7516 7.11882 22.748 7.11914C22.7452 7.11939 22.7423 7.11889 22.7393 7.11914C22.7149 7.12964 22.6255 7.17952 22.5117 7.37598C22.3653 7.62883 22.2442 8.03393 22.2441 8.55078V12.0879H19.623V3.03711L20.2305 2.77832L20.8516 2.51367L22.2441 1.91992V5.02344Z" fill="#FBEC6C" stroke="#6D3710" stroke-width="2"/>
<path d="M20.1933 11.3419C20.4528 11.6286 20.5084 11.9816 20.5084 12.2353C20.5084 12.3014 20.4991 12.3566 20.4991 12.4007C20.4435 12.8639 20.1192 13.1948 19.7022 13.3713C19.3408 13.5257 18.794 13.636 17.9878 13.636C16.5144 13.636 15.7452 13.1176 15.6247 12.5992C15.6062 12.5331 15.6062 12.4669 15.6062 12.4007C15.6062 12.125 15.7452 11.8051 16.1437 11.6507L16.6256 12.2022C16.4217 12.2242 16.1251 12.3897 16.1066 12.6544V12.6985C16.1066 13.1397 16.5329 13.4375 17.2557 13.5367C17.4781 13.5698 17.719 13.5809 17.9878 13.5809C18.4511 13.5809 18.5253 13.5809 18.8403 13.5367C19.0257 13.5147 19.6558 13.4264 19.9338 12.897C19.9894 12.7867 20.0265 12.6433 20.0265 12.5C20.0265 12.4669 20.0265 12.4228 20.0172 12.3897C19.9431 11.8823 19.3778 11.4853 18.0156 11.2647C16.8016 11.0551 15.9491 10.9338 15.8471 10.3382C15.8379 10.3051 15.8379 10.261 15.8379 10.2279C15.8379 10.0625 15.8935 9.88599 16.0973 9.69849C16.4124 9.41172 17.0889 9.26834 17.6727 9.20216C16.7738 9.06981 16.0973 8.39701 16.0973 7.59186C16.0973 6.68745 16.9406 5.9595 17.9878 5.9595C18.0897 5.9595 18.1824 5.9595 18.2751 5.97053C18.3307 5.98156 18.3955 5.99259 18.4511 5.99259C18.4882 5.99259 18.5253 5.98156 18.5716 5.98156C18.933 5.93744 19.4056 5.772 19.7578 5.26465L20.0265 5.91539C20.0265 5.91539 19.7763 6.08083 19.0905 6.08083C18.9608 6.08083 18.8125 6.0698 18.6457 6.05877C19.3686 6.29039 19.8875 6.88598 19.8875 7.59186C19.8875 8.47422 19.0627 9.20216 18.0341 9.22422C17.6634 9.25731 17.163 9.31246 16.7553 9.43378C16.6441 9.46687 16.3476 9.58819 16.3476 9.79775V9.81981C16.3476 10.0294 16.4958 10.1838 17.2372 10.3051C18.3029 10.4705 19.5539 10.647 20.1933 11.3419ZM16.746 7.59186C16.746 8.46319 17.302 9.16907 17.9878 9.16907H18.0063C18.6828 9.16907 19.2388 8.46319 19.2388 7.59186C19.2388 6.72054 18.6828 6.01465 17.9878 6.01465C17.302 6.01465 16.746 6.72054 16.746 7.59186Z" fill="#FBEC6C"/>
<path d="M11.3472 8.52925V6.24615L11.968 5.98145V8.52925C11.968 9.86381 12.3109 10.9778 13.2376 10.9778C13.2747 10.9778 13.321 10.9668 13.3673 10.9668C14.1458 10.8785 14.7481 9.85278 14.7481 8.52925V6.24615L15.3783 5.98145V11.0881H14.7481V9.10278C14.5998 10.1947 14.0438 11.1432 13.182 11.1432C11.8568 11.1432 11.3472 10.1285 11.3472 8.52925Z" fill="#FBEC6C"/>
<path d="M8.17653 3.69824V11.0328H11.0122V11.088H7.54639V3.69824H8.17653Z" fill="#FBEC6C"/>
<path d="M30.4271 40.7316C30.412 40.6814 30.4024 40.5253 30.3507 40.3763C30.3386 40.3504 30.2565 40.1977 30.2695 40.2086C30.1384 40.0133 30.0629 39.9255 29.911 39.7735C29.8457 39.7708 29.8033 39.7636 29.7118 39.5942C29.0789 39.0665 28.2436 38.2522 27.05 38.2423C25.9474 38.2331 24.5024 38.9742 23.4848 39.7779C22.5612 40.5075 22.6059 40.6291 22.6142 41.5349L23.3689 42.8646C23.6328 43.3291 23.8801 43.879 24.2107 44.2585C24.4143 44.4921 24.8673 44.9819 26.7093 45.1674C26.9336 45.19 27.1353 45.1947 27.2653 45.1654C27.9465 45.0113 28.6078 44.1796 28.7897 44.0577C29.6416 43.4869 30.3396 43.0368 30.4315 41.2504C30.4419 41.0777 30.4404 40.9039 30.4271 40.7316Z" fill="#FBEC6C"/>
<path d="M30.4923 41.494C30.403 41.3177 30.2529 40.7706 30.1464 40.8529C30.1104 40.8227 30.0695 40.8058 30.0275 40.8037C30.0105 40.8037 29.9923 40.8129 29.9743 40.8187C29.8046 40.3491 29.4814 39.9867 29.0862 39.791C29.0208 39.7585 28.9646 39.7653 28.9188 39.7961C28.869 39.7452 28.8194 39.6939 28.7701 39.642C28.6439 39.5088 28.5211 39.8053 28.6456 39.9368C28.9242 40.2312 29.0568 40.2613 29.0702 40.7589C29.1254 42.8107 28.9516 44.1821 26.8507 44.1042C26.2592 44.0823 25.4409 43.4634 24.8398 42.7776C24.7717 42.6421 24.7134 42.4977 24.6657 42.3465C24.6127 42.173 24.43 42.1382 24.3237 42.2222C24.3104 42.2328 24.3032 42.2482 24.2924 42.2604C24.1491 42.1189 23.9948 42.0002 23.8323 41.9066C23.7076 41.8345 23.5574 41.9845 23.5249 42.1484C23.4852 42.3479 23.5744 42.5023 23.6994 42.5743C24.6393 43.1171 24.0678 43.8463 25.7518 44.4468C26.0634 44.5578 25.9305 45.2252 25.6189 45.1142C24.825 44.831 23.1042 43.1502 23.1042 43.1502C23.1255 43.183 23.3131 46.8835 26.6899 47.0648C26.7816 47.0696 29.6875 47.2937 30.4075 43.39C30.5167 42.7967 30.8545 42.2099 30.4923 41.494Z" fill="#6D3710"/>
<path d="M27.4914 39.5774C24.8326 39.4302 24.3387 41.0646 24.7275 41.7204C24.8482 41.9236 24.9944 42.0452 25.158 42.1634C25.4306 42.3601 25.2108 42.9729 24.9384 42.7765C23.9789 42.0845 23.9475 40.9044 24.5042 40.1045C24.1646 40.3012 24.0554 39.6229 24.3257 39.4623C24.7022 39.2389 25.0922 39.0958 25.4887 39.005C25.369 38.9732 25.1573 38.9869 25.1369 38.6525C25.0983 38.0182 25.7458 38.398 26.196 38.5596C26.5128 38.2747 26.8691 38.2112 27.241 38.2546C27.509 38.2856 27.5567 38.6849 27.3914 38.8823C27.8307 38.9042 27.7696 39.5931 27.4914 39.5774Z" fill="#6D3710"/>
<path d="M24.5844 44.1724C24.1265 42.9636 23.6414 42.9684 23.3327 42.3109C22.7665 41.1041 23.9742 40.7172 23.7613 39.6634C23.6749 39.2368 23.2198 39.4185 23.3065 39.8475C23.3725 40.1744 22.962 40.3554 22.7731 41.2059C22.6882 41.5869 22.6993 42 22.8042 42.37C22.5325 42.4407 22.5692 42.9749 22.7817 43.037C22.9525 43.0869 23.0508 43.1371 23.1905 43.216C23.2523 43.2758 23.8094 43.5518 24.1772 44.5221C24.3224 44.905 24.7415 44.587 24.5844 44.1724ZM30.6075 40.9576C30.512 40.6697 30.3512 40.4378 30.174 40.2403C30.1527 40.1131 30.1286 39.9869 30.1018 39.8619C30.2912 39.7823 30.3463 39.3127 30.1076 39.1969C29.8821 39.0876 29.6255 39.3349 29.6144 39.7608C29.2517 39.4382 28.8672 39.172 28.4671 38.9663C28.1838 38.8208 28.0264 39.4735 28.3302 39.6293C29.1976 40.0747 28.7539 41.29 28.0111 41.9379C27.4325 42.3047 26.8082 42.3853 26.2523 42.1053C25.9999 41.9782 25.8095 42.6097 26.1519 42.7822C26.91 43.1641 27.8263 42.8967 28.528 42.316C28.9252 41.9871 29.2964 41.0543 29.2225 40.3903C29.2106 40.2847 29.2906 40.213 29.3499 40.2711C29.5528 40.4695 29.7413 40.7486 29.732 40.8726C29.6832 41.5301 29.6357 41.8535 29.1681 42.3594C29.0721 42.4632 29.0107 42.6623 29.0493 42.8447C29.0842 43.0094 29.2157 43.118 29.3222 43.034C29.5372 42.8642 29.7441 42.6415 29.9088 42.2904C30.0797 41.9355 30.0994 41.5803 30.165 41.2131C30.267 41.47 30.2972 41.8006 30.208 42.1688C30.1638 42.3508 30.251 42.5629 30.3646 42.5892C30.7719 42.7057 30.8039 41.5495 30.6075 40.9576ZM27.7891 43.5265C27.698 42.8393 26.7843 43.7687 25.9648 43.0135C25.6868 42.7573 25.449 43.3554 25.6965 43.5835C26.2746 44.1164 26.9542 44.0395 27.6029 43.9333C27.7296 43.9121 27.8121 43.6993 27.7891 43.5265Z" fill="#6D3710"/>
<path d="M26.3064 38.6834C26.3103 38.6585 26.3101 38.6327 26.3059 38.6079L26.3051 38.6055C26.3041 38.6004 26.3017 38.5963 26.3002 38.5915C26.295 38.5716 26.2873 38.5532 26.2773 38.5372C26.2755 38.5348 26.2753 38.531 26.2736 38.5287C25.3113 37.1955 24.6266 37.5665 24.2979 37.7444C24.253 37.7687 24.2153 37.7899 24.184 37.8008C24.1661 37.807 24.1494 37.8187 24.1352 37.835C24.121 37.8513 24.1096 37.8719 24.1018 37.8951C24.0941 37.9184 24.0903 37.9437 24.0906 37.9693C24.0909 37.9949 24.0954 38.0201 24.1036 38.043C24.1076 38.0535 24.3884 38.7992 25.1096 38.9734C25.025 39.1708 24.952 39.4106 24.8919 39.6961C24.8835 39.7358 24.8858 39.7783 24.8984 39.8158C24.9109 39.8533 24.9329 39.8832 24.9602 39.9C25.0354 39.946 25.1132 39.969 25.1934 39.969C25.5415 39.969 25.9294 39.54 26.2906 38.7404C26.2958 38.7288 26.2977 38.7155 26.3007 38.7028C26.3019 38.6977 26.3051 38.6943 26.3059 38.6888C26.3068 38.6868 26.3061 38.6851 26.3064 38.6834Z" fill="#77B255"/>
<path d="M24.7649 38.9371C24.6175 38.8271 24.4505 38.7021 24.1781 38.5764C24.1623 38.5698 24.1477 38.5588 24.135 38.5442C24.1223 38.5296 24.1119 38.5116 24.1043 38.4914C24.0968 38.4711 24.0922 38.4489 24.0909 38.4261C24.0897 38.4034 24.0917 38.3805 24.0969 38.3588C24.1022 38.3372 24.1105 38.3172 24.1214 38.3C24.1323 38.2829 24.1455 38.269 24.1604 38.2591C24.1753 38.2492 24.1914 38.2435 24.2079 38.2424C24.2243 38.2413 24.2408 38.2448 24.2563 38.2526C24.5489 38.3879 24.7338 38.5255 24.882 38.6365C24.9742 38.7055 25.0546 38.7646 25.1434 38.8117C25.1167 38.8216 25.0891 38.8264 25.0632 38.8411C24.9906 38.8822 24.9231 38.939 24.8633 39.0095C24.8303 38.9858 24.7975 38.9617 24.7649 38.9371ZM25.0738 39.8347C25.1656 39.4535 25.3692 39.2684 25.6964 39.2684C25.7291 39.2684 25.7604 39.2504 25.7836 39.2184C25.8067 39.1864 25.8197 39.1429 25.8197 39.0976C25.8197 39.0523 25.8067 39.0089 25.7836 38.9769C25.7604 38.9448 25.7291 38.9268 25.6964 38.9268C25.2617 38.9268 24.9656 39.2035 24.8396 39.7268C24.8293 39.7698 24.8317 39.8168 24.8464 39.8573C24.861 39.8979 24.8867 39.9287 24.9178 39.943C24.9488 39.9573 24.9827 39.9539 25.012 39.9336C25.0413 39.9133 25.0635 39.8777 25.0738 39.8347Z" fill="#5C913B"/>
<path d="M30.2269 43.8996C29.7923 43.0611 28.937 41.7799 28.0933 42.6113C28.0735 42.632 28.0582 42.6599 28.0491 42.6919C28.0047 42.6762 27.9577 42.6836 27.917 42.7127C27.482 43.0266 26.8299 43.2503 27.1218 45.5914C27.1295 45.6536 27.1608 45.7072 27.2059 45.7359C27.251 45.7646 27.3045 45.7649 27.3499 45.7366C28.1196 45.2536 28.2944 44.356 28.2799 43.6612C28.3682 43.8402 28.4734 43.9936 28.6026 44.1083C29.0309 44.4878 29.5753 44.4086 29.8966 44.3102C29.9885 44.2829 30.0791 44.2475 30.1678 44.2043C30.1877 44.1933 30.2054 44.1758 30.2195 44.1534C30.2336 44.1311 30.2437 44.1044 30.2489 44.0755C30.2547 44.0458 30.2557 44.0146 30.252 43.9842C30.2482 43.9539 30.2396 43.925 30.2269 43.8996Z" fill="#77B255"/>
<path d="M27.6657 45.0728C27.6332 45.0728 27.602 45.0582 27.5789 45.0321C27.5559 45.0061 27.5427 44.9707 27.5424 44.9337C27.5367 44.2618 27.681 43.9709 27.8644 43.6023C27.924 43.482 27.9889 43.3519 28.0547 43.1933C28.1025 43.0781 28.211 43.0115 28.3207 43.0252C28.9253 43.1051 29.5855 43.5919 29.9671 43.9846C29.9914 44.0096 30.006 44.0446 30.0076 44.0818C30.0093 44.119 29.9979 44.1554 29.976 44.1831C29.9541 44.2108 29.9235 44.2274 29.8908 44.2293C29.8582 44.2312 29.8262 44.2182 29.802 44.1932C29.5165 43.8995 28.8772 43.3817 28.2924 43.3044C28.2086 43.4795 28.1413 43.6153 28.0789 43.7409C27.9075 44.0856 27.7838 44.3346 27.7889 44.9308C27.7891 44.9493 27.7861 44.9676 27.78 44.9847C27.774 45.0019 27.765 45.0175 27.7537 45.0306C27.7424 45.0438 27.7289 45.0543 27.714 45.0616C27.6991 45.0688 27.6831 45.0726 27.6669 45.0728H27.6657Z" fill="#5C913B"/>
<path fill-rule="evenodd" clip-rule="evenodd" d="M27.0401 38.9337C26.402 38.9337 25.8848 39.6007 25.8848 40.4234C25.8847 40.6429 25.9222 40.8597 25.9946 41.0583L25.8872 41.7342C25.8834 41.7584 25.8842 41.7833 25.8897 41.8069C25.8952 41.8305 25.9052 41.852 25.9187 41.8694C25.9322 41.8868 25.9488 41.8996 25.9671 41.9067C25.9854 41.9138 26.0048 41.9149 26.0235 41.91L26.5477 41.7715C26.6972 41.8623 26.8643 41.913 27.0401 41.913C27.6782 41.913 28.1955 41.2462 28.1955 40.4233C28.1955 39.6007 27.6782 38.9336 27.0401 38.9336" fill="#E3E0C0"/>
</svg>
