<svg width="30" height="30" viewBox="0 0 30 30" fill="none" xmlns="http://www.w3.org/2000/svg">
<mask id="path-1-inside-1_956_178" fill="white">
<path d="M16.542 0C18.2294 0.00449989 19.0859 0.0134997 19.8254 0.0344992L20.1163 0.0449989C20.4523 0.0569986 20.7838 0.0719982 21.1843 0.0899977C22.7802 0.164996 23.8691 0.41699 24.8246 0.787481C25.8145 1.16847 26.6485 1.68446 27.4825 2.51694C28.2455 3.26652 28.8357 4.17361 29.2119 5.17487C29.5824 6.13035 29.8343 7.21932 29.9093 8.81679C29.9273 9.21578 29.9423 9.54727 29.9543 9.88476L29.9633 10.1758C29.9858 10.9137 29.9948 11.7702 29.9978 13.4577L29.9993 14.5766V16.5416C30.003 17.6357 29.9915 18.7298 29.9648 19.8235L29.9558 20.1145C29.9438 20.452 29.9288 20.7835 29.9108 21.1825C29.8358 22.7799 29.5809 23.8674 29.2119 24.8244C28.8357 25.8257 28.2455 26.7328 27.4825 27.4823C26.7329 28.2454 25.8258 28.8356 24.8246 29.2118C23.8691 29.5823 22.7802 29.8343 21.1843 29.9093L20.1163 29.9543L19.8254 29.9633C19.0859 29.9843 18.2294 29.9948 16.542 29.9978L15.4231 29.9993H13.4597C12.3651 30.0031 11.2706 29.9916 10.1763 29.9648L9.88535 29.9558C9.52929 29.9423 9.1733 29.9268 8.81741 29.9093C7.22149 29.8343 6.13254 29.5823 5.17559 29.2118C4.17489 28.8354 3.26835 28.2452 2.51923 27.4823C1.75568 26.7329 1.16496 25.8258 0.788314 24.8244C0.417832 23.8689 0.165845 22.7799 0.0908485 21.1825L0.0458508 20.1145L0.0383514 19.8235C0.0107019 18.7298 -0.00179885 17.6357 0.000853152 16.5416V13.4577C-0.00329848 12.3636 0.00770213 11.2695 0.0338516 10.1758L0.044351 9.88476C0.0563504 9.54727 0.0713496 9.21578 0.0893487 8.81679C0.164345 7.21932 0.416332 6.13185 0.786813 5.17487C1.16434 4.1732 1.7561 3.26608 2.52073 2.51694C3.26942 1.75428 4.17542 1.16408 5.17559 0.787481C6.13254 0.41699 7.21999 0.164996 8.81741 0.0899977C9.21639 0.0719982 9.54937 0.0569986 9.88535 0.0449989L10.1763 0.035999C11.2701 0.00934883 12.3641 -0.00215199 13.4582 0.00149985L16.542 0ZM15.0001 7.49982C13.0111 7.49982 11.1035 8.28998 9.69706 9.69646C8.29061 11.103 7.50047 13.0106 7.50047 14.9996C7.50047 16.9887 8.29061 18.8963 9.69706 20.3028C11.1035 21.7093 13.0111 22.4995 15.0001 22.4995C16.9891 22.4995 18.8967 21.7093 20.3031 20.3028C21.7096 18.8963 22.4997 16.9887 22.4997 14.9996C22.4997 13.0106 21.7096 11.103 20.3031 9.69646C18.8967 8.28998 16.9891 7.49982 15.0001 7.49982ZM15.0001 10.4997C15.591 10.4996 16.1762 10.6159 16.7221 10.842C17.2681 11.068 17.7642 11.3994 18.1821 11.8172C18.6 12.235 18.9316 12.731 19.1578 13.2769C19.384 13.8228 19.5005 14.408 19.5006 14.9989C19.5007 15.5898 19.3844 16.175 19.1584 16.721C18.9323 17.267 18.601 17.7631 18.1832 18.181C17.7654 18.5989 17.2694 18.9305 16.7235 19.1567C16.1776 19.3829 15.5925 19.4994 15.0016 19.4995C13.8082 19.4995 12.6636 19.0254 11.8198 18.1815C10.9759 17.3376 10.5018 16.1931 10.5018 14.9996C10.5018 13.8062 10.9759 12.6616 11.8198 11.8177C12.6636 10.9738 13.8082 10.4997 15.0016 10.4997M22.8762 5.24987C22.3789 5.24987 21.9021 5.44741 21.5504 5.79903C21.1988 6.15066 21.0013 6.62756 21.0013 7.12483C21.0013 7.6221 21.1988 8.099 21.5504 8.45062C21.9021 8.80224 22.3789 8.99978 22.8762 8.99978C23.3735 8.99978 23.8503 8.80224 24.202 8.45062C24.5536 8.099 24.7511 7.6221 24.7511 7.12483C24.7511 6.62756 24.5536 6.15066 24.202 5.79903C23.8503 5.44741 23.3735 5.24987 22.8762 5.24987Z"/>
</mask>
<path d="M16.542 0C18.2294 0.00449989 19.0859 0.0134997 19.8254 0.0344992L20.1163 0.0449989C20.4523 0.0569986 20.7838 0.0719982 21.1843 0.0899977C22.7802 0.164996 23.8691 0.41699 24.8246 0.787481C25.8145 1.16847 26.6485 1.68446 27.4825 2.51694C28.2455 3.26652 28.8357 4.17361 29.2119 5.17487C29.5824 6.13035 29.8343 7.21932 29.9093 8.81679C29.9273 9.21578 29.9423 9.54727 29.9543 9.88476L29.9633 10.1758C29.9858 10.9137 29.9948 11.7702 29.9978 13.4577L29.9993 14.5766V16.5416C30.003 17.6357 29.9915 18.7298 29.9648 19.8235L29.9558 20.1145C29.9438 20.452 29.9288 20.7835 29.9108 21.1825C29.8358 22.7799 29.5809 23.8674 29.2119 24.8244C28.8357 25.8257 28.2455 26.7328 27.4825 27.4823C26.7329 28.2454 25.8258 28.8356 24.8246 29.2118C23.8691 29.5823 22.7802 29.8343 21.1843 29.9093L20.1163 29.9543L19.8254 29.9633C19.0859 29.9843 18.2294 29.9948 16.542 29.9978L15.4231 29.9993H13.4597C12.3651 30.0031 11.2706 29.9916 10.1763 29.9648L9.88535 29.9558C9.52929 29.9423 9.1733 29.9268 8.81741 29.9093C7.22149 29.8343 6.13254 29.5823 5.17559 29.2118C4.17489 28.8354 3.26835 28.2452 2.51923 27.4823C1.75568 26.7329 1.16496 25.8258 0.788314 24.8244C0.417832 23.8689 0.165845 22.7799 0.0908485 21.1825L0.0458508 20.1145L0.0383514 19.8235C0.0107019 18.7298 -0.00179885 17.6357 0.000853152 16.5416V13.4577C-0.00329848 12.3636 0.00770213 11.2695 0.0338516 10.1758L0.044351 9.88476C0.0563504 9.54727 0.0713496 9.21578 0.0893487 8.81679C0.164345 7.21932 0.416332 6.13185 0.786813 5.17487C1.16434 4.1732 1.7561 3.26608 2.52073 2.51694C3.26942 1.75428 4.17542 1.16408 5.17559 0.787481C6.13254 0.41699 7.21999 0.164996 8.81741 0.0899977C9.21639 0.0719982 9.54937 0.0569986 9.88535 0.0449989L10.1763 0.035999C11.2701 0.00934883 12.3641 -0.00215199 13.4582 0.00149985L16.542 0ZM15.0001 7.49982C13.0111 7.49982 11.1035 8.28998 9.69706 9.69646C8.29061 11.103 7.50047 13.0106 7.50047 14.9996C7.50047 16.9887 8.29061 18.8963 9.69706 20.3028C11.1035 21.7093 13.0111 22.4995 15.0001 22.4995C16.9891 22.4995 18.8967 21.7093 20.3031 20.3028C21.7096 18.8963 22.4997 16.9887 22.4997 14.9996C22.4997 13.0106 21.7096 11.103 20.3031 9.69646C18.8967 8.28998 16.9891 7.49982 15.0001 7.49982ZM15.0001 10.4997C15.591 10.4996 16.1762 10.6159 16.7221 10.842C17.2681 11.068 17.7642 11.3994 18.1821 11.8172C18.6 12.235 18.9316 12.731 19.1578 13.2769C19.384 13.8228 19.5005 14.408 19.5006 14.9989C19.5007 15.5898 19.3844 16.175 19.1584 16.721C18.9323 17.267 18.601 17.7631 18.1832 18.181C17.7654 18.5989 17.2694 18.9305 16.7235 19.1567C16.1776 19.3829 15.5925 19.4994 15.0016 19.4995C13.8082 19.4995 12.6636 19.0254 11.8198 18.1815C10.9759 17.3376 10.5018 16.1931 10.5018 14.9996C10.5018 13.8062 10.9759 12.6616 11.8198 11.8177C12.6636 10.9738 13.8082 10.4997 15.0016 10.4997M22.8762 5.24987C22.3789 5.24987 21.9021 5.44741 21.5504 5.79903C21.1988 6.15066 21.0013 6.62756 21.0013 7.12483C21.0013 7.6221 21.1988 8.099 21.5504 8.45062C21.9021 8.80224 22.3789 8.99978 22.8762 8.99978C23.3735 8.99978 23.8503 8.80224 24.202 8.45062C24.5536 8.099 24.7511 7.6221 24.7511 7.12483C24.7511 6.62756 24.5536 6.15066 24.202 5.79903C23.8503 5.44741 23.3735 5.24987 22.8762 5.24987Z" fill="#A78F74"/>
<path d="M16.542 0L16.5447 -1L16.5415 -1L16.542 0ZM19.8254 0.0344992L19.8614 -0.96488L19.8537 -0.965098L19.8254 0.0344992ZM20.1163 0.0449989L20.0803 1.04435L20.0806 1.04436L20.1163 0.0449989ZM21.1843 0.0899977L21.2312 -0.908902L21.2292 -0.908994L21.1843 0.0899977ZM24.8246 0.787481L24.4631 1.71984L24.4654 1.72075L24.8246 0.787481ZM27.4825 2.51694L26.776 3.2247L26.7817 3.23029L27.4825 2.51694ZM29.2119 5.17487L28.2757 5.52662L28.2795 5.53639L29.2119 5.17487ZM29.9093 8.81679L30.9083 8.77172L30.9082 8.76989L29.9093 8.81679ZM29.9543 9.88476L30.9539 9.85385L30.9537 9.84923L29.9543 9.88476ZM29.9633 10.1758L30.9629 10.1453L30.9629 10.1448L29.9633 10.1758ZM29.9978 13.4577L30.9978 13.4563L30.9978 13.4559L29.9978 13.4577ZM29.9993 14.5766L30.9993 14.5766L30.9993 14.5753L29.9993 14.5766ZM29.9993 16.5416L28.9993 16.5416L28.9993 16.5449L29.9993 16.5416ZM29.9648 19.8235L30.9644 19.8544L30.9645 19.8479L29.9648 19.8235ZM29.9558 20.1145L30.9552 20.15L30.9554 20.1454L29.9558 20.1145ZM29.9108 21.1825L30.9097 21.2294L30.9098 21.2276L29.9108 21.1825ZM29.2119 24.8244L28.2788 24.4646L28.2758 24.4727L29.2119 24.8244ZM27.4825 27.4823L26.7817 26.769L26.7753 26.7752L26.7691 26.7815L27.4825 27.4823ZM24.8246 29.2118L24.4728 28.2756L24.4631 28.2794L24.8246 29.2118ZM21.1843 29.9093L21.2264 30.9084L21.2312 30.9082L21.1843 29.9093ZM20.1163 29.9543L20.1473 30.9539L20.1584 30.9534L20.1163 29.9543ZM19.8254 29.9633L19.8537 30.9629L19.8563 30.9628L19.8254 29.9633ZM16.542 29.9978L16.5434 30.9978L16.5438 30.9978L16.542 29.9978ZM15.4231 29.9993L15.4231 30.9993L15.4244 30.9993L15.4231 29.9993ZM13.4597 29.9993L13.4597 28.9993L13.4561 28.9993L13.4597 29.9993ZM10.1763 29.9648L10.1454 30.9643L10.1518 30.9645L10.1763 29.9648ZM9.88535 29.9558L9.84751 30.9551L9.85445 30.9553L9.88535 29.9558ZM8.81741 29.9093L8.86656 28.9105L8.86435 28.9104L8.81741 29.9093ZM5.17559 29.2118L5.53665 28.2792L5.52765 28.2758L5.17559 29.2118ZM2.51923 27.4823L3.23272 26.7817L3.22627 26.7751L3.21971 26.7687L2.51923 27.4823ZM0.788314 24.8244L1.72435 24.4723L1.72068 24.4629L0.788314 24.8244ZM0.0908485 21.1825L-0.908277 21.2246L-0.908051 21.2294L0.0908485 21.1825ZM0.0458508 20.1145L-0.953817 20.1403L-0.953607 20.1484L-0.953263 20.1566L0.0458508 20.1145ZM0.0383514 19.8235L-0.961329 19.8488L-0.961317 19.8493L0.0383514 19.8235ZM0.000853152 16.5416L1.00085 16.544V16.5416H0.000853152ZM0.000853152 13.4577L1.00086 13.4577L1.00085 13.4539L0.000853152 13.4577ZM0.0338516 10.1758L-0.965572 10.1397L-0.965863 10.1519L0.0338516 10.1758ZM0.044351 9.88476L1.0437 9.92082L1.04372 9.92029L0.044351 9.88476ZM0.0893487 8.81679L-0.909553 8.76989L-0.909635 8.77172L0.0893487 8.81679ZM0.786813 5.17487L1.71941 5.53592L1.72256 5.52755L0.786813 5.17487ZM2.52073 2.51694L3.22056 3.23124L3.22752 3.22443L3.23434 3.21748L2.52073 2.51694ZM5.17559 0.787481L5.52799 1.72338L5.53664 1.72003L5.17559 0.787481ZM8.81741 0.0899977L8.77234 -0.908988L8.77051 -0.908902L8.81741 0.0899977ZM9.88535 0.0449989L9.85444 -0.954535L9.84966 -0.954364L9.88535 0.0449989ZM10.1763 0.035999L10.152 -0.963726L10.1454 -0.963523L10.1763 0.035999ZM13.4582 0.00149985L13.4548 1.0015L13.4587 1.0015L13.4582 0.00149985ZM15.0001 7.49982L15.0001 6.49982L15.0001 7.49982ZM7.50047 14.9996H6.50047H7.50047ZM15.0001 22.4995V21.4995V22.4995ZM22.4997 14.9996L21.4997 14.9996L22.4997 14.9996ZM15.0016 19.4995L15.0016 20.4995L15.0018 20.4995L15.0016 19.4995ZM16.542 0L16.5394 0.999996C18.2262 1.00449 19.0715 1.01349 19.797 1.0341L19.8254 0.0344992L19.8537 -0.965098C19.1003 -0.986494 18.2327 -0.995495 16.5447 -0.999996L16.542 0ZM19.8254 0.0344992L19.7893 1.03385L20.0803 1.04435L20.1163 0.0449989L20.1524 -0.954351L19.8614 -0.96485L19.8254 0.0344992ZM20.1163 0.0449989L20.0806 1.04436C20.4111 1.05616 20.7377 1.07093 21.1394 1.08899L21.1843 0.0899977L21.2292 -0.908994C20.8299 -0.926937 20.4935 -0.942167 20.152 -0.954364L20.1163 0.0449989ZM21.1843 0.0899977L21.1373 1.0889C22.6398 1.1595 23.6208 1.39323 24.4631 1.71984L24.8246 0.787481L25.1861 -0.144877C24.1175 -0.559246 22.9206 -0.829511 21.2312 -0.9089L21.1843 0.0899977ZM24.8246 0.787481L24.4654 1.72075C25.3309 2.05383 26.0451 2.49504 26.776 3.22467L27.4825 2.51694L28.1889 1.80921C27.252 0.87388 26.2982 0.283114 25.1838 -0.145788L24.8246 0.787481ZM27.4825 2.51694L26.7817 3.23029C27.4408 3.87788 27.9508 4.66156 28.2758 5.5266L29.2119 5.17487L30.148 4.82315C29.7206 3.68566 29.0501 2.65515 28.1833 1.80359L27.4825 2.51694ZM29.2119 5.17487L28.2795 5.53639C28.6061 6.37866 28.8398 7.3596 28.9104 8.86368L29.9093 8.81679L30.9082 8.76989C30.8289 7.07905 30.5586 5.88204 30.1442 4.81335L29.2119 5.17487ZM29.9093 8.81679L28.9104 8.86185C28.9284 9.26193 28.9432 9.58846 28.955 9.92029L29.9543 9.88476L30.9537 9.84923C30.9415 9.50608 30.9263 9.16962 30.9083 8.77172L29.9093 8.81679ZM29.9543 9.88476L28.9548 9.91568L28.9638 10.2067L29.9633 10.1758L30.9629 10.1448L30.9539 9.85385L29.9543 9.88476ZM29.9633 10.1758L28.9638 10.2062C28.9858 10.9286 28.9948 11.7726 28.9978 13.4595L29.9978 13.4577L30.9978 13.4559C30.9948 11.7678 30.9858 10.8988 30.9629 10.1453L29.9633 10.1758ZM29.9978 13.4577L28.9978 13.459L28.9993 14.578L29.9993 14.5766L30.9993 14.5753L30.9978 13.4563L29.9978 13.4577ZM29.9993 14.5766H28.9993V16.5416H29.9993H30.9993V14.5766H29.9993ZM29.9993 16.5416L28.9993 16.5449C29.003 17.6298 28.9916 18.7146 28.9651 19.7992L29.9648 19.8235L30.9645 19.8479C30.9914 18.7449 31.003 17.6416 30.9993 16.5383L29.9993 16.5416ZM29.9648 19.8235L28.9653 19.7926L28.9563 20.0836L29.9558 20.1145L30.9554 20.1454L30.9644 19.8544L29.9648 19.8235ZM29.9558 20.1145L28.9565 20.079C28.9447 20.4108 28.9299 20.7373 28.9119 21.1374L29.9108 21.1825L30.9098 21.2276C30.9278 20.8297 30.943 20.4932 30.9552 20.15L29.9558 20.1145ZM29.9108 21.1825L28.9119 21.1356C28.8414 22.6376 28.6052 23.6181 28.2788 24.4646L29.2119 24.8244L30.1449 25.1842C30.5565 24.1168 30.8303 22.9223 30.9097 21.2294L29.9108 21.1825ZM29.2119 24.8244L28.2758 24.4727C27.9508 25.3377 27.4408 26.1214 26.7817 26.769L27.4825 27.4823L28.1833 28.1957C29.0501 27.3441 29.7206 26.3136 30.148 25.1761L29.2119 24.8244ZM27.4825 27.4823L26.7691 26.7815C26.1215 27.4408 25.3379 27.9507 24.4729 28.2757L24.8246 29.2118L25.1763 30.1479C26.3138 29.7205 27.3443 29.05 28.1958 28.1831L27.4825 27.4823ZM24.8246 29.2118L24.4631 28.2794C23.6208 28.606 22.6398 28.8398 21.1373 28.9104L21.1843 29.9093L21.2312 30.9082C22.9206 30.8288 24.1175 30.5585 25.1861 30.1442L24.8246 29.2118ZM21.1843 29.9093L21.1422 28.9102L20.0742 28.9552L20.1163 29.9543L20.1584 30.9534L21.2264 30.9084L21.1843 29.9093ZM20.1163 29.9543L20.0854 28.9548L19.7944 28.9638L19.8254 29.9633L19.8563 30.9628L20.1473 30.9538L20.1163 29.9543ZM19.8254 29.9633L19.797 28.9637C19.0711 28.9843 18.2253 28.9948 16.5402 28.9978L16.542 29.9978L16.5438 30.9978C18.2336 30.9948 19.1007 30.9843 19.8537 30.9629L19.8254 29.9633ZM16.542 29.9978L16.5407 28.9978L15.4217 28.9993L15.4231 29.9993L15.4244 30.9993L16.5434 30.9978L16.542 29.9978ZM15.4231 29.9993V28.9993H13.4597V29.9993V30.9993H15.4231V29.9993ZM13.4597 29.9993L13.4561 28.9993C12.371 29.0031 11.2858 28.9917 10.2009 28.9651L10.1763 29.9648L10.1518 30.9645C11.2554 30.9916 12.3593 31.0032 13.4632 30.9993L13.4597 29.9993ZM10.1763 29.9648L10.2072 28.9653L9.91626 28.9563L9.88535 29.9558L9.85445 30.9553L10.1454 30.9643L10.1763 29.9648ZM9.88535 29.9558L9.9232 28.9565C9.5709 28.9431 9.21868 28.9278 8.86656 28.9105L8.81741 29.9093L8.76826 30.9081C9.12792 30.9258 9.48767 30.9414 9.84751 30.9551L9.88535 29.9558ZM8.81741 29.9093L8.86435 28.9104C7.36197 28.8398 6.38081 28.6061 5.53664 28.2792L5.17559 29.2118L4.81455 30.1443C5.88427 30.5585 7.08101 30.8288 8.77047 30.9082L8.81741 29.9093ZM5.17559 29.2118L5.52765 28.2758C4.66311 27.9506 3.87992 27.4407 3.23272 26.7817L2.51923 27.4823L1.80573 28.183C2.65679 29.0496 3.68667 29.7201 4.82353 30.1478L5.17559 29.2118ZM2.51923 27.4823L3.21971 26.7687C2.56005 26.1212 2.0497 25.3375 1.7243 24.4724L0.788314 24.8244L-0.147672 25.1764C0.280216 26.3141 0.951313 27.3446 1.81874 28.196L2.51923 27.4823ZM0.788314 24.8244L1.72068 24.4629C1.39409 23.6206 1.16036 22.6397 1.08975 21.1356L0.0908485 21.1825L-0.908051 21.2294C-0.828671 22.9202 -0.55843 24.1172 -0.144051 25.1859L0.788314 24.8244ZM0.0908485 21.1825L1.08996 21.1404L1.04496 20.0724L0.0458508 20.1145L-0.953263 20.1566L-0.908265 21.2246L0.0908485 21.1825ZM0.0458508 20.1145L1.04552 20.0887L1.03802 19.7978L0.0383514 19.8235L-0.961317 19.8493L-0.953817 20.1403L0.0458508 20.1145ZM0.0383514 19.8235L1.03803 19.7982C1.01062 18.7137 0.998221 17.6289 1.00085 16.544L0.000853152 16.5416L-0.999144 16.5392C-1.00182 17.6425 -0.989212 18.7458 -0.961329 19.8488L0.0383514 19.8235ZM0.000853152 16.5416H1.00085V13.4577H0.000853152H-0.999147V16.5416H0.000853152ZM0.000853152 13.4577L1.00085 13.4539C0.996729 12.369 1.00764 11.2842 1.03357 10.1997L0.0338516 10.1758L-0.965863 10.1519C-0.992233 11.2549 -1.00333 12.3582 -0.99914 13.4615L0.000853152 13.4577ZM0.0338516 10.1758L1.0332 10.2118L1.0437 9.92082L0.044351 9.88476L-0.954999 9.8487L-0.965498 10.1397L0.0338516 10.1758ZM0.044351 9.88476L1.04372 9.92029C1.05552 9.58846 1.07028 9.26194 1.08833 8.86185L0.0893487 8.81679L-0.909635 8.77172C-0.927585 9.16961 -0.942817 9.50608 -0.955018 9.84923L0.044351 9.88476ZM0.0893487 8.81679L1.08825 8.86368C1.15885 7.35989 1.39251 6.38019 1.71937 5.5359L0.786813 5.17487L-0.145742 4.81385C-0.559848 5.88351 -0.830158 7.07876 -0.909551 8.76989L0.0893487 8.81679ZM0.786813 5.17487L1.72256 5.52755C2.04872 4.66215 2.55997 3.87845 3.22056 3.23124L2.52073 2.51694L1.82089 1.80263C0.952231 2.6537 0.279954 3.68424 -0.148933 4.8222L0.786813 5.17487ZM2.52073 2.51694L3.23434 3.21748C3.88116 2.55859 4.6639 2.0487 5.52798 1.72334L5.17559 0.787481L4.82321 -0.148374C3.68695 0.279469 2.65767 0.949971 1.80712 1.8164L2.52073 2.51694ZM5.17559 0.787481L5.53664 1.72003C6.3809 1.39317 7.36056 1.1595 8.86431 1.0889L8.81741 0.0899977L8.77051 -0.908902C7.07942 -0.829506 5.88419 -0.559188 4.81455 -0.145068L5.17559 0.787481ZM8.81741 0.0899977L8.86248 1.08898C9.26237 1.07094 9.59058 1.05616 9.92105 1.04436L9.88535 0.0449989L9.84966 -0.954364C9.50817 -0.942167 9.17041 -0.926945 8.77234 -0.908986L8.81741 0.0899977ZM9.88535 0.0449989L9.91627 1.04452L10.2073 1.03552L10.1763 0.035999L10.1454 -0.963523L9.85444 -0.954523L9.88535 0.0449989ZM10.1763 0.035999L10.2007 1.0357C11.2852 1.00928 12.37 0.997873 13.4548 1.00149L13.4582 0.00149985L13.4615 -0.998495C12.3582 -1.00218 11.2549 -0.990579 10.152 -0.963704L10.1763 0.035999ZM13.4582 0.00149985L13.4587 1.0015L16.5425 1L16.542 0L16.5415 -1L13.4577 -0.9985L13.4582 0.00149985ZM15.0001 7.49982L15.0001 6.49982C12.7458 6.49982 10.5839 7.39534 8.98995 8.98937L9.69706 9.69646L10.4042 10.4036C11.6231 9.18461 13.2763 8.49982 15.0001 8.49982L15.0001 7.49982ZM9.69706 9.69646L8.98995 8.98937C7.39596 10.5834 6.50047 12.7454 6.50047 14.9996H7.50047H8.50047C8.50047 13.2758 9.18526 11.6225 10.4042 10.4036L9.69706 9.69646ZM7.50047 14.9996H6.50047C6.50047 17.2539 7.39596 19.4159 8.98995 21.0099L9.69706 20.3028L10.4042 19.5957C9.18526 18.3768 8.50047 16.7235 8.50047 14.9996H7.50047ZM9.69706 20.3028L8.98995 21.0099C10.5839 22.6039 12.7458 23.4995 15.0001 23.4995V22.4995V21.4995C13.2763 21.4995 11.6231 20.8147 10.4042 19.5957L9.69706 20.3028ZM15.0001 22.4995L15.0001 23.4995C17.2543 23.4995 19.4163 22.6039 21.0102 21.0099L20.3031 20.3028L19.596 19.5957C18.3771 20.8147 16.7239 21.4995 15.0001 21.4995L15.0001 22.4995ZM20.3031 20.3028L21.0102 21.0099C22.6042 19.4159 23.4997 17.2539 23.4997 14.9996L22.4997 14.9996L21.4997 14.9996C21.4997 16.7235 20.8149 18.3768 19.596 19.5957L20.3031 20.3028ZM22.4997 14.9996L23.4997 14.9996C23.4997 12.7454 22.6042 10.5834 21.0102 8.98937L20.3031 9.69646L19.596 10.4036C20.8149 11.6225 21.4997 13.2758 21.4997 14.9996L22.4997 14.9996ZM20.3031 9.69646L21.0102 8.98937C19.4163 7.39534 17.2543 6.49982 15.0001 6.49982V7.49982V8.49982C16.7239 8.49982 18.3771 9.18461 19.596 10.4036L20.3031 9.69646ZM15.0001 10.4997L15.0003 11.4997C15.4599 11.4997 15.915 11.5901 16.3396 11.7659L16.7221 10.842L17.1047 9.91805C16.4374 9.64177 15.7222 9.49963 14.9999 9.49975L15.0001 10.4997ZM16.7221 10.842L16.3396 11.7659C16.7642 11.9417 17.1501 12.1995 17.4751 12.5244L18.1821 11.8172L18.8891 11.11C18.3783 10.5994 17.772 10.1943 17.1047 9.91805L16.7221 10.842ZM18.1821 11.8172L17.4751 12.5244C17.8002 12.8494 18.058 13.2351 18.234 13.6597L19.1578 13.2769L20.0816 12.8941C19.8051 12.2269 19.3999 11.6206 18.8891 11.11L18.1821 11.8172ZM19.1578 13.2769L18.234 13.6597C18.4099 14.0843 18.5005 14.5394 18.5006 14.9991L19.5006 14.9989L20.5006 14.9987C20.5005 14.2765 20.3581 13.5613 20.0816 12.8941L19.1578 13.2769ZM19.5006 14.9989L18.5006 14.9991C18.5007 15.4587 18.4102 15.9138 18.2344 16.3385L19.1584 16.721L20.0823 17.1035C20.3586 16.4362 20.5007 15.721 20.5006 14.9987L19.5006 14.9989ZM19.1584 16.721L18.2344 16.3385C18.0586 16.7631 17.8009 17.149 17.476 17.474L18.1832 18.181L18.8904 18.888C19.401 18.3772 19.8061 17.7708 20.0823 17.1035L19.1584 16.721ZM18.1832 18.181L17.476 17.474C17.151 17.7991 16.7653 18.0569 16.3407 18.2329L16.7235 19.1567L17.1064 20.0805C17.7736 19.804 18.3798 19.3988 18.8904 18.888L18.1832 18.181ZM16.7235 19.1567L16.3407 18.2329C15.9161 18.4088 15.461 18.4995 15.0014 18.4995L15.0016 19.4995L15.0018 20.4995C15.724 20.4994 16.4392 20.357 17.1064 20.0805L16.7235 19.1567ZM15.0016 19.4995L15.0016 18.4995C14.0734 18.4995 13.1832 18.1308 12.5269 17.4744L11.8198 18.1815L11.1127 18.8886C12.1441 19.9201 13.543 20.4995 15.0016 20.4995L15.0016 19.4995ZM11.8198 18.1815L12.5269 17.4744C11.8706 16.8181 11.5018 15.9279 11.5018 14.9996H10.5018H9.50182C9.50182 16.4583 10.0813 17.8572 11.1127 18.8886L11.8198 18.1815ZM10.5018 14.9996H11.5018C11.5018 14.0714 11.8706 13.1812 12.5269 12.5248L11.8198 11.8177L11.1127 11.1106C10.0813 12.1421 9.50182 13.541 9.50182 14.9996H10.5018ZM11.8198 11.8177L12.5269 12.5248C13.1832 11.8685 14.0734 11.4997 15.0016 11.4997L15.0016 10.4997L15.0016 9.49975C13.543 9.49975 12.1441 10.0792 11.1127 11.1106L11.8198 11.8177ZM22.8762 5.24987V4.24987C22.1137 4.24987 21.3825 4.55278 20.8433 5.09194L21.5504 5.79903L22.2576 6.50613C22.4216 6.34205 22.6442 6.24987 22.8762 6.24987V5.24987ZM21.5504 5.79903L20.8433 5.09194C20.3042 5.6311 20.0013 6.36235 20.0013 7.12483H21.0013H22.0013C22.0013 6.89277 22.0935 6.67022 22.2576 6.50613L21.5504 5.79903ZM21.0013 7.12483H20.0013C20.0013 7.88731 20.3042 8.61856 20.8433 9.15772L21.5504 8.45062L22.2576 7.74352C22.0935 7.57944 22.0013 7.35689 22.0013 7.12483H21.0013ZM21.5504 8.45062L20.8433 9.15772C21.3825 9.69688 22.1137 9.99978 22.8762 9.99978V8.99978V7.99978C22.6442 7.99978 22.4216 7.90761 22.2576 7.74352L21.5504 8.45062ZM22.8762 8.99978V9.99978C23.6387 9.99978 24.3699 9.69688 24.9091 9.15772L24.202 8.45062L23.4948 7.74352C23.3308 7.90761 23.1082 7.99978 22.8762 7.99978V8.99978ZM24.202 8.45062L24.9091 9.15772C25.4482 8.61856 25.7511 7.8873 25.7511 7.12483H24.7511H23.7511C23.7511 7.35689 23.6589 7.57944 23.4948 7.74352L24.202 8.45062ZM24.7511 7.12483H25.7511C25.7511 6.36235 25.4482 5.6311 24.9091 5.09194L24.202 5.79903L23.4948 6.50613C23.6589 6.67021 23.7511 6.89276 23.7511 7.12483H24.7511ZM24.202 5.79903L24.9091 5.09194C24.3699 4.55277 23.6387 4.24987 22.8762 4.24987V5.24987V6.24987C23.1082 6.24987 23.3308 6.34205 23.4948 6.50613L24.202 5.79903Z" fill="#A78F74" mask="url(#path-1-inside-1_956_178)"/>
</svg>
