<svg width="30" height="30" viewBox="0 0 30 30" fill="none" xmlns="http://www.w3.org/2000/svg">
<mask id="path-1-inside-1_409_112" fill="white">
<path d="M30 3.75C30 1.6875 28.65 0 27 0H3C1.35 0 0 1.6875 0 3.75V26.25C0 28.3125 1.35 30 3 30H27C28.65 30 30 28.3125 30 26.25V3.75ZM27 3.75L15 13.125L3 3.75H27ZM27 26.25H3V7.5L15 16.875L27 7.5V26.25Z"/>
</mask>
<path d="M30 3.75C30 1.6875 28.65 0 27 0H3C1.35 0 0 1.6875 0 3.75V26.25C0 28.3125 1.35 30 3 30H27C28.65 30 30 28.3125 30 26.25V3.75ZM27 3.75L15 13.125L3 3.75H27ZM27 26.25H3V7.5L15 16.875L27 7.5V26.25Z" fill="#A78F74"/>
<path d="M27 3.75L30.0782 7.69012L41.5216 -1.25L27 -1.25V3.75ZM15 13.125L11.9218 17.0651L15 19.47L18.0782 17.0651L15 13.125ZM3 3.75V-1.25H-11.5216L-0.0782202 7.69012L3 3.75ZM27 26.25V31.25H32V26.25H27ZM3 26.25H-2V31.25H3V26.25ZM3 7.5L6.07822 3.55988L-2 -2.75123V7.5H3ZM15 16.875L11.9218 20.8151L15 23.22L18.0782 20.8151L15 16.875ZM27 7.5H32V-2.75123L23.9218 3.55988L27 7.5ZM30 3.75H35C35 0.0248993 32.3949 -5 27 -5V0V5C26.0216 5 25.4263 4.48992 25.2144 4.22504C25.0065 3.96512 25 3.78427 25 3.75H30ZM27 0V-5H3V0V5H27V0ZM3 0V-5C-2.39492 -5 -5 0.0248993 -5 3.75H0H5C5 3.78427 4.99352 3.96512 4.78559 4.22504C4.57369 4.48992 3.97839 5 3 5V0ZM0 3.75H-5V26.25H0H5V3.75H0ZM0 26.25H-5C-5 29.9751 -2.39492 35 3 35V30V25C3.97839 25 4.57369 25.5101 4.78559 25.775C4.99352 26.0349 5 26.2157 5 26.25H0ZM3 30V35H27V30V25H3V30ZM27 30V35C32.3949 35 35 29.9751 35 26.25H30H25C25 26.2157 25.0065 26.0349 25.2144 25.775C25.4263 25.5101 26.0216 25 27 25V30ZM30 26.25H35V3.75H30H25V26.25H30ZM27 3.75L23.9218 -0.190122L11.9218 9.18488L15 13.125L18.0782 17.0651L30.0782 7.69012L27 3.75ZM15 13.125L18.0782 9.18488L6.07822 -0.190122L3 3.75L-0.0782202 7.69012L11.9218 17.0651L15 13.125ZM3 3.75V8.75H27V3.75V-1.25H3V3.75ZM27 26.25V21.25H3V26.25V31.25H27V26.25ZM3 26.25H8V7.5H3H-2V26.25H3ZM3 7.5L-0.0782202 11.4401L11.9218 20.8151L15 16.875L18.0782 12.9349L6.07822 3.55988L3 7.5ZM15 16.875L18.0782 20.8151L30.0782 11.4401L27 7.5L23.9218 3.55988L11.9218 12.9349L15 16.875ZM27 7.5H22V26.25H27H32V7.5H27Z" fill="#A78F74" mask="url(#path-1-inside-1_409_112)"/>
</svg>
