<svg width="30" height="30" viewBox="0 0 30 30" fill="none" xmlns="http://www.w3.org/2000/svg">
<path d="M22.875 7.125L23.3174 7.56738M22.875 7.125V7.75M22.875 7.125L23.3174 7.56738M22.875 7.125V7.75M23.3174 7.56738C23.2002 7.68459 23.0408 7.75 22.875 7.75M23.3174 7.56738C23.4346 7.45017 23.5 7.29076 23.5 7.125C23.5 7.00062 23.4626 6.88029 23.3945 6.77832L23.3174 6.68262C23.2002 6.56541 23.0408 6.5 22.875 6.5C22.7092 6.5 22.5498 6.56541 22.4326 6.68262C22.3154 6.79983 22.25 6.95924 22.25 7.125C22.25 7.29076 22.3154 7.45017 22.4326 7.56738C22.5498 7.68459 22.7092 7.75 22.875 7.75" fill="#A78F74" stroke="#A78F74" stroke-width="5"/>
</svg>
