<svg width="30" height="30" viewBox="0 0 30 30" fill="none" xmlns="http://www.w3.org/2000/svg">
<mask id="path-1-inside-1_409_113" fill="white">
<path d="M5.9 3.33333C6 4.81667 6.25 6.26667 6.65 7.65L4.65 9.65C3.96667 7.65 3.53333 5.53333 3.38333 3.33333H5.9ZM22.3333 23.3667C23.75 23.7667 25.2 24.0167 26.6667 24.1167V26.6C24.4667 26.45 22.35 26.0167 20.3333 25.35L22.3333 23.3667ZM7.5 0H1.66667C0.75 0 0 0.75 0 1.66667C0 17.3167 12.6833 30 28.3333 30C29.25 30 30 29.25 30 28.3333V22.5167C30 21.6 29.25 20.85 28.3333 20.85C26.2667 20.85 24.25 20.5167 22.3833 19.9C22.2183 19.8384 22.0427 19.81 21.8667 19.8167C21.4333 19.8167 21.0167 19.9833 20.6833 20.3L17.0167 23.9667C12.2924 21.5506 8.44944 17.7076 6.03333 12.9833L9.7 9.31667C10.1667 8.85 10.3 8.2 10.1167 7.61667C9.48553 5.69649 9.16483 3.68791 9.16667 1.66667C9.16667 0.75 8.41667 0 7.5 0Z"/>
</mask>
<path d="M5.9 3.33333C6 4.81667 6.25 6.26667 6.65 7.65L4.65 9.65C3.96667 7.65 3.53333 5.53333 3.38333 3.33333H5.9ZM22.3333 23.3667C23.75 23.7667 25.2 24.0167 26.6667 24.1167V26.6C24.4667 26.45 22.35 26.0167 20.3333 25.35L22.3333 23.3667ZM7.5 0H1.66667C0.75 0 0 0.75 0 1.66667C0 17.3167 12.6833 30 28.3333 30C29.25 30 30 29.25 30 28.3333V22.5167C30 21.6 29.25 20.85 28.3333 20.85C26.2667 20.85 24.25 20.5167 22.3833 19.9C22.2183 19.8384 22.0427 19.81 21.8667 19.8167C21.4333 19.8167 21.0167 19.9833 20.6833 20.3L17.0167 23.9667C12.2924 21.5506 8.44944 17.7076 6.03333 12.9833L9.7 9.31667C10.1667 8.85 10.3 8.2 10.1167 7.61667C9.48553 5.69649 9.16483 3.68791 9.16667 1.66667C9.16667 0.75 8.41667 0 7.5 0Z" fill="#A78F74"/>
<path d="M5.9 3.33333L10.8887 2.99702L10.5743 -1.66667H5.9V3.33333ZM6.65 7.65L10.1855 11.1855L12.2734 9.09764L11.4532 6.26111L6.65 7.65ZM4.65 9.65L-0.0814553 11.2666L2.51248 18.8586L8.18553 13.1855L4.65 9.65ZM3.38333 3.33333V-1.66667H-1.96918L-1.60508 3.67345L3.38333 3.33333ZM22.3333 23.3667L23.692 18.5548L20.8842 17.762L18.8126 19.8164L22.3333 23.3667ZM26.6667 24.1167H31.6667V19.446L27.0068 19.1282L26.6667 24.1167ZM26.6667 26.6L26.3265 31.5884L31.6667 31.9525V26.6H26.6667ZM20.3333 25.35L16.8126 21.7997L11.0251 27.539L18.764 30.0973L20.3333 25.35ZM22.3833 19.9L20.6339 24.584L20.7238 24.6175L20.8149 24.6476L22.3833 19.9ZM21.8667 19.8167L21.8667 24.8167H21.9607L22.0547 24.8131L21.8667 19.8167ZM20.6833 20.3L17.2396 16.675L17.1931 16.7191L17.1478 16.7645L20.6833 20.3ZM17.0167 23.9667L14.74 28.4183L17.9794 30.075L20.5522 27.5022L17.0167 23.9667ZM6.03333 12.9833L2.4978 9.4478L-0.0749994 12.0206L1.58173 15.26L6.03333 12.9833ZM10.1167 7.61667L14.8866 6.11753L14.8769 6.08641L14.8667 6.05541L10.1167 7.61667ZM9.16667 1.66667L14.1667 1.6712V1.66667H9.16667ZM5.9 3.33333L0.911323 3.66965C1.03413 5.49121 1.34257 7.29519 1.84677 9.03889L6.65 7.65L11.4532 6.26111C11.1574 5.23814 10.9659 4.14212 10.8887 2.99702L5.9 3.33333ZM6.65 7.65L3.11447 4.11447L1.11447 6.11447L4.65 9.65L8.18553 13.1855L10.1855 11.1855L6.65 7.65ZM4.65 9.65L9.38145 8.03342C8.83848 6.44422 8.49198 4.7566 8.37175 2.99321L3.38333 3.33333L-1.60508 3.67345C-1.42532 6.31007 -0.905147 8.85578 -0.0814553 11.2666L4.65 9.65ZM3.38333 3.33333V8.33333H5.9V3.33333V-1.66667H3.38333V3.33333ZM22.3333 23.3667L20.9747 28.1785C22.7265 28.6732 24.518 28.9818 26.3265 29.1051L26.6667 24.1167L27.0068 19.1282C25.882 19.0516 24.7735 18.8602 23.692 18.5548L22.3333 23.3667ZM26.6667 24.1167H21.6667V26.6H26.6667H31.6667V24.1167H26.6667ZM26.6667 26.6L27.0068 21.6116C25.2447 21.4914 23.5405 21.1441 21.9027 20.6027L20.3333 25.35L18.764 30.0973C21.1595 30.8892 23.6887 31.4086 26.3265 31.5884L26.6667 26.6ZM20.3333 25.35L23.854 28.9003L25.854 26.917L22.3333 23.3667L18.8126 19.8164L16.8126 21.7997L20.3333 25.35ZM7.5 0V-5H1.66667V0V5H7.5V0ZM1.66667 0V-5C-2.01142 -5 -5 -2.01142 -5 1.66667H0H5C5 3.51142 3.51142 5 1.66667 5V0ZM0 1.66667H-5C-5 20.0781 9.92191 35 28.3333 35V30V25C15.4448 25 5 14.5552 5 1.66667H0ZM28.3333 30V35C32.0114 35 35 32.0114 35 28.3333H30H25C25 26.4886 26.4886 25 28.3333 25V30ZM30 28.3333H35V22.5167H30H25V28.3333H30ZM30 22.5167H35C35 18.8386 32.0114 15.85 28.3333 15.85V20.85V25.85C26.4886 25.85 25 24.3614 25 22.5167H30ZM28.3333 20.85V15.85C26.8008 15.85 25.3136 15.6022 23.9517 15.1524L22.3833 19.9L20.8149 24.6476C23.1864 25.4311 25.7325 25.85 28.3333 25.85V20.85ZM22.3833 19.9L24.1328 15.216C23.3489 14.9233 22.5147 14.7887 21.6786 14.8202L21.8667 19.8167L22.0547 24.8131C21.5707 24.8313 21.0877 24.7535 20.6339 24.584L22.3833 19.9ZM21.8667 19.8167L21.8667 14.8167C20.1089 14.8167 18.4707 15.5054 17.2396 16.675L20.6833 20.3L24.1271 23.925C23.5626 24.4612 22.7578 24.8167 21.8667 24.8167L21.8667 19.8167ZM20.6833 20.3L17.1478 16.7645L13.4811 20.4311L17.0167 23.9667L20.5522 27.5022L24.2189 23.8355L20.6833 20.3ZM17.0167 23.9667L19.2933 19.5151C15.5046 17.5774 12.4226 14.4954 10.4849 10.7067L6.03333 12.9833L1.58173 15.26C4.47628 20.9197 9.08027 25.5237 14.74 28.4183L17.0167 23.9667ZM6.03333 12.9833L9.56887 16.5189L13.2355 12.8522L9.7 9.31667L6.16447 5.78113L2.4978 9.4478L6.03333 12.9833ZM9.7 9.31667L13.2355 12.8522C15.077 11.0107 15.6037 8.39895 14.8866 6.11753L10.1167 7.61667L5.3467 9.1158C4.99635 8.00105 5.25631 6.68929 6.16447 5.78113L9.7 9.31667ZM10.1167 7.61667L14.8667 6.05541C14.4016 4.64054 14.1653 3.16054 14.1667 1.6712L9.16667 1.66667L4.16667 1.66213C4.16435 4.21528 4.56945 6.75244 5.36667 9.17792L10.1167 7.61667ZM9.16667 1.66667H14.1667C14.1667 -2.01142 11.1781 -5 7.5 -5V0V5C5.65524 5 4.16667 3.51142 4.16667 1.66667H9.16667Z" fill="#A78F74" mask="url(#path-1-inside-1_409_113)"/>
</svg>
