<svg width="30" height="30" viewBox="0 0 30 30" fill="none" xmlns="http://www.w3.org/2000/svg">
<mask id="mask0_409_106" style="mask-type:luminance" maskUnits="userSpaceOnUse" x="0" y="0" width="30" height="30">
<path d="M27.5 2.5V27.5H2.5V2.5H27.5Z" fill="white" stroke="white" stroke-width="5"/>
</mask>
<g mask="url(#mask0_409_106)">
<mask id="path-2-inside-1_409_106" fill="white">
<path d="M23.625 1.40625H28.2257L18.1757 12.922L30 28.5948H20.7429L13.4871 19.0913L5.19429 28.5948H0.589286L11.3379 16.2734L0 1.40839H9.49286L16.0414 10.0934L23.625 1.40625ZM22.0071 25.8348H24.5571L8.1 4.02268H5.36571L22.0071 25.8348Z"/>
</mask>
<path d="M23.625 1.40625H28.2257L18.1757 12.922L30 28.5948H20.7429L13.4871 19.0913L5.19429 28.5948H0.589286L11.3379 16.2734L0 1.40839H9.49286L16.0414 10.0934L23.625 1.40625ZM22.0071 25.8348H24.5571L8.1 4.02268H5.36571L22.0071 25.8348Z" fill="#A78F74"/>
<path d="M23.625 1.40625V-3.59375H21.3527L19.8583 -1.88193L23.625 1.40625ZM28.2257 1.40625L31.9928 4.69391L39.2257 -3.59375L28.2257 -3.59375V1.40625ZM18.1757 12.922L14.4086 9.63431L11.7394 12.6927L14.1842 15.9333L18.1757 12.922ZM30 28.5948V33.5948H40.0356L33.9915 25.5835L30 28.5948ZM20.7429 28.5948L16.7687 31.629L18.2696 33.5948H20.7429V28.5948ZM13.4871 19.0913L17.4613 16.0571L13.7456 11.1903L9.71979 15.8038L13.4871 19.0913ZM5.19429 28.5948V33.5948H7.46722L8.96164 31.8822L5.19429 28.5948ZM0.589286 28.5948L-3.17855 25.308L-10.4076 33.5948H0.589286V28.5948ZM11.3379 16.2734L15.1057 19.5603L17.788 16.4855L15.3134 13.2411L11.3379 16.2734ZM0 1.40839V-3.59161H-10.102L-3.97559 4.44066L0 1.40839ZM9.49286 1.40839L13.4852 -1.60184L11.9849 -3.59161H9.49286V1.40839ZM16.0414 10.0934L12.0491 13.1036L15.7574 18.0217L19.8081 13.3816L16.0414 10.0934ZM22.0071 25.8348L18.032 28.8677L19.5328 30.8348H22.0071V25.8348ZM24.5571 25.8348V30.8348H34.5931L28.5485 22.8234L24.5571 25.8348ZM8.1 4.02268L12.0914 1.01121L10.591 -0.977321H8.1V4.02268ZM5.36571 4.02268V-0.977321H-4.73805L1.39055 7.05551L5.36571 4.02268ZM23.625 1.40625V6.40625H28.2257V1.40625V-3.59375H23.625V1.40625ZM28.2257 1.40625L24.4586 -1.88141L14.4086 9.63431L18.1757 12.922L21.9429 16.2096L31.9928 4.69391L28.2257 1.40625ZM18.1757 12.922L14.1842 15.9333L26.0085 31.6062L30 28.5948L33.9915 25.5835L22.1672 9.91063L18.1757 12.922ZM30 28.5948V23.5948H20.7429V28.5948V33.5948H30V28.5948ZM20.7429 28.5948L24.717 25.5607L17.4613 16.0571L13.4871 19.0913L9.51299 22.1254L16.7687 31.629L20.7429 28.5948ZM13.4871 19.0913L9.71979 15.8038L1.42693 25.3074L5.19429 28.5948L8.96164 31.8822L17.2545 22.3787L13.4871 19.0913ZM5.19429 28.5948V23.5948H0.589286V28.5948V33.5948H5.19429V28.5948ZM0.589286 28.5948L4.35712 31.8817L15.1057 19.5603L11.3379 16.2734L7.57002 12.9865L-3.17855 25.308L0.589286 28.5948ZM11.3379 16.2734L15.3134 13.2411L3.97559 -1.62388L0 1.40839L-3.97559 4.44066L7.36226 19.3057L11.3379 16.2734ZM0 1.40839V6.40839H9.49286V1.40839V-3.59161H0V1.40839ZM9.49286 1.40839L5.50055 4.41863L12.0491 13.1036L16.0414 10.0934L20.0337 7.08316L13.4852 -1.60184L9.49286 1.40839ZM16.0414 10.0934L19.8081 13.3816L27.3917 4.69443L23.625 1.40625L19.8583 -1.88193L12.2747 6.80521L16.0414 10.0934ZM22.0071 25.8348V30.8348H24.5571V25.8348V20.8348H22.0071V25.8348ZM24.5571 25.8348L28.5485 22.8234L12.0914 1.01121L8.1 4.02268L4.10863 7.03415L20.5658 28.8463L24.5571 25.8348ZM8.1 4.02268V-0.977321H5.36571V4.02268V9.02268H8.1V4.02268ZM5.36571 4.02268L1.39055 7.05551L18.032 28.8677L22.0071 25.8348L25.9823 22.802L9.34088 0.989851L5.36571 4.02268Z" fill="#A78F74" mask="url(#path-2-inside-1_409_106)"/>
</g>
</svg>
