<svg width="30" height="30" viewBox="0 0 30 30" fill="none" xmlns="http://www.w3.org/2000/svg">
<path d="M20.3203 2.5C20.7661 4.2246 21.6651 5.8044 22.9316 7.07129C24.1976 8.33756 25.7766 9.23568 27.5 9.68164V13.7754C26.4908 13.5933 25.5116 13.304 24.5771 12.9102L24.0381 12.6689L23.6074 12.457L20.0039 10.6826V18.75C20.0035 21.0214 19.1199 23.2034 17.541 24.835C15.9639 26.4646 13.816 27.4175 11.5508 27.4932L11.2539 27.499C9.1096 27.5013 7.03866 26.7165 5.43555 25.291C3.83193 23.8651 2.80872 21.8981 2.55957 19.7656C2.31053 17.6333 2.85332 15.4841 4.08496 13.7266C5.06827 12.3234 6.43604 11.2492 8.00977 10.6221V15.2871C7.51409 15.7523 7.1249 16.3176 6.86719 16.9443L6.76367 17.2207C6.50961 17.9673 6.44474 18.7654 6.57617 19.543C6.70767 20.3207 7.03102 21.0541 7.5166 21.6758C8.00217 22.2974 8.63548 22.7877 9.3584 23.1035C10.0812 23.4193 10.8712 23.5505 11.6572 23.4844C12.4435 23.4181 13.2014 23.157 13.8613 22.7246C14.5212 22.2923 15.0628 21.7019 15.4375 21.0078C15.7653 20.4006 15.9566 19.7303 15.999 19.0439L16.0078 18.749V2.5H20.3203Z" fill="#A78F74" stroke="#A78F74" stroke-width="5"/>
</svg>
