<svg width="73" height="73" viewBox="0 0 73 73" fill="none" xmlns="http://www.w3.org/2000/svg">
<path d="M38.2357 44.9854C36.7817 46.2599 35.2368 47.3384 33.6011 48.2207C32.0108 49.1031 30.2387 49.5443 28.2849 49.5443C26.7854 49.5443 25.3996 49.2747 24.1273 48.7354C22.9005 48.2452 21.6964 47.608 20.5151 46.8237C19.3337 46.0394 18.1523 45.1815 16.9709 44.2501C15.7896 43.3678 14.54 42.5344 13.2223 41.7501C11.9046 40.9658 10.4734 40.304 8.92848 39.7648C7.42904 39.2746 5.74785 39.0295 3.88491 39.0295H0V3H5.38435V38.3678C7.61079 38.4658 9.76908 38.9315 11.8592 39.7648C13.9493 40.6472 16.0167 41.5786 18.0614 42.559C20.1516 43.5393 22.219 44.4217 24.2637 45.206C26.3538 45.9903 28.4894 46.3825 30.6704 46.3825C31.988 46.3825 33.2376 46.2599 34.419 46.0148C35.6003 45.8188 36.7817 45.4021 37.9631 44.7648L38.2357 44.9854Z" fill="#E3E0C0"/>
<path d="M72.7864 71.7943C71.6505 71.9414 70.5145 72.0149 69.3786 72.0149C65.7436 72.0149 62.4494 71.1816 59.4959 69.5149C56.5879 67.8482 53.9298 65.6668 51.5216 62.9707C49.1135 60.3237 46.887 57.2845 44.8423 53.8531C42.8431 50.4217 40.9347 46.9413 39.1172 43.4119C37.2997 39.8334 35.5049 36.3775 33.7328 33.0442C31.9608 29.7108 30.1206 26.7697 28.2122 24.2206L28.144 57.0148H27.6669V23.5589C25.7131 21.0098 23.464 18.902 20.9194 17.2353C18.3295 15.5686 15.4442 14.7353 12.2636 14.7353C10.128 14.7353 7.94702 15.0049 5.72058 15.5441L5.51611 15.0294C8.06062 14.3431 10.537 14 12.9452 14C16.2621 14 19.2837 14.5637 22.0099 15.6912C24.7816 16.7696 27.3034 18.2647 29.5753 20.1765C31.8926 22.0392 34.0055 24.2206 35.9138 26.7206C37.8222 29.2206 39.5716 31.8677 41.1619 34.6618C42.7976 37.456 44.2971 40.3236 45.6602 43.2648C47.0688 46.206 48.3865 49.0491 49.6133 51.7942V20.9118H50.1585V52.8972C51.1127 54.809 52.2032 56.8433 53.43 59.0001C54.6568 61.206 56.0427 63.2159 57.5876 65.0296C59.1324 66.8433 60.8591 68.3384 62.7674 69.5149C64.6758 70.7404 66.766 71.3531 69.0378 71.3531C69.674 71.3531 70.2874 71.3286 70.878 71.2796C71.4687 71.2796 72.0821 71.2306 72.7183 71.1325L72.7864 71.7943Z" fill="#E3E0C0"/>
<path d="M25.8299 23.3425L25.8811 23.3646C25.8402 23.5962 25.7277 23.8168 25.5744 23.9822C25.3801 24.1918 25.1041 24.3241 24.7974 24.3241C24.0511 24.3241 23.7035 23.7947 23.7035 23.144V19.2726H22.998V19.2175H23.1923C23.4785 19.2175 23.7035 18.9638 23.7035 18.666V17.9932L24.3987 17.7285V18.1366C24.3987 18.6881 24.0306 19.0851 23.5194 19.2175H25.6255V19.2726H24.3987V23.166C24.3987 23.4638 24.4396 23.7065 24.552 23.8719C24.6645 24.0484 24.8485 24.1477 25.1245 24.1477C25.4721 24.1477 25.7584 23.7506 25.8299 23.3425Z" fill="#E3E0C0"/>
<path d="M20.7958 24.3571C19.9166 24.3571 19.1907 23.9269 18.8738 23.5961L19.3236 23.2211C19.569 23.8497 20.1722 24.3019 20.7958 24.3019C21.5728 24.3019 22.1657 23.7725 22.1657 23.2652C22.1657 22.7137 21.8284 22.5152 21.3376 22.3056L19.7019 21.6108C19.1396 21.3681 18.8738 21.0262 18.8738 20.4968C18.8738 19.8461 19.5894 19.1953 20.7958 19.1953C21.491 19.1953 22.1248 19.3828 22.6462 19.7137L22.2373 20.1328C21.951 19.5924 21.5728 19.2505 20.7958 19.2505C20.0393 19.2505 19.5281 19.6586 19.5179 20.1769C19.5179 20.6402 19.8859 20.8497 20.2948 21.0262L22.0635 21.7762C22.636 22.0189 22.9223 22.3718 22.9223 22.9453C22.9223 23.4968 22.3804 24.3571 20.7958 24.3571Z" fill="#E3E0C0"/>
<path d="M16.0569 18.1953C16.9918 18.1953 17.8193 18.556 18.467 19.2549L18.5803 19.3818C19.1272 20.0268 19.4159 20.8039 19.429 21.6729L19.4426 22.6475L19.6819 22.7773L18.8635 23.6602H18.8645C18.8627 23.6627 18.8595 23.6645 18.8577 23.667C18.7437 23.8392 18.6078 24.0226 18.4446 24.2207C18.194 24.5249 17.8854 24.7716 17.5559 24.9707L17.5549 24.9697C17.0929 25.2536 16.574 25.3574 16.0676 25.3574C15.4825 25.3574 14.918 25.2313 14.4133 24.9355L14.2004 24.7979C13.7532 24.4807 13.4089 24.0779 13.1604 23.6064L13.0598 23.4004C12.8162 22.8602 12.6956 22.2891 12.6956 21.6875V21.6729C12.7095 20.7459 13.0374 19.9239 13.6575 19.2549L13.7805 19.1279C14.4044 18.5153 15.176 18.1954 16.0569 18.1953ZM15.6721 22.7607L15.7375 22.8662L15.7434 22.875L15.8088 22.9658C15.9444 23.1375 16.0616 23.1845 16.1672 23.2002C16.5035 23.1909 16.6377 23.1038 16.6995 23.0439L16.7063 23.0371L16.7131 23.0312C16.8639 22.8903 16.9708 22.7747 17.0442 22.6875H15.635C15.6474 22.7125 15.6589 22.7373 15.6721 22.7607ZM16.0676 20.2393C16.0353 20.2393 15.9517 20.2338 15.8069 20.4102L15.7415 20.4971C15.7122 20.5389 15.6847 20.5844 15.6584 20.6328H16.4758C16.4693 20.6208 16.464 20.6083 16.4573 20.5967L16.3938 20.4971C16.2113 20.2367 16.0986 20.2392 16.0676 20.2393Z" fill="#E3E0C0" stroke="#6D3710" stroke-width="2"/>
<path d="M12.8442 24.1799V16.9336H12.8953V24.3233H12.1286L8.36633 17.077V24.3233H8.32544V16.9336H9.0922L12.8442 24.1799Z" fill="#E3E0C0"/>
<path d="M30.2417 5.95996C31.7956 5.95996 32.634 6.82026 32.634 8.33129V11.0887H31.9388V9.65483C31.7343 10.4931 30.9471 11.1107 29.9248 11.1107C28.8308 11.1107 27.9414 10.2725 27.9414 9.23571C27.9414 8.18791 28.8308 7.34967 29.9248 7.34967C30.988 7.34967 31.7343 7.96732 31.9388 8.80556V8.14379C31.9388 6.77614 31.2845 6.02614 30.3235 6.02614H30.2008C29.1989 6.10334 28.9535 7.15114 28.9535 7.15114L28.473 6.59967C29.1069 5.95996 30.2417 5.95996 30.2417 5.95996ZM29.9248 10.9453C30.0168 10.9563 30.1088 10.9673 30.211 10.9673C31.1107 10.9673 31.8979 10.2173 31.9388 9.346V9.20262C31.8979 8.08864 30.9573 7.49305 30.1906 7.49305C30.119 7.49305 30.0577 7.49305 29.9963 7.50408C29.1989 7.62541 28.657 8.221 28.657 9.23571C28.657 10.2394 29.2909 10.846 29.9248 10.9453Z" fill="#E3E0C0"/>
<path d="M24.4365 5.06152C24.6612 4.989 24.9046 4.94824 25.165 4.94824C26.1516 4.94833 26.992 5.30487 27.541 6.06445C28.0458 6.763 28.1992 7.66263 28.1992 8.55078V12.0879H25.5039V8.55078C25.5039 7.94091 25.4158 7.51216 25.2969 7.27344C25.2439 7.16721 25.2024 7.13426 25.1934 7.12793C25.1893 7.12509 25.1852 7.12308 25.1787 7.12109C25.1724 7.11919 25.1563 7.11523 25.127 7.11426C25.1142 7.11559 25.0971 7.11866 25.0791 7.12012C25.072 7.12069 25.064 7.11956 25.0557 7.12012C25.0077 7.12826 24.8741 7.17606 24.7227 7.41309C24.565 7.65999 24.4366 8.05168 24.4365 8.55078V12.0879H21.752V3.0127L22.3916 2.76562L23.0762 2.50098L24.4365 1.97461V5.06152Z" fill="#E3E0C0" stroke="#6D3710" stroke-width="2"/>
<path d="M22.2779 11.3419C22.5642 11.6286 22.6255 11.9816 22.6255 12.2353C22.6255 12.3014 22.6153 12.3566 22.6153 12.4007C22.5539 12.8639 22.1961 13.1948 21.7361 13.3713C21.3373 13.5257 20.7342 13.636 19.8447 13.636C18.2192 13.636 17.3706 13.1176 17.2377 12.5992C17.2173 12.5331 17.2173 12.4669 17.2173 12.4007C17.2173 12.125 17.3706 11.8051 17.8102 11.6507L18.3419 12.2022C18.1169 12.2242 17.7898 12.3897 17.7694 12.6544V12.6985C17.7694 13.1397 18.2396 13.4375 19.0371 13.5367C19.2824 13.5698 19.5482 13.5809 19.8447 13.5809C20.3559 13.5809 20.4377 13.5809 20.7853 13.5367C20.9897 13.5147 21.6849 13.4264 21.9916 12.897C22.053 12.7867 22.0939 12.6433 22.0939 12.5C22.0939 12.4669 22.0939 12.4228 22.0836 12.3897C22.0019 11.8823 21.3782 11.4853 19.8754 11.2647C18.5361 11.0551 17.5956 10.9338 17.4831 10.3382C17.4729 10.3051 17.4729 10.261 17.4729 10.2279C17.4729 10.0625 17.5342 9.88599 17.7591 9.69849C18.1067 9.41172 18.853 9.26834 19.4971 9.20216C18.5054 9.06981 17.7591 8.39701 17.7591 7.59186C17.7591 6.68745 18.6895 5.9595 19.8447 5.9595C19.9572 5.9595 20.0594 5.9595 20.1616 5.97053C20.223 5.98156 20.2945 5.99259 20.3559 5.99259C20.3968 5.99259 20.4377 5.98156 20.4888 5.98156C20.8875 5.93744 21.4089 5.772 21.7974 5.26465L22.0939 5.91539C22.0939 5.91539 21.8178 6.08083 21.0613 6.08083C20.9182 6.08083 20.7546 6.0698 20.5706 6.05877C21.368 6.29039 21.9405 6.88598 21.9405 7.59186C21.9405 8.47422 21.0306 9.20216 19.8958 9.22422C19.4869 9.25731 18.9348 9.31246 18.485 9.43378C18.3623 9.46687 18.0352 9.58819 18.0352 9.79775V9.81981C18.0352 10.0294 18.1987 10.1838 19.0166 10.3051C20.1923 10.4705 21.5725 10.647 22.2779 11.3419ZM18.4748 7.59186C18.4748 8.46319 19.0882 9.16907 19.8447 9.16907H19.8652C20.6115 9.16907 21.2249 8.46319 21.2249 7.59186C21.2249 6.72053 20.6115 6.01465 19.8447 6.01465C19.0882 6.01465 18.4748 6.72053 18.4748 7.59186Z" fill="#E3E0C0"/>
<path d="M12.5186 8.52925V6.24615L13.2035 5.98145V8.52925C13.2035 9.86381 13.5818 10.9778 14.6041 10.9778C14.645 10.9778 14.6961 10.9668 14.7473 10.9668C15.606 10.8785 16.2706 9.85278 16.2706 8.52925V6.24615L16.9658 5.98145V11.0881H16.2706V9.10278C16.107 10.1947 15.4936 11.1432 14.5428 11.1432C13.0808 11.1432 12.5186 10.1285 12.5186 8.52925Z" fill="#E3E0C0"/>
<path d="M9.02063 3.69824V11.0328H12.149V11.088H8.32544V3.69824H9.02063Z" fill="#E3E0C0"/>
<path d="M33.5679 40.7316C33.5513 40.6814 33.5407 40.5253 33.4835 40.3763C33.4702 40.3504 33.3796 40.1977 33.394 40.2086C33.2493 40.0133 33.1661 39.9255 32.9985 39.7735C32.9265 39.7708 32.8797 39.7636 32.7788 39.5942C32.0805 39.0665 31.159 38.2522 29.8422 38.2423C28.6258 38.2331 27.0315 38.9742 25.909 39.7779C24.89 40.5075 24.9393 40.6291 24.9485 41.5349L25.7811 42.8646C26.0722 43.3291 26.345 43.879 26.7098 44.2585C26.9344 44.4921 27.4341 44.9819 29.4663 45.1674C29.7138 45.19 29.9363 45.1947 30.0796 45.1654C30.8312 45.0113 31.5607 44.1796 31.7615 44.0577C32.7012 43.4869 33.4713 43.0368 33.5728 41.2504C33.5842 41.0777 33.5826 40.9039 33.5679 40.7316Z" fill="#FBEC6C"/>
<path d="M33.6397 41.494C33.5412 41.3177 33.3756 40.7706 33.2581 40.8529C33.2184 40.8227 33.1733 40.8058 33.127 40.8037C33.1082 40.8037 33.0881 40.8129 33.0682 40.8187C32.8811 40.3491 32.5245 39.9867 32.0884 39.791C32.0164 39.7585 31.9543 39.7653 31.9037 39.7961C31.8488 39.7452 31.7941 39.6939 31.7397 39.642C31.6005 39.5088 31.465 39.8053 31.6024 39.9368C31.9097 40.2312 32.0561 40.2613 32.0708 40.7589C32.1317 42.8107 31.9399 44.1821 29.6222 44.1042C28.9696 44.0823 28.0668 43.4634 27.4037 42.7776C27.3286 42.6421 27.2643 42.4977 27.2116 42.3465C27.1531 42.173 26.9516 42.1382 26.8344 42.2222C26.8197 42.2328 26.8118 42.2482 26.7998 42.2604C26.6417 42.1189 26.4715 42.0002 26.2922 41.9066C26.1546 41.8345 25.989 41.9845 25.9531 42.1484C25.9093 42.3479 26.0077 42.5023 26.1456 42.5743C27.1825 43.1171 26.552 43.8463 28.4098 44.4468C28.7536 44.5578 28.607 45.2252 28.2632 45.1142C27.3873 44.831 25.489 43.1502 25.489 43.1502C25.5124 43.183 25.7194 46.8835 29.4448 47.0648C29.546 47.0696 32.7519 47.2937 33.5461 43.39C33.6666 42.7967 34.0393 42.2099 33.6397 41.494Z" fill="#6D3710"/>
<path d="M30.3288 39.5774C27.3956 39.4302 26.8507 41.0646 27.2797 41.7204C27.4128 41.9236 27.5741 42.0452 27.7546 42.1634C28.0554 42.3601 27.8128 42.9729 27.5123 42.7765C26.4538 42.0845 26.4192 40.9044 27.0333 40.1045C26.6587 40.3012 26.5382 39.6229 26.8364 39.4623C27.2518 39.2389 27.6821 39.0958 28.1195 39.005C27.9875 38.9732 27.7539 38.9869 27.7313 38.6525C27.6887 38.0182 28.4031 38.398 28.8998 38.5596C29.2493 38.2747 29.6424 38.2112 30.0527 38.2546C30.3483 38.2856 30.4009 38.6849 30.2186 38.8823C30.7032 38.9042 30.6358 39.5931 30.3288 39.5774Z" fill="#6D3710"/>
<path d="M27.122 44.1724C26.6169 42.9636 26.0817 42.9684 25.7412 42.3109C25.1165 41.1041 26.4489 40.7172 26.214 39.6634C26.1186 39.2368 25.6166 39.4185 25.7122 39.8475C25.785 40.1744 25.3322 40.3554 25.1237 41.2059C25.0302 41.5869 25.0424 42 25.1581 42.37C24.8583 42.4407 24.8988 42.9749 25.1332 43.037C25.3217 43.0869 25.4302 43.1371 25.5843 43.216C25.6525 43.2758 26.2671 43.5518 26.6728 44.5221C26.833 44.905 27.2954 44.587 27.122 44.1724ZM33.7669 40.9576C33.6615 40.6697 33.4841 40.4378 33.2887 40.2403C33.2651 40.1131 33.2386 39.9869 33.2089 39.8619C33.4179 39.7823 33.4787 39.3127 33.2154 39.1969C32.9666 39.0876 32.6835 39.3349 32.6712 39.7608C32.2712 39.4382 31.847 39.172 31.4055 38.9663C31.093 38.8208 30.9194 39.4735 31.2545 39.6293C32.2115 40.0747 31.722 41.29 30.9024 41.9379C30.2642 42.3047 29.5755 42.3853 28.9621 42.1053C28.6836 41.9782 28.4736 42.6097 28.8513 42.7822C29.6878 43.1641 30.6986 42.8967 31.4727 42.316C31.9109 41.9871 32.3204 41.0543 32.2389 40.3903C32.2258 40.2847 32.314 40.213 32.3794 40.2711C32.6033 40.4695 32.8112 40.7486 32.801 40.8726C32.7471 41.5301 32.6948 41.8535 32.1789 42.3594C32.073 42.4632 32.0053 42.6623 32.0479 42.8447C32.0863 43.0094 32.2315 43.118 32.3489 43.034C32.5861 42.8642 32.8143 42.6415 32.9961 42.2904C33.1846 41.9355 33.2064 41.5803 33.2787 41.2131C33.3913 41.47 33.4246 41.8006 33.3261 42.1688C33.2774 42.3508 33.3736 42.5629 33.499 42.5892C33.9482 42.7057 33.9836 41.5495 33.7669 40.9576ZM30.6576 43.5265C30.557 42.8393 29.549 43.7687 28.6449 43.0135C28.3382 42.7573 28.0759 43.3554 28.349 43.5835C28.9867 44.1164 29.7365 44.0395 30.4522 43.9333C30.5919 43.9121 30.6829 43.6993 30.6576 43.5265Z" fill="#6D3710"/>
<path d="M29.0217 38.6834C29.026 38.6585 29.0258 38.6327 29.0211 38.6079L29.0203 38.6055C29.0192 38.6004 29.0165 38.5963 29.0148 38.5915C29.0092 38.5716 29.0006 38.5532 28.9896 38.5372C28.9876 38.5348 28.9874 38.531 28.9855 38.5287C27.9238 37.1955 27.1685 37.5665 26.8059 37.7444C26.7564 37.7687 26.7148 37.7899 26.6802 37.8008C26.6604 37.807 26.642 37.8187 26.6264 37.835C26.6107 37.8513 26.5981 37.8719 26.5896 37.8951C26.5811 37.9184 26.5768 37.9437 26.5772 37.9693C26.5775 37.9949 26.5824 38.0201 26.5915 38.043C26.5959 38.0535 26.9057 38.7992 27.7013 38.9734C27.608 39.1708 27.5275 39.4106 27.4611 39.6961C27.4519 39.7358 27.4545 39.7783 27.4683 39.8158C27.4822 39.8533 27.5064 39.8832 27.5365 39.9C27.6195 39.946 27.7053 39.969 27.7938 39.969C28.1779 39.969 28.6058 39.54 29.0042 38.7404C29.01 38.7288 29.0121 38.7155 29.0154 38.7028C29.0168 38.6977 29.0203 38.6943 29.0211 38.6888C29.0222 38.6868 29.0214 38.6851 29.0217 38.6834Z" fill="#77B255"/>
<path d="M27.3211 38.9371C27.1584 38.8271 26.9743 38.7021 26.6737 38.5764C26.6563 38.5698 26.6401 38.5588 26.6262 38.5442C26.6122 38.5296 26.6007 38.5116 26.5923 38.4914C26.584 38.4711 26.579 38.4489 26.5776 38.4261C26.5762 38.4034 26.5784 38.3805 26.5842 38.3588C26.5899 38.3372 26.5991 38.3172 26.6111 38.3C26.6232 38.2829 26.6378 38.269 26.6542 38.2591C26.6706 38.2492 26.6884 38.2435 26.7065 38.2424C26.7247 38.2413 26.7429 38.2448 26.7599 38.2526C27.0828 38.3879 27.2868 38.5255 27.4503 38.6365C27.552 38.7055 27.6407 38.7646 27.7386 38.8117C27.7092 38.8216 27.6788 38.8264 27.6502 38.8411C27.57 38.8822 27.4956 38.939 27.4296 39.0095C27.3932 38.9858 27.3571 38.9617 27.3211 38.9371ZM27.6619 39.8347C27.7631 39.4535 27.9878 39.2684 28.3487 39.2684C28.3848 39.2684 28.4194 39.2504 28.4449 39.2184C28.4704 39.1864 28.4847 39.1429 28.4847 39.0976C28.4847 39.0523 28.4704 39.0089 28.4449 38.9769C28.4194 38.9448 28.3848 38.9268 28.3487 38.9268C27.8692 38.9268 27.5425 39.2035 27.4035 39.7268C27.3921 39.7698 27.3948 39.8168 27.4109 39.8573C27.4271 39.8979 27.4555 39.9287 27.4897 39.943C27.524 39.9573 27.5614 39.9539 27.5937 39.9336C27.626 39.9133 27.6505 39.8777 27.6619 39.8347Z" fill="#5C913B"/>
<path d="M33.347 43.8996C32.8674 43.0611 31.9238 41.7799 30.993 42.6113C30.9712 42.632 30.9544 42.6599 30.9443 42.6919C30.8954 42.6762 30.8435 42.6836 30.7986 42.7127C30.3187 43.0266 29.5993 43.2503 29.9213 45.5914C29.9298 45.6536 29.9643 45.7072 30.0141 45.7359C30.0639 45.7646 30.1229 45.7649 30.1729 45.7366C31.0221 45.2536 31.215 44.356 31.1989 43.6612C31.2963 43.8402 31.4125 43.9936 31.555 44.1083C32.0275 44.4878 32.6281 44.4086 32.9825 44.3102C33.0839 44.2829 33.1839 44.2475 33.2817 44.2043C33.3037 44.1933 33.3232 44.1758 33.3388 44.1534C33.3543 44.1311 33.3654 44.1044 33.3712 44.0755C33.3776 44.0458 33.3787 44.0146 33.3746 43.9842C33.3704 43.9539 33.361 43.925 33.347 43.8996Z" fill="#77B255"/>
<path d="M30.5212 45.0728C30.4854 45.0728 30.451 45.0582 30.4255 45.0321C30.4 45.0061 30.3855 44.9707 30.3852 44.9337C30.3789 44.2618 30.538 43.9709 30.7404 43.6023C30.8062 43.482 30.8778 43.3519 30.9504 43.1933C31.0032 43.0781 31.1228 43.0115 31.2439 43.0252C31.9108 43.1051 32.6392 43.5919 33.0602 43.9846C33.087 44.0096 33.1031 44.0446 33.1049 44.0818C33.1067 44.119 33.0942 44.1554 33.07 44.1831C33.0459 44.2108 33.0121 44.2274 32.976 44.2293C32.94 44.2312 32.9048 44.2182 32.878 44.1932C32.563 43.8995 31.8578 43.3817 31.2126 43.3044C31.1201 43.4795 31.0459 43.6153 30.977 43.7409C30.788 44.0856 30.6515 44.3346 30.6572 44.9308C30.6574 44.9493 30.654 44.9676 30.6474 44.9847C30.6407 45.0019 30.6308 45.0175 30.6183 45.0306C30.6058 45.0438 30.5909 45.0543 30.5745 45.0616C30.5581 45.0688 30.5404 45.0726 30.5225 45.0728H30.5212Z" fill="#5C913B"/>
<path fill-rule="evenodd" clip-rule="evenodd" d="M29.8313 38.9337C29.1273 38.9337 28.5566 39.6007 28.5566 40.4234C28.5565 40.6429 28.5979 40.8597 28.6779 41.0583L28.5593 41.7342C28.5551 41.7584 28.5561 41.7833 28.5621 41.8069C28.5682 41.8305 28.5792 41.852 28.5941 41.8694C28.609 41.8868 28.6273 41.8996 28.6475 41.9067C28.6677 41.9138 28.6891 41.9149 28.7097 41.91L29.288 41.7715C29.453 41.8623 29.6373 41.913 29.8313 41.913C30.5353 41.913 31.1059 41.2462 31.1059 40.4233C31.1059 39.6007 30.5353 38.9336 29.8313 38.9336" fill="#E3E0C0"/>
</svg>
