<svg width="152" height="52" viewBox="0 0 152 52" fill="none" xmlns="http://www.w3.org/2000/svg">
<path d="M11.4167 51C16.9421 51 22.2411 48.3661 26.1481 43.6777C30.0551 38.9893 32.2501 32.6304 32.2501 26C32.2501 19.3696 30.0551 13.0107 26.1481 8.32233C22.2411 3.63392 16.9421 1 11.4167 1" stroke="#E3E0C0" stroke-width="2" stroke-linecap="round" stroke-linejoin="round"/>
<path d="M11.4167 1C11.4167 7.63041 13.6117 13.9893 17.5187 18.6777C21.4257 23.3661 26.7247 26 32.2501 26C29.5142 26 26.8051 26.6466 24.2775 27.903C21.7499 29.1594 19.4532 31.0009 17.5187 33.3223C15.5841 35.6438 14.0496 38.3998 13.0026 41.4329C11.9556 44.4661 11.4167 47.717 11.4167 51" stroke="#E3E0C0" stroke-width="2" stroke-linecap="round" stroke-linejoin="round"/>
<path d="M16.625 18.5247C13.726 18.351 10.8298 18.9287 8.13358 20.2186C5.43733 21.5085 3.00428 23.4803 1 25.9997C3.00428 28.5191 5.43733 30.4909 8.13358 31.7808C10.8298 33.0707 13.726 33.6484 16.625 33.4747" stroke="#E3E0C0" stroke-width="2" stroke-linecap="round" stroke-linejoin="round"/>
<path d="M140.583 1C135.058 1 129.759 3.63392 125.852 8.32233C121.945 13.0107 119.75 19.3696 119.75 26C119.75 32.6304 121.945 38.9893 125.852 43.6777C129.759 48.3661 135.058 51 140.583 51" stroke="#E3E0C0" stroke-width="2" stroke-linecap="round" stroke-linejoin="round"/>
<path d="M140.583 51C140.583 44.3696 138.388 38.0107 134.481 33.3223C130.574 28.6339 125.275 26 119.75 26C122.486 26 125.195 25.3534 127.722 24.097C130.25 22.8406 132.547 20.9991 134.481 18.6777C136.416 16.3562 137.95 13.6002 138.997 10.5671C140.044 7.53395 140.583 4.28305 140.583 1" stroke="#E3E0C0" stroke-width="2" stroke-linecap="round" stroke-linejoin="round"/>
<path d="M135.375 33.4753C138.274 33.649 141.17 33.0713 143.866 31.7814C146.563 30.4915 148.996 28.5197 151 26.0003C148.996 23.4809 146.563 21.5091 143.866 20.2192C141.17 18.9293 138.274 18.3516 135.375 18.5253" stroke="#E3E0C0" stroke-width="2" stroke-linecap="round" stroke-linejoin="round"/>
<path d="M112.458 19C113.674 19 114.714 19.4643 115.598 20.4326L115.772 20.6328C116.696 21.741 117.167 23.1031 117.167 24.75C117.167 26.2939 116.753 27.5875 115.94 28.6562L115.772 28.8672C114.852 29.9717 113.755 30.5 112.458 30.5C111.622 30.4999 110.857 30.2617 110.155 29.7744L109.857 29.5498C109.063 28.9012 108.491 28.0827 108.139 27.084L108.021 26.75H76.5V22.75H108.021L108.139 22.416C108.447 21.5419 108.923 20.8061 109.57 20.2012L109.857 19.9502C110.64 19.3115 111.502 19.0001 112.458 19Z" fill="#E3E0C0" stroke="#E3E0C0"/>
<path d="M39.542 30.5C38.3258 30.5 37.286 30.0357 36.4023 29.0674L36.2275 28.8672C35.3042 27.759 34.833 26.3969 34.833 24.75L34.8389 24.4443C34.8903 23.0345 35.3013 21.8412 36.0596 20.8437L36.2275 20.6328C37.148 19.5283 38.2448 19 39.542 19C40.3785 19.0001 41.1425 19.2383 41.8447 19.7256L42.1426 19.9502C42.9374 20.5988 43.5091 21.4173 43.8613 22.416L43.9795 22.75L75.5 22.75V26.75L43.9795 26.75L43.8613 27.084C43.5531 27.9581 43.0766 28.6939 42.4297 29.2988L42.1426 29.5498C41.3599 30.1885 40.4981 30.4999 39.542 30.5Z" fill="#E3E0C0" stroke="#E3E0C0"/>
</svg>
