<svg width="1280" height="971" viewBox="0 0 1280 971" fill="none" xmlns="http://www.w3.org/2000/svg">
<path d="M1264.73 970.388H15.2684C6.87078 970.388 0 963.752 0 955.642V897.888C0 889.778 6.87078 883.143 15.2684 883.143H1264.73C1273.13 883.143 1280 889.778 1280 897.888V955.642C1280 963.752 1273.13 970.388 1264.73 970.388Z" fill="#F7F7F7"/>
<path d="M659.085 904.032C893.789 904.032 1084.06 720.28 1084.06 493.611C1084.06 266.942 893.789 83.1904 659.085 83.1904C424.38 83.1904 234.115 266.942 234.115 493.611C234.115 720.28 424.38 904.032 659.085 904.032Z" fill="#F3FAFF"/>
<path opacity="0.31" d="M1176.94 783.486C1185.97 761.244 1195.13 736.545 1186.61 714.181C1184.57 708.774 1181.39 702.999 1183.3 697.469C1185.84 689.974 1196.02 687.393 1199.33 680.266C1203.15 672.402 1197.17 663.309 1198.7 654.83C1200.22 646.228 1209 640.576 1217.53 637.504C1226.05 634.432 1235.34 632.466 1242.21 626.813C1255.32 615.754 1253.79 595.97 1250.86 579.258C1247.94 562.669 1245.77 543.009 1258.37 531.335C1235.21 535.636 1211.55 540.059 1191.44 551.856C1171.34 563.653 1155.31 584.542 1156.45 607.275C1157.09 618.703 1161.67 630.868 1156.33 640.944C1150.47 651.881 1134.82 656.182 1130.88 667.855C1126.3 681.249 1139.91 693.537 1145.26 706.685C1150.35 719.096 1147.93 732.982 1149.07 746.13C1150.22 759.401 1157.34 774.393 1170.96 776.359L1176.94 783.486Z" fill="white"/>
<path d="M1123.12 778.08C1109.38 753.258 1095.12 725.61 1101.87 698.207C1103.52 691.572 1106.32 684.445 1103.4 678.178C1099.45 669.822 1087.11 667.979 1082.15 660.114C1076.68 651.513 1082.27 639.962 1079.22 630.254C1076.17 620.301 1065.1 615.017 1054.79 612.437C1044.48 609.979 1033.29 608.996 1024.38 603.098C1007.46 591.916 1006.44 568.446 1007.46 548.662C1008.48 528.878 1008.22 505.531 991.809 493.611C1019.55 495.577 1047.92 497.666 1073.11 508.849C1098.31 520.031 1120.19 542.395 1121.97 569.183C1122.86 582.577 1119.17 597.445 1126.93 608.627C1135.33 620.67 1154.29 623.619 1160.65 636.767C1167.9 651.881 1153.78 667.979 1149.33 684.076C1145.26 699.19 1149.96 715.165 1150.47 730.771C1150.98 746.377 1144.75 764.931 1129.1 769.109L1123.12 778.08Z" fill="#FFBE55"/>
<path d="M1129.86 742.691C1120.95 666.873 1086.6 510.201 992.827 494.104" stroke="white" stroke-width="0.75" stroke-miterlimit="10" stroke-linecap="round"/>
<path d="M1210.02 923.693H1089.15C1080.75 923.693 1073.88 917.058 1073.88 908.947L1063.7 740.601C1063.7 732.491 1070.57 725.855 1078.97 725.855H1220.2C1228.6 725.855 1235.47 732.491 1235.47 740.601L1225.29 908.947C1225.29 917.058 1218.42 923.693 1210.02 923.693Z" fill="#6D3710"/>
<path d="M113.935 389.043L191.93 377.622L244.957 715.369L166.962 726.79L113.935 389.043Z" fill="#FFBE55"/>
<path d="M192 377.98L114.004 389.408L132.326 344.065L142.759 318.506L160.572 340.01L192 377.98Z" fill="#FFEBC2"/>
<path d="M293.981 303.723L333.267 307.12L301.718 647.361L262.433 643.964L293.981 303.723Z" fill="#FFBE55"/>
<path d="M384.891 924.923H74.943L34.3545 461.663H409.702L384.891 924.923Z" fill="#6D3710"/>
<path d="M293.408 794.177V898.748H1119.68V906.612C1119.68 916.32 1110.9 924.184 1100.09 924.184H296.97C271.396 924.184 250.656 905.752 250.656 882.896V812.977C250.656 790.122 271.396 771.689 296.97 771.689H1100.09C1110.9 771.689 1119.68 779.554 1119.68 789.261V794.299H293.408V794.177Z" fill="#FFBE55"/>
<path d="M391.889 666.873H1031.89V757.805H391.889V666.873Z" fill="#6D3710"/>
<path d="M668.501 357.338C659.722 346.156 658.958 330.796 667.229 319.122C673.845 309.783 678.298 298.232 677.789 289.753C676.771 274.516 666.974 260.508 653.614 252.152C636.056 241.093 612.644 239.495 593.686 248.097C574.728 256.699 560.986 275.131 558.569 295.16C556.787 309.537 560.223 325.266 552.589 337.8C546.99 346.77 536.684 352.054 526.505 355.617C516.199 359.058 505.384 361.393 495.968 366.677C486.553 371.961 478.537 381.054 478.664 391.621C478.791 399.609 483.499 406.982 484.008 414.846C484.771 426.397 476.374 436.596 467.467 444.214C458.433 451.833 448.127 458.468 442.02 468.422C431.968 484.888 436.676 507.129 449.4 521.875C462.123 536.62 481.209 544.853 500.294 549.646C552.461 562.917 607.428 554.315 661.249 553.455C677.917 553.209 694.966 553.701 711.125 549.646C727.284 545.591 743.062 536.252 749.805 521.506C756.676 506.76 753.241 488.82 744.08 475.426C734.919 462.032 720.541 452.324 705.4 445.443C694.457 440.405 682.752 436.473 673.845 428.608C664.938 420.744 659.722 407.35 665.702 397.151C667.992 393.219 671.809 390.147 673.972 386.215C678.298 378.596 676.517 368.889 671.682 361.516C670.791 360.287 669.773 358.935 668.501 357.338Z" fill="#6D3710"/>
<path d="M680.717 578.397L759.603 632.465L856.303 825.387H838.49L730.339 654.583C730.339 654.583 693.44 655.812 680.717 644.753C667.993 633.694 594.832 585.77 594.832 585.77L680.717 578.397Z" fill="white"/>
<path d="M541.137 562.915C526.76 600.516 536.938 653.355 585.288 655.813C633.638 658.27 648.907 655.813 648.907 655.813L743.062 840.133H764.692L690.895 633.694L601.193 585.771L541.137 562.915Z" fill="#6D3710"/>
<path d="M614.553 348.612C627.277 364.587 657.814 408.824 669.265 457.976C680.716 507.128 712.525 578.399 712.525 578.399H675.627L640 461.662L606.919 352.299L614.553 348.612Z" fill="#FBEC6C"/>
<path d="M653.741 283.362C655.65 313.468 642.036 334.112 622.569 335.095C603.101 336.078 590.378 308.799 596.231 283.362C609.845 260.752 628.421 258.909 628.421 258.909H640.127L653.741 283.362Z" fill="#FFE3CA"/>
<path d="M616.716 331.532C612.644 346.77 613.917 362.744 613.917 365.202C610.1 370.117 592.286 368.888 589.742 351.685C593.559 329.566 601.193 304.99 601.193 304.99L607.555 318.507L616.716 331.532Z" fill="#FFE3CA"/>
<path d="M592.286 338.659C576.382 343.697 522.942 367.045 520.397 371.96C524.215 385.477 543.3 585.772 543.3 585.772H629.821C629.821 585.772 618.37 475.179 624.731 467.807C631.093 460.434 651.451 434.629 648.906 430.942C646.362 427.256 614.044 347.998 614.044 347.998L592.286 338.659Z" fill="#6D3710"/>
<path d="M520.399 371.959C507.929 381.175 455.508 464.119 472.049 508.356C488.589 552.593 542.665 578.644 542.665 578.644V554.314C542.665 554.314 498.768 520.644 501.313 496.068C503.858 471.492 534.395 421.111 534.395 421.111L520.399 371.959Z" fill="#6D3710"/>
<path d="M725.376 599.903H538.083C532.231 599.903 527.396 595.234 527.396 589.581L522.306 473.828C522.306 468.175 527.141 463.506 532.994 463.506H727.92C733.773 463.506 738.608 468.175 738.608 473.828L736.064 589.581C736.064 595.234 731.229 599.903 725.376 599.903Z" fill="#FFBE55"/>
<path d="M631.093 550.137C641.634 550.137 650.179 541.884 650.179 531.705C650.179 521.525 641.634 513.272 631.093 513.272C620.553 513.272 612.008 521.525 612.008 531.705C612.008 541.884 620.553 550.137 631.093 550.137Z" fill="white"/>
<path d="M463.141 793.439L438.966 779.923L414.791 793.439V707.423H463.141V793.439ZM837.98 284.1C837.98 286.434 837.089 288.523 835.562 290.244C837.089 291.841 837.98 294.053 837.98 296.388V304.006C837.98 305.604 837.471 307.201 836.707 308.553C837.471 309.905 837.98 311.502 837.98 313.099V320.718C837.98 325.756 833.781 329.811 828.564 329.811H746.624C741.407 329.811 737.209 325.756 737.209 320.718V312.977C737.209 311.379 737.717 309.782 738.481 308.43C737.717 307.078 737.209 305.481 737.209 303.883V296.265C737.209 293.93 738.099 291.841 739.626 290.121C738.099 288.523 737.209 286.312 737.209 283.977V276.358C737.209 271.32 741.407 267.265 746.624 267.265H828.564C833.781 267.265 837.98 271.32 837.98 276.358V284.1ZM903.379 111.821C903.379 156.181 876.66 194.397 837.98 212.583V253.871C837.98 256.943 835.308 259.524 832.127 259.524H743.061C739.88 259.524 737.209 256.943 737.209 253.871V212.583C698.529 194.52 671.809 156.181 671.809 111.821C671.809 50.0124 723.594 0 787.594 0C851.594 0 903.379 50.1352 903.379 111.821Z" fill="#FFBE55"/>
<path d="M603.738 220.817C621.657 220.817 636.183 206.788 636.183 189.482C636.183 172.176 621.657 158.147 603.738 158.147C585.819 158.147 571.292 172.176 571.292 189.482C571.292 206.788 585.819 220.817 603.738 220.817Z" fill="#FFBE55"/>
<path d="M903.38 331.408C916.731 331.408 927.554 320.956 927.554 308.061C927.554 295.167 916.731 284.714 903.38 284.714C890.028 284.714 879.205 295.167 879.205 308.061C879.205 320.956 890.028 331.408 903.38 331.408Z" fill="#FFBE55"/>
<path opacity="0.14" d="M463.141 793.439L438.966 779.922L414.791 793.439V707.423H463.141V793.439Z" fill="#0C0C0C"/>
</svg>
