<svg width="30" height="30" viewBox="0 0 30 30" fill="none" xmlns="http://www.w3.org/2000/svg">
<path d="M1.66699 1.5H7.5C7.54104 1.5 7.58153 1.51528 7.61621 1.5498C7.63366 1.56725 7.64608 1.58675 7.6543 1.60645L7.66699 1.66699C7.6652 3.84069 8.00881 6.00081 8.68555 8.06641C8.6982 8.10667 8.69771 8.14203 8.69141 8.16895C8.68576 8.19283 8.6732 8.22223 8.63965 8.25586L4.20117 12.6943L4.69824 13.666C7.25788 18.6709 11.3291 22.7421 16.334 25.3018L17.3057 25.7988L21.7168 21.3877C21.7805 21.3272 21.8303 21.3165 21.8662 21.3164H21.8887L21.9131 21.3242C23.931 21.9908 26.1063 22.3496 28.333 22.3496C28.3742 22.3496 28.4154 22.3656 28.4502 22.4004C28.4847 22.4351 28.5 22.4756 28.5 22.5166V28.333C28.5 28.3742 28.485 28.4154 28.4502 28.4502C28.4154 28.485 28.3742 28.5 28.333 28.5C13.5117 28.4998 1.50018 16.4883 1.5 1.66699C1.5 1.62582 1.51505 1.58456 1.5498 1.5498C1.58456 1.51505 1.62582 1.5 1.66699 1.5ZM1.88672 3.43555C2.04566 5.76639 2.50509 8.01164 3.23047 10.1348L4.00879 12.4121L5.71094 10.7109L7.71094 8.71094L8.33691 8.08398L8.09082 7.2334C7.72208 5.95817 7.48964 4.61429 7.39648 3.23242L7.30273 1.83301H1.77734L1.88672 3.43555ZM28.167 22.7158L26.7686 22.6201C25.4046 22.5271 24.0572 22.2944 22.7412 21.9229L21.8984 21.6855L21.2773 22.3018L19.2773 24.2852L17.541 26.0068L19.8623 26.7744C21.9926 27.4786 24.2332 27.9377 26.5645 28.0967L28.167 28.2061V22.7158Z" fill="#A78F74" stroke="#E3E0C0" stroke-width="3"/>
</svg>
