<svg width="46" height="44" viewBox="0 0 46 44" fill="none" xmlns="http://www.w3.org/2000/svg">
<g clip-path="url(#paint0_diamond_330_203_clip_path)" data-figma-skip-parse="true"><g transform="matrix(0 0.0218683 -0.0228876 0 22.8876 21.8683)"><rect x="0" y="0" width="1045.73" height="1043.69" fill="url(#paint0_diamond_330_203)" opacity="1" shape-rendering="crispEdges"/><rect x="0" y="0" width="1045.73" height="1043.69" transform="scale(1 -1)" fill="url(#paint0_diamond_330_203)" opacity="1" shape-rendering="crispEdges"/><rect x="0" y="0" width="1045.73" height="1043.69" transform="scale(-1 1)" fill="url(#paint0_diamond_330_203)" opacity="1" shape-rendering="crispEdges"/><rect x="0" y="0" width="1045.73" height="1043.69" transform="scale(-1)" fill="url(#paint0_diamond_330_203)" opacity="1" shape-rendering="crispEdges"/></g></g><path d="M15.0759 13.2041L1.7842 15.1312L1.54879 15.1791C1.19241 15.2737 0.867528 15.4612 0.607314 15.7224C0.3471 15.9837 0.160879 16.3093 0.0676675 16.666C-0.0255436 17.0228 -0.0224052 17.3979 0.0767622 17.753C0.17593 18.1081 0.367573 18.4306 0.632121 18.6874L10.2613 28.0604L7.99046 41.2999L7.96337 41.5291C7.94156 41.8977 8.01809 42.2655 8.18514 42.5947C8.35219 42.924 8.60375 43.203 8.91407 43.4031C9.22439 43.6032 9.58231 43.7172 9.95118 43.7335C10.3201 43.7498 10.6866 43.6677 11.0134 43.4958L22.9009 37.2458L34.7613 43.4958L34.9696 43.5916C35.3135 43.7271 35.6872 43.7686 36.0524 43.7119C36.4177 43.6553 36.7612 43.5025 37.0479 43.2692C37.3346 43.036 37.5541 42.7307 37.6839 42.3846C37.8136 42.0385 37.849 41.6642 37.7863 41.2999L35.5134 28.0604L45.1467 18.6854L45.3092 18.5083C45.5413 18.2224 45.6935 17.88 45.7503 17.5162C45.807 17.1523 45.7663 16.7799 45.6323 16.4369C45.4983 16.0939 45.2757 15.7925 44.9873 15.5635C44.6989 15.3345 44.3549 15.1861 43.9905 15.1333L30.6988 13.2041L24.7571 1.16244C24.5852 0.81355 24.319 0.519759 23.9888 0.314321C23.6585 0.108882 23.2773 0 22.8884 0C22.4994 0 22.1182 0.108882 21.788 0.314321C21.4577 0.519759 21.1916 0.81355 21.0196 1.16244L15.0759 13.2041Z" data-figma-gradient-fill="{&#34;type&#34;:&#34;GRADIENT_DIAMOND&#34;,&#34;stops&#34;:[{&#34;color&#34;:{&#34;r&#34;:0.89019608497619629,&#34;g&#34;:0.87843137979507446,&#34;b&#34;:0.75294119119644165,&#34;a&#34;:1.0},&#34;position&#34;:0.0},{&#34;color&#34;:{&#34;r&#34;:0.89019608497619629,&#34;g&#34;:0.87843137979507446,&#34;b&#34;:0.75294119119644165,&#34;a&#34;:1.0},&#34;position&#34;:0.50},{&#34;color&#34;:{&#34;r&#34;:0.58431375026702881,&#34;g&#34;:0.54939460754394531,&#34;b&#34;:0.25141787528991699,&#34;a&#34;:1.0},&#34;position&#34;:1.0}],&#34;stopsVar&#34;:[{&#34;color&#34;:{&#34;r&#34;:0.89019608497619629,&#34;g&#34;:0.87843137979507446,&#34;b&#34;:0.75294119119644165,&#34;a&#34;:1.0},&#34;position&#34;:0.0},{&#34;color&#34;:{&#34;r&#34;:0.89019608497619629,&#34;g&#34;:0.87843137979507446,&#34;b&#34;:0.75294119119644165,&#34;a&#34;:1.0},&#34;position&#34;:0.50},{&#34;color&#34;:{&#34;r&#34;:0.58431375026702881,&#34;g&#34;:0.54939460754394531,&#34;b&#34;:0.25141787528991699,&#34;a&#34;:1.0},&#34;position&#34;:1.0}],&#34;transform&#34;:{&#34;m00&#34;:2.8029218079568888e-15,&#34;m01&#34;:-45.775184631347656,&#34;m02&#34;:45.775184631347656,&#34;m10&#34;:43.736553192138672,&#34;m11&#34;:2.6780915979047071e-15,&#34;m12&#34;:-2.6780915979047071e-15},&#34;opacity&#34;:1.0,&#34;blendMode&#34;:&#34;NORMAL&#34;,&#34;visible&#34;:true}"/>
<defs>
<clipPath id="paint0_diamond_330_203_clip_path"><path d="M15.0759 13.2041L1.7842 15.1312L1.54879 15.1791C1.19241 15.2737 0.867528 15.4612 0.607314 15.7224C0.3471 15.9837 0.160879 16.3093 0.0676675 16.666C-0.0255436 17.0228 -0.0224052 17.3979 0.0767622 17.753C0.17593 18.1081 0.367573 18.4306 0.632121 18.6874L10.2613 28.0604L7.99046 41.2999L7.96337 41.5291C7.94156 41.8977 8.01809 42.2655 8.18514 42.5947C8.35219 42.924 8.60375 43.203 8.91407 43.4031C9.22439 43.6032 9.58231 43.7172 9.95118 43.7335C10.3201 43.7498 10.6866 43.6677 11.0134 43.4958L22.9009 37.2458L34.7613 43.4958L34.9696 43.5916C35.3135 43.7271 35.6872 43.7686 36.0524 43.7119C36.4177 43.6553 36.7612 43.5025 37.0479 43.2692C37.3346 43.036 37.5541 42.7307 37.6839 42.3846C37.8136 42.0385 37.849 41.6642 37.7863 41.2999L35.5134 28.0604L45.1467 18.6854L45.3092 18.5083C45.5413 18.2224 45.6935 17.88 45.7503 17.5162C45.807 17.1523 45.7663 16.7799 45.6323 16.4369C45.4983 16.0939 45.2757 15.7925 44.9873 15.5635C44.6989 15.3345 44.3549 15.1861 43.9905 15.1333L30.6988 13.2041L24.7571 1.16244C24.5852 0.81355 24.319 0.519759 23.9888 0.314321C23.6585 0.108882 23.2773 0 22.8884 0C22.4994 0 22.1182 0.108882 21.788 0.314321C21.4577 0.519759 21.1916 0.81355 21.0196 1.16244L15.0759 13.2041Z"/></clipPath><linearGradient id="paint0_diamond_330_203" x1="0" y1="0" x2="500" y2="500" gradientUnits="userSpaceOnUse">
<stop stop-color="#E3E0C0"/>
<stop offset="0.5" stop-color="#E3E0C0"/>
<stop offset="1" stop-color="#958C40"/>
</linearGradient>
</defs>
</svg>
