<svg width="50" height="50" viewBox="0 0 50 50" fill="none" xmlns="http://www.w3.org/2000/svg">
<path d="M36.4454 23.4375C36.5235 23.5547 36.7188 23.4766 36.7188 23.3594C36.9532 21.25 37.5782 15.4297 41.7188 14.1797C43.047 13.7891 44.3751 14.7266 44.5313 15.9375C44.8048 17.8906 42.5782 22.9297 42.7735 27.5391C42.8126 28.2812 44.0626 36.1328 40.7423 40.7812C37.422 45.4297 29.5313 50.1562 21.6798 42.9687C17.6173 39.2578 17.6173 37.7734 12.5782 32.5781C11.5626 31.5625 7.50008 27.1094 6.40633 25.7422C4.96102 23.9062 7.26571 21.4844 9.02352 22.7344C9.84383 23.3203 17.1095 29.4141 17.3829 29.6875C17.9298 30.1562 18.5938 29.4922 18.2032 29.0234C13.7501 23.1641 9.45321 17.8906 8.28133 15.8594C7.10946 13.8281 9.92196 11.6406 11.5626 13.3984C12.6954 14.5703 21.0938 24.375 21.4845 24.8047C21.8751 25.2344 22.5391 24.6875 22.3048 24.1406C22.0313 23.6328 15.2345 11.7969 14.0235 9.10156C12.9688 6.71874 16.4845 4.49218 18.1251 6.95312C19.4532 8.90624 26.8751 21.25 27.1485 21.6797C27.5001 22.3047 28.2813 21.9141 27.9688 21.2109C27.7345 20.7031 23.1641 8.20312 22.8126 6.91406C22.1876 4.64843 25.4298 2.77343 26.9532 5.35156C29.0235 8.90624 33.1251 19.7656 36.4454 23.4375Z" fill="#FFCA28"/>
<mask id="mask0_330_202" style="mask-type:luminance" maskUnits="userSpaceOnUse" x="5" y="4" width="40" height="43">
<path d="M36.4454 23.4375C36.5235 23.5547 36.7188 23.4766 36.7188 23.3594C36.9532 21.25 37.5782 15.4297 41.7188 14.1797C43.047 13.7891 44.3751 14.7266 44.5313 15.9375C44.8048 17.8906 42.5782 22.9297 42.7735 27.5391C42.8126 28.2812 44.0626 36.1328 40.7423 40.7812C37.422 45.4297 29.5313 50.1562 21.6798 42.9687C17.6173 39.2578 17.6173 37.7734 12.5782 32.5781C11.5626 31.5625 7.50008 27.1094 6.40633 25.7422C4.96102 23.9062 7.26571 21.4844 9.02352 22.7344C9.84383 23.3203 17.1095 29.4141 17.3829 29.6875C17.9298 30.1562 18.5938 29.4922 18.2032 29.0234C13.7501 23.1641 9.45321 17.8906 8.28133 15.8594C7.10946 13.8281 9.92196 11.6406 11.5626 13.3984C12.6954 14.5703 21.0938 24.375 21.4845 24.8047C21.8751 25.2344 22.5391 24.6875 22.3048 24.1406C22.0313 23.6328 15.2345 11.7969 14.0235 9.10156C12.9688 6.71874 16.4845 4.49218 18.1251 6.95312C19.4532 8.90624 26.8751 21.25 27.1485 21.6797C27.5001 22.3047 28.2813 21.9141 27.9688 21.2109C27.7345 20.7031 23.1641 8.20312 22.8126 6.91406C22.1876 4.64843 25.4298 2.77343 26.9532 5.35156C29.0235 8.90624 33.1251 19.7656 36.4454 23.4375Z" fill="white"/>
</mask>
<g mask="url(#mask0_330_202)">
<path d="M35.6249 23.516C30.7811 27.4614 28.6327 33.0864 32.6171 38.9457C32.9686 39.4535 33.7108 38.9848 33.3983 38.3989C31.7577 35.4692 30.5467 30.1957 36.2108 24.6879C36.8749 25.0004 37.6561 24.3364 37.6952 23.7504C38.1249 20.0785 38.5546 17.0317 41.2889 15.3129C42.3436 14.6489 43.7108 15.1176 43.7889 16.7192C43.7889 16.7192 44.6483 16.7973 44.9999 16.8364C45.1952 16.016 45.5858 14.5317 45.5858 14.4926C45.5858 14.4535 40.9764 12.7348 40.9764 12.7348L36.953 16.7192L35.6249 23.516ZM27.8124 21.9145C28.3592 21.641 28.828 21.2114 28.5936 20.6254C28.3592 20.0004 24.0233 8.20354 23.7499 7.3051C23.203 5.66448 24.5702 4.37541 25.7811 4.92229C26.4452 5.23479 26.7577 4.1801 26.4061 4.02385C26.0546 3.8676 25.2343 3.12541 23.5936 3.94573C20.6639 5.4301 22.3827 8.71135 23.1639 10.6254C23.9452 12.5395 27.8124 21.9145 27.8124 21.9145ZM22.1483 24.8442C22.8124 24.3754 23.3202 23.9848 22.7343 23.0473C22.3436 22.4223 15.7421 10.4301 15.078 9.25823C14.1014 7.57854 16.1327 6.09416 17.2655 7.14885C17.7733 7.6176 18.5546 6.60198 18.1639 6.21135C17.7733 5.82073 16.4061 4.68791 14.6874 5.82073C12.9686 6.95354 12.9296 8.32073 13.1639 8.90666C13.3593 9.4926 22.1483 24.8442 22.1483 24.8442ZM18.2421 29.6489C18.7108 28.9457 19.0233 28.5942 18.3593 27.6957C17.6952 26.7973 9.80456 16.4848 9.37488 15.8989C8.28113 14.4535 9.88269 13.2035 10.6639 13.6332C11.4061 14.0629 11.8358 12.852 11.2108 12.5395C10.5858 12.227 9.57019 11.8754 8.63269 12.5395C7.69519 13.2035 7.14831 14.5707 7.30456 15.352C7.42175 16.1332 18.2421 29.6489 18.2421 29.6489Z" fill="#E3E0C0"/>
<path d="M36.25 44.3754C29.9219 47.3832 25.1953 45.0395 22.1484 42.0707C18.6719 38.6723 17.0312 35.5473 14.7265 33.4379C13.9453 32.6957 7.77342 26.1332 7.03124 25.0004C6.4453 24.0629 7.61717 22.4614 8.90624 23.3598C9.72655 23.9067 10.1172 22.7348 9.5703 22.4223C9.02342 22.1098 7.81249 21.4457 6.52342 22.4223C5.23436 23.3598 5.1953 25.0395 5.5078 25.5864C5.8203 26.1332 24.8047 47.9301 24.8047 47.9301L32.5391 47.7348L36.6797 45.1957L36.25 44.3754Z" fill="#E3E0C0"/>
</g>
<path d="M4.14071 31.758C5.35165 35.3518 7.18759 37.5783 10.1954 39.6096C10.7423 40.0002 10.4298 40.7814 9.80478 40.508C6.99228 39.3752 3.86728 36.8752 3.12509 31.9143C3.0079 31.2502 3.9454 31.133 4.14071 31.758ZM6.48446 29.6096C7.6954 33.2033 9.53134 35.4299 12.5392 37.4611C13.086 37.8518 12.7735 38.633 12.1485 38.3596C9.33603 37.2267 6.21103 34.7267 5.46884 29.7658C5.39071 29.1018 6.28915 28.9846 6.48446 29.6096ZM36.5235 13.5158C35.586 9.84394 33.8673 7.50019 31.0157 5.31269C30.4688 4.92207 30.8595 4.14082 31.4845 4.41425C34.2188 5.70332 37.1876 8.43769 37.5782 13.4377C37.6173 14.1018 36.6798 14.1799 36.5235 13.5158ZM39.0626 11.6408C38.1251 7.96894 36.4063 5.62519 33.5548 3.43769C33.0079 3.04707 33.3985 2.26582 34.0235 2.53925C36.7579 3.82832 39.7267 6.56269 40.1173 11.5627C40.1563 12.1877 39.2579 12.2658 39.0626 11.6408Z" fill="#B0BEC5"/>
</svg>
