<svg width="30" height="30" viewBox="0 0 30 30" fill="none" xmlns="http://www.w3.org/2000/svg">
<path d="M21.1279 1.5V1.50391C21.4407 3.3452 22.3184 5.04357 23.6387 6.36426C24.9591 7.68502 26.6579 8.56246 28.499 8.875L28.5 8.87598V8.87402V8.875V14.9258C26.7869 14.7552 25.1376 14.295 23.6104 13.5732L23.166 13.3545L21.0039 12.29V18.75C21.0035 21.2811 20.0194 23.7131 18.2598 25.5312C16.5002 27.3494 14.1022 28.4112 11.5742 28.4932L11.2432 28.499C8.85773 28.4987 6.55493 27.6239 4.77148 26.0381C2.98453 24.4491 1.84401 22.2578 1.56641 19.8818C1.28886 17.506 1.89317 15.1108 3.26562 13.1523C4.63818 11.1938 6.68302 9.80839 9.00977 9.25977V15.751L8.97949 15.7734L8.9502 15.7979L8.77051 15.9482L8.74023 15.9727L8.71191 15.999C8.25499 16.4222 7.91061 16.9534 7.70996 17.543C7.50947 18.1323 7.45881 18.7622 7.5625 19.376C7.6663 19.9899 7.92143 20.5688 8.30469 21.0596C8.68804 21.5504 9.18806 21.9382 9.75879 22.1875C10.3293 22.4367 10.9528 22.5405 11.5732 22.4883C12.1939 22.436 12.7925 22.229 13.3135 21.8877C13.8342 21.5464 14.2618 21.081 14.5576 20.5332C14.8535 19.9852 15.0081 19.3718 15.0078 18.749V1.5H21.1279Z" fill="#A78F74" stroke="#E3E0C0" stroke-width="3"/>
</svg>
